<svg width="491" height="170" viewBox="0 0 491 170" fill="none" xmlns="http://www.w3.org/2000/svg">
<g clip-path="url(#clip0)">
<g filter="url(#filter0_d)">
<path d="M82.7819 26.9505L79.9679 28.0677C77.6645 34.7754 75.9062 43.5393 74.6931 54.3595C74.2267 58.4488 73.3779 63.2245 72.1467 68.6868C70.9065 74.1039 69.3462 79.2076 67.4656 83.9979C64.9187 90.4242 60.9491 96.0718 55.5567 100.941C50.2184 105.846 45.1028 109.132 40.21 110.799C37.9628 111.57 35.3676 112.244 32.4243 112.823C29.4809 113.401 26.3447 113.476 23.0156 113.049C17.8048 112.38 13.9289 110.366 11.3881 107.009C10.2349 105.448 9.43141 103.513 8.97765 101.204C8.52389 98.8947 8.60137 96.0576 9.21008 92.6929C9.66117 90.4409 10.7955 88.1957 12.6132 85.9573C14.4309 83.719 15.9466 82.457 17.1603 82.1715C17.6948 82.0195 17.9843 82.0567 18.0288 82.2831C18.0191 82.4731 17.7692 82.7573 17.2792 83.1358C15.9458 84.0092 14.5919 85.6156 13.2174 87.955C11.8428 90.2944 11.0796 92.5137 10.9277 94.6129C10.7394 96.7663 10.752 98.3863 10.9656 99.4731C11.6151 102.779 13.023 105.277 15.1894 106.968C16.6789 108.086 18.4361 109.01 20.4609 109.741C22.4858 110.472 24.5797 110.837 26.7428 110.835C29.9376 110.819 32.4407 110.633 34.252 110.277C36.0633 109.921 37.6352 109.424 38.9678 108.786C41.9136 107.501 44.6571 105.787 47.1985 103.641C49.7852 101.487 52.0011 99.2409 53.8462 96.9031C55.7003 94.6105 57.4427 91.8696 59.0735 88.6803C60.7496 85.4821 62.1124 82.6042 63.1619 80.0464C64.2113 77.4887 65.2624 74.4604 66.315 70.9614C68.0177 65.2654 69.637 58.7862 71.173 51.5239C73.1844 42.8513 75.4546 35.2566 77.9836 28.7398C71.894 31.018 65.9314 34.5411 60.0958 39.309C57.1372 41.7246 54.7475 44.5221 52.9266 47.7017C50.5689 51.7393 49.7771 55.7279 50.5511 59.6674C50.9693 61.7957 51.7922 63.3506 53.0197 64.3322C54.2925 65.3049 55.495 65.6801 56.627 65.4576C57.7591 65.2352 58.9554 64.7415 60.216 63.9764C61.4766 63.2114 62.5302 62.1108 63.3767 60.6747C64.706 58.3442 65.117 55.8884 64.6099 53.3073C64.3964 52.2205 64.0955 51.5271 63.7074 51.2271C63.0928 50.9716 62.9808 50.6409 63.3713 50.235C63.816 49.8654 64.3679 49.9216 65.027 50.4035C65.6755 51.3107 66.1333 52.4436 66.4002 53.802C66.6582 55.1152 66.4582 56.7301 65.8001 58.6465C64.6851 61.8285 62.7583 64.2294 60.0196 65.8492C58.7501 66.569 57.5041 67.049 56.2814 67.2892C54.2437 67.6896 52.2808 67.3933 50.3926 66.4004C47.9715 65.089 46.4763 62.9842 45.9068 60.0861C45.1862 56.4183 45.8098 52.6509 47.7778 48.7839C49.2631 45.8113 51.1769 43.2249 53.5194 41.0245C55.9071 38.8152 58.6701 36.7203 61.8082 34.7398C66.8692 31.535 72.5302 28.8707 78.7913 26.7469C79.1567 25.7345 79.7627 24.5102 80.6093 23.0741C81.4558 21.6379 82.2191 20.7354 82.8992 20.3667C83.5792 19.9979 84.1456 19.769 84.5984 19.6801C86.1833 19.3687 87.1092 19.8922 87.3761 21.2507C87.5711 22.4822 87.2598 23.531 86.4423 24.3971C85.616 25.2179 84.3958 26.069 82.7819 26.9505ZM84.0067 22.0538C83.9161 22.0716 83.8073 22.1165 83.6804 22.1885C83.5987 22.2515 83.4625 22.3959 83.2716 22.6215C83.1172 22.7929 82.9628 22.9644 82.8083 23.1358C82.6539 23.3072 82.4675 23.5555 82.2492 23.8806C82.0762 24.1967 81.9169 24.4632 81.7714 24.6799C81.6622 24.8425 81.5029 25.1089 81.2935 25.4793C81.0752 25.8043 80.9297 26.0211 80.8569 26.1294C83.8746 24.9721 85.2496 23.8319 84.9819 22.7087C84.7846 22.1831 84.4595 21.9648 84.0067 22.0538Z" fill="#FFF9EF"/>
<path d="M87.5819 65.9883C87.1738 67.6353 87.1124 69.4174 87.3976 71.3345C87.5878 72.6126 88.0144 73.5988 88.6776 74.2933C89.3797 74.9354 90.2557 75.1783 91.3055 75.0221C95.4593 74.4041 98.6444 69.9411 100.861 61.6331C101.072 60.8552 101.412 60.478 101.882 60.5013C102.072 60.5198 102.18 60.6203 102.207 60.8029C102.234 60.9855 101.889 62.2732 101.172 64.6661C100.494 67.0065 99.7317 68.9395 98.8856 70.465C97.0331 74.0066 94.3951 76.0321 90.9717 76.5414C89.1459 76.8131 87.5056 76.4506 86.051 75.454C84.5963 74.4573 83.7162 72.932 83.4106 70.8779C83.1049 68.8239 83.2616 66.5844 83.8806 64.1595C84.5384 61.6822 85.5658 59.3365 86.9627 57.1224C88.3527 54.8627 90.0753 53.1134 92.1305 51.8745C93.1124 51.2619 94.0827 50.8842 95.0412 50.7416C95.9998 50.599 96.9306 50.7404 97.8338 51.1659C98.7048 51.6895 99.1981 52.3393 99.3135 53.1153C99.721 55.854 98.4683 58.7231 95.5553 61.7226C94.6666 62.648 93.3568 63.566 91.6261 64.4767C89.8885 65.3418 88.5405 65.8456 87.5819 65.9883ZM97.4547 53.3218C97.3189 52.4089 96.8858 52.0068 96.1554 52.1155C94.8774 52.3056 93.1717 54.169 91.0385 57.7057C89.7718 59.8537 88.7217 62.2028 87.888 64.753C88.664 64.6375 89.7416 64.1973 91.1207 63.4322C92.5455 62.6603 93.7378 61.7364 94.6975 60.6605C96.8888 58.1416 97.8078 55.6954 97.4547 53.3218Z" fill="#FFF9EF"/>
<path d="M126.931 48.6267C122.514 59.213 120.491 66.0176 120.863 69.0406C121.01 70.2315 121.518 70.7735 122.388 70.6664C124.724 70.3792 127.375 66.0314 130.339 57.6231C130.535 56.948 130.779 56.6623 131.071 56.7659C131.362 56.8696 131.522 57.0359 131.551 57.2649C131.579 57.4939 131.521 57.78 131.377 58.1231C129.552 63.3226 127.908 66.9655 126.444 69.0518C125.02 71.0867 123.461 72.2083 121.767 72.4167C120.118 72.6195 118.779 72.1332 117.751 70.9577C117.22 70.4186 116.892 69.6452 116.769 68.6375C116.639 67.584 116.713 66.2963 116.991 64.7743C117.269 63.2522 118.235 60.7156 119.891 57.1643C120.293 56.2779 120.467 55.6057 120.41 55.1476C120.348 54.6438 119.928 54.4398 119.149 54.5355C118.371 54.6313 117.009 55.8449 115.064 58.1764C112.138 61.6049 109.512 66.5309 107.187 72.9543C106.968 73.4461 106.684 73.7832 106.334 73.9657C106.025 74.0967 105.369 74.2471 104.367 74.4168C103.365 74.5865 102.715 74.7827 102.417 75.0053C102.97 73.4495 104.044 70.272 105.639 65.4728C108.501 56.9841 110.457 52.094 111.507 50.8025C111.989 50.1853 112.711 49.8175 113.673 49.6992C113.856 49.6767 114.322 49.6891 115.072 49.7364C115.868 49.778 116.443 49.7305 116.798 49.5939C115.216 50.7183 112.974 55.3646 110.073 63.5326C111.899 60.6113 113.587 58.265 115.136 56.4937C116.725 54.6709 118.675 52.9433 120.985 51.3108C123.289 49.6326 125.014 48.7231 126.159 48.5823C126.434 48.5485 126.691 48.5633 126.931 48.6267Z" fill="#FFF9EF"/>
<path d="M156.492 45.7807C151.777 56.2379 149.563 62.9826 149.849 66.0149C149.961 67.2095 150.454 67.7655 151.327 67.6832C153.67 67.4621 156.443 63.191 159.644 54.8698C159.859 54.2006 160.111 53.9219 160.399 54.0337C160.688 54.1455 160.843 54.3163 160.865 54.546C160.886 54.7757 160.821 55.06 160.667 55.399C158.696 60.5448 156.949 64.1397 155.427 66.1838C153.946 68.1777 152.356 69.2548 150.656 69.4152C149.002 69.5713 147.678 69.0473 146.684 67.8432C146.168 67.2893 145.862 66.5069 145.767 65.4962C145.667 64.4395 145.778 63.1543 146.099 61.6408C146.419 60.1272 147.457 57.6189 149.213 54.1158C149.64 53.2411 149.832 52.5741 149.789 52.1146C149.741 51.6093 149.327 51.3934 148.546 51.4671C147.765 51.5408 146.369 52.7155 144.359 54.991C141.337 58.3355 138.573 63.1852 136.067 69.5403C135.835 70.0258 135.541 70.3548 135.187 70.5273C134.874 70.6495 134.214 70.7813 133.208 70.9226C132.201 71.0639 131.546 71.2417 131.241 71.4558C131.838 69.9162 133.001 66.7703 134.731 62.0181C137.832 53.6137 139.925 48.7809 141.011 47.5195C141.511 46.9162 142.243 46.569 143.208 46.4779C143.391 46.4606 143.857 46.4862 144.606 46.5546C145.4 46.6188 145.976 46.5876 146.335 46.461C144.722 47.5403 142.35 52.1213 139.219 60.2041C141.127 57.3355 142.88 55.0379 144.478 53.311C146.118 51.5339 148.116 49.8621 150.471 48.2956C152.822 46.6832 154.572 45.8228 155.721 45.7144C155.996 45.6884 156.253 45.7105 156.492 45.7807Z" fill="#FFF9EF"/>
<path d="M158.619 90.2233C156.593 90.3529 154.999 90.0155 153.837 89.2112C152.679 88.4529 152.062 87.475 151.985 86.2776C151.909 85.0802 152.167 83.6995 152.761 82.1356C153.808 79.7103 155.852 77.6836 158.892 76.0557C161.17 74.8002 164.213 73.5652 168.019 72.3507C171.829 71.1822 174.276 70.4015 175.361 70.0084C176.833 67.001 178.482 61.6933 180.308 54.0853C177.937 58.9536 175.914 62.3893 174.239 64.3924C172.563 66.3954 170.805 67.4559 168.962 67.5737C166.475 67.7327 164.958 66.7892 164.411 64.7433C164.207 64.4327 164.13 63.9521 164.181 63.3014C164.231 62.6508 164.248 62.1873 164.23 61.911C164.259 61.6317 164.392 61.1839 164.63 60.5675C164.865 59.9051 165.02 59.4328 165.094 59.1506C165.533 58.0589 165.918 57.202 166.248 56.5797C165.511 56.6268 165.28 56.2716 165.555 55.5142L166.644 53.0168C168.019 49.9232 169.146 47.3077 170.027 45.1705C170.426 44.1739 171.293 43.6329 172.628 43.5475L176.842 43.2781C176.756 43.3761 176.538 43.575 176.187 43.8749C175.393 44.4805 174.813 45.1651 174.445 45.9284C172.97 48.8898 171.158 53.0981 169.01 58.5534C168.135 60.7827 167.73 62.4039 167.795 63.4171C167.86 64.4303 168.066 65.1339 168.415 65.5277C168.81 65.9187 169.307 66.095 169.906 66.0567C170.781 66.0007 171.942 65.0016 173.39 63.0593C176.416 59.0277 179.647 52.7865 183.083 44.3356C183.528 43.3361 184.395 42.7951 185.685 42.7126L189.415 42.4741C188.271 43.3796 187.394 44.4992 186.786 45.8329C186.175 47.1206 185.524 48.8732 184.833 51.0907C184.189 53.3053 183.359 56.2485 182.346 59.9202C181.378 63.589 180.629 66.3421 180.099 68.1794C184.346 66.6131 187.516 64.1214 189.61 60.7043C190.532 59.2118 191.82 56.5861 193.476 52.827C193.757 52.1617 194.017 51.8907 194.256 52.0141C194.541 52.1346 194.691 52.31 194.706 52.5403C194.721 52.7706 194.387 53.6936 193.704 55.3096C193.064 56.8765 192.396 58.3527 191.698 59.7384C190.998 61.0779 190.07 62.4783 188.915 63.9394C187.76 65.4006 186.447 66.5712 184.978 67.4513C183.511 68.3774 181.54 69.382 179.066 70.4651C175.932 77.1394 172.667 82.1112 169.269 85.3805C166.083 88.3587 162.533 89.973 158.619 90.2233ZM154.175 83.6405C153.733 84.6861 153.539 85.6234 153.592 86.4523C153.648 87.3274 154.013 87.9745 154.687 88.3939C155.361 88.8132 156.182 88.9919 157.149 88.9301C159.82 88.7593 162.587 87.195 165.45 84.2374C168.316 81.3259 170.8 78.2306 172.902 74.9517L174.259 72.2985C166.786 74.7648 162.088 76.4987 160.164 77.5004C157.299 78.9784 155.302 81.0251 154.175 83.6405Z" fill="#FFF9EF"/>
<path d="M241.984 37.4953L246.622 37.3456C248.56 37.3408 249.853 37.753 250.501 38.5821C250.825 38.9505 250.988 39.3193 250.989 39.6885C250.99 40.0577 250.875 40.381 250.645 40.6584C250.093 41.352 249.055 41.7006 247.532 41.7044C244.902 41.7108 242.569 40.7012 240.534 38.6756C235.367 39.4727 231.451 42.2281 228.786 46.9417C227.086 49.9917 226.239 52.9703 226.247 55.8776C226.25 57.4928 226.508 59.0843 227.02 60.6521C228.553 65.0786 231.858 67.2856 236.935 67.2733C241.457 67.2622 245.376 65.7298 248.691 62.6759C252.006 59.6221 253.66 56.5953 253.653 53.5957C253.65 52.1651 253.024 50.9899 251.775 50.0699C250.573 49.1037 249.28 48.5531 247.895 48.418C246.556 48.2367 245.402 48.1472 244.433 48.1496C243.51 48.1518 242.288 48.2702 240.765 48.5046C239.289 48.6928 237.814 49.2964 236.339 50.3152C234.589 51.5193 233.716 53.1136 233.721 55.098C233.725 57.0823 235.276 58.8783 238.372 60.486C238.834 60.7617 239.019 61.1305 238.928 61.5922C238.883 62.0076 238.699 62.1234 238.375 61.9396C235.464 60.3777 233.406 58.606 232.201 56.6245C231.368 55.3344 230.95 54.251 230.948 53.3741C230.945 52.4973 231.059 51.7818 231.288 51.2274C231.838 49.6109 233.219 48.2462 235.432 47.1332C237.644 46.0202 240.458 45.4596 243.873 45.4513L256.125 45.4214C258.525 45.4156 261.476 44.6008 264.98 42.9771C266.685 42.1884 267.929 41.2624 268.711 40.1991C269.079 39.6444 269.262 39.0671 269.26 38.4672C269.259 37.8211 269.119 37.2677 268.841 36.8069C268.563 36.346 268.447 36.0233 268.493 35.8386C268.538 35.6539 268.653 35.5613 268.838 35.5609C269.069 35.5603 269.254 35.6752 269.393 35.9056C270.041 37.0116 270.367 38.0722 270.369 39.0875C270.372 40.0566 270.074 40.9572 269.476 41.7893C268.327 43.5458 266.369 44.958 263.603 46.0262C260.836 47.0944 257.976 47.632 255.023 47.6392C254.931 47.6395 254.815 47.6397 254.677 47.6401C256.434 49.0664 257.315 50.8871 257.321 53.1022C257.328 56.1941 255.536 59.3827 251.945 62.668C250.241 64.2873 248.052 65.6079 245.378 66.6297C242.704 67.6515 239.89 68.166 236.937 68.1732C229.784 68.1906 224.726 66.1262 221.762 61.9801C220.28 59.9071 219.537 57.9014 219.532 55.9632C219.527 54.025 219.823 52.2245 220.419 50.5617C222.023 46.1737 225.269 42.7739 230.154 40.3623C232.966 38.971 236.125 38.0864 239.631 37.7087C238.335 35.9121 237.683 33.6524 237.677 30.9297C237.716 28.2068 238.91 25.6427 241.257 23.2373C243.605 20.8318 246.301 19.0947 249.344 18.0259C252.433 16.9108 255.431 16.3497 258.339 16.3426C260.738 16.3368 262.77 16.8164 264.434 17.7814C266.143 18.7464 267.001 20.2903 267.006 22.4131C267.009 23.7514 266.597 24.9522 265.769 26.0156C264.941 27.0329 263.996 27.5429 262.935 27.5454C261.919 27.5479 261.088 27.25 260.44 26.6516C259.839 26.007 259.537 25.2232 259.535 24.3003C259.533 23.3773 259.831 22.6151 260.429 22.0138C261.074 21.4123 261.811 21.1105 262.642 21.1085C263.196 21.1071 263.727 21.2443 264.235 21.5199C264.743 21.7494 265.044 22.0256 265.137 22.3484C265.182 22.0714 265.205 21.7944 265.204 21.5176C265.202 20.5023 264.784 19.7188 263.952 19.167C263.074 18.5231 261.758 18.2033 260.004 18.2076C258.251 18.2118 256.198 18.7014 253.847 19.6762C251.496 20.6049 249.284 21.9717 247.212 23.7765C245.14 25.5814 243.507 27.8005 242.313 30.4338C241.671 31.9121 241.351 33.2281 241.354 34.3818C241.357 35.5355 241.567 36.5734 241.984 37.4953ZM249.812 39.6221C249.81 38.7915 248.101 38.3803 244.686 38.3886C243.994 38.3903 243.279 38.4151 242.541 38.4631C243.651 39.8448 245.13 40.5334 246.976 40.5289C248.868 40.5243 249.813 40.2221 249.812 39.6221Z" fill="#FFF9EF"/>
<path d="M354.787 23.4969C354.91 21.8864 354.289 20.3118 352.925 18.7732C350.963 16.5872 348.118 15.3523 344.391 15.0683C341.124 14.8194 337.457 15.2574 333.391 16.3823C331.265 16.9608 329.393 17.8364 327.776 19.0091C325.275 20.855 323.948 22.7902 323.793 24.8149C323.586 27.5297 325.126 30.1 328.412 32.5256C329.641 33.4061 332.12 34.8908 335.848 36.9799C339.626 39.0265 342.371 40.6703 344.081 41.9114C346.67 43.7747 348.398 45.6883 349.267 47.652C350.182 49.6193 350.578 51.4082 350.455 53.0187C350.28 55.3194 349.341 57.6083 347.641 59.8854C344.646 63.9614 340.454 67.3446 335.065 70.0349C328.856 73.1718 321.564 74.4212 313.189 73.7831C305.137 73.1696 298.897 70.6346 294.469 66.1782C291.026 62.7687 289.493 58.6022 289.868 53.6786C290.106 50.5496 291.497 47.1844 294.039 43.5829C296.627 39.985 299.637 37.53 303.069 36.218C303.781 35.9945 304.294 35.941 304.609 36.0576C304.97 36.1776 304.661 36.5937 303.681 37.3059C301.583 38.7196 299.864 40.3242 298.524 42.1197C295.639 45.9726 294.015 50.2689 293.654 55.0084C293.416 58.1374 294.081 60.9419 295.651 63.4219C298.461 67.8476 303.71 70.6311 311.399 71.7723C312.266 71.9309 313.551 72.0751 315.253 72.2048C317.002 72.3381 319.373 72.1948 322.367 71.7749C325.404 71.4046 328.357 70.6114 331.227 69.3953C337.401 66.7186 341.552 62.962 343.679 58.1257C344.343 56.6953 344.728 55.2898 344.833 53.9094C345.072 50.7804 343.878 47.9126 341.254 45.3059C339.827 43.9939 336.841 42.1697 332.299 39.8335C327.805 37.4547 324.794 35.6748 323.264 34.4937C319.903 31.831 318.347 28.8661 318.596 25.5991C318.814 22.7462 320.613 20.0832 323.995 17.6103C328.845 14.0921 335.434 12.6503 343.763 13.2849C347.674 13.5829 350.804 14.423 353.151 15.8052C355.548 17.1449 356.934 19.0092 357.307 21.398C357.364 21.8652 357.375 22.3288 357.34 22.789C357.203 24.5835 356.252 26.1309 354.487 27.4312C353.267 28.2638 351.669 28.8826 349.694 29.2875C348.849 29.4545 348.395 29.3274 348.335 28.9063C348.288 28.3011 348.892 27.9768 350.145 27.9334C352.374 27.8256 353.816 26.8247 354.469 24.9306C354.646 24.435 354.752 23.9571 354.787 23.4969Z" fill="#FFF9EF"/>
<path d="M383.988 55.8417C383.061 56.5634 381.659 58.2957 379.783 61.0384C377.913 63.7354 376.726 65.7967 376.223 67.2223C375.772 68.6077 375.489 69.7584 375.375 70.6743C375.267 71.5444 375.556 72.0222 376.243 72.1077C377.113 72.2159 378.289 71.5485 379.771 70.1052C381.939 68.0034 384.173 65.1888 386.472 61.6616C386.707 61.2723 386.941 61.0689 387.176 61.0516C387.559 60.9598 387.725 61.12 387.674 61.5322C387.646 61.7612 387.543 62.0274 387.365 62.3308C382.092 70.3244 378.013 74.1416 375.128 73.7825C373.8 73.6172 372.803 72.8422 372.139 71.4573C371.812 70.7191 371.72 69.7776 371.862 68.6327C372.005 67.4878 372.408 66.1196 373.071 64.528C368.672 69.9795 365.145 72.5401 362.489 72.2095C361.756 72.1183 361.12 71.8067 360.582 71.2747C359.328 70.142 358.846 68.4079 359.137 66.0723C359.695 61.5844 362.209 57.2701 366.677 53.1292C369.194 50.8383 372.104 49.503 375.407 49.1235C376.305 49.0028 377.144 48.9909 377.922 49.0878C380.029 49.35 381.724 50.3049 383.007 51.9528C383.402 52.5135 383.479 53.0114 383.239 53.4466C382.999 53.8817 382.587 54.0165 382.003 53.8508C381.705 52.1395 380.708 51.1784 379.014 50.9675C377.044 50.7225 374.424 51.9774 371.151 54.7324C369.274 56.359 367.472 58.3205 365.745 60.6167C363.589 63.3711 362.399 65.6413 362.177 67.4273C361.955 69.2133 362.416 70.1775 363.561 70.32C366.308 70.662 370.428 66.8962 375.918 59.0228C376.999 57.4367 377.875 56.383 378.544 55.8618C379.219 55.2947 380.015 55.0682 380.931 55.1822C381.114 55.205 381.563 55.3307 382.279 55.5593C383.04 55.7935 383.61 55.8877 383.988 55.8417Z" fill="#FFF9EF"/>
<path d="M414.701 56.4981C407.576 65.4876 403.782 71.4875 403.319 74.4979C403.137 75.6838 403.479 76.3434 404.345 76.4767C406.672 76.8344 410.403 73.3694 415.539 66.0817C415.911 65.4852 416.223 65.2765 416.476 65.4554C416.728 65.6343 416.837 65.8378 416.802 66.0659C416.767 66.2939 416.634 66.5536 416.402 66.8448C413.234 71.3535 410.663 74.4132 408.687 76.0238C406.765 77.5958 404.96 78.252 403.272 77.9925C401.63 77.74 400.474 76.9085 399.804 75.4981C399.439 74.835 399.333 74.0018 399.488 72.9983C399.649 71.9492 400.07 70.73 400.75 69.3405C401.431 67.9511 403.05 65.7721 405.608 62.8037C406.236 62.0598 406.585 61.4598 406.655 61.0037C406.732 60.502 406.383 60.1915 405.607 60.0722C404.832 59.953 403.192 60.7513 400.687 62.4672C396.94 64.9726 393.075 69.0007 389.094 74.5516C388.75 74.9656 388.385 75.213 387.999 75.2937C387.666 75.3359 386.994 75.3026 385.983 75.1939C384.973 75.0852 384.294 75.0975 383.946 75.2309C384.901 73.8835 386.797 71.1168 389.635 66.9309C394.694 59.538 397.904 55.3625 399.265 54.4046C399.897 53.9414 400.691 53.7835 401.649 53.9308C401.832 53.9588 402.277 54.0974 402.986 54.3464C403.74 54.6025 404.307 54.713 404.686 54.6779C402.858 55.3306 399.439 59.1938 394.429 66.2674C396.98 63.9516 399.241 62.1515 401.213 60.8673C403.237 59.5444 405.583 58.4109 408.249 57.4669C410.923 56.4773 412.829 56.0702 413.97 56.2455C414.243 56.2876 414.487 56.3718 414.701 56.4981Z" fill="#FFF9EF"/>
<path d="M434.37 79.043C434.103 80.4954 434.56 81.3301 435.74 81.5471C437.873 81.9393 441.365 78.8979 446.215 72.423C446.402 72.1757 446.565 71.9242 446.706 71.6686C446.892 71.4213 447.107 71.2731 447.351 71.2241C447.64 71.1834 447.809 71.2849 447.858 71.5285C447.915 71.7267 447.811 72.0361 447.546 72.4566C442.363 80.2311 437.911 83.7762 434.189 83.0919C432.964 82.8666 432.088 82.1425 431.562 80.9197C431.036 79.6969 430.869 78.5635 431.061 77.5196C431.261 76.4303 431.558 75.4527 431.952 74.5866C428.519 78.4598 425.794 80.5162 423.78 80.7558C423.193 80.8826 422.628 80.8959 422.083 80.7958C421.584 80.704 421.097 80.5441 420.623 80.3161C418.507 79.3172 417.721 77.3426 418.263 74.3925C418.63 72.3954 419.534 70.2859 420.975 68.064C422.47 65.805 424.352 63.7346 426.622 61.8527C428.892 59.9709 431.414 58.8862 434.188 58.5986C435.199 58.4561 436.341 58.5017 437.611 58.7353C438.928 58.9773 440.305 59.6529 441.743 60.7619C445.898 55.5197 449.519 50.6253 452.607 46.0787C453.518 44.6977 454.306 43.8572 454.971 43.5572C455.69 43.2202 456.299 43.0975 456.798 43.1893C457.343 43.2895 457.661 43.3479 457.752 43.3646C457.888 43.3896 458.306 43.537 459.008 43.8066C459.762 44.0393 460.348 44.1705 460.765 44.2002C459.546 44.9614 455.926 49.0819 449.906 56.5616C442.234 66.1308 437.483 72.5771 435.652 75.9003C434.956 77.1331 434.529 78.1807 434.37 79.043ZM440.998 61.7511C440.517 61.0525 439.731 60.6031 438.642 60.4029C437.598 60.2109 435.977 60.734 433.779 61.9721C430.271 63.9547 427.176 66.6233 424.494 69.9779C422.728 72.1868 421.698 74.0855 421.406 75.6741C421.273 76.4003 421.288 77.0834 421.452 77.7236C421.661 78.372 422.083 78.7546 422.719 78.8715C424.262 79.1552 426.46 77.9171 429.314 75.1572C432.167 72.3974 436.062 67.9286 440.998 61.7511Z" fill="#FFF9EF"/>
<path d="M435.831 105.51C433.847 105.081 432.406 104.321 431.509 103.23C430.602 102.184 430.275 101.074 430.529 99.9016C430.782 98.7289 431.409 97.4714 432.407 96.1293C434.077 94.0826 436.597 92.6919 439.967 91.9571C442.501 91.3721 445.766 91.0158 449.759 90.8882C453.743 90.8056 456.311 90.7235 457.461 90.642C459.7 88.1516 462.737 83.4968 466.573 76.6776C462.962 80.7124 460.076 83.4643 457.917 84.9331C455.758 86.4019 453.776 86.9411 451.972 86.5509C449.537 86.024 448.335 84.7018 448.368 82.5843C448.256 82.2295 448.314 81.7462 448.54 81.1342C448.767 80.5223 448.91 80.081 448.968 79.8103C449.072 79.5495 449.323 79.1551 449.72 78.6273C450.127 78.0544 450.405 77.6423 450.554 77.3912C451.275 76.4611 451.879 75.7419 452.366 75.2336C451.645 75.0775 451.52 74.6728 451.992 74.0194L453.722 71.9148C455.889 69.3147 457.689 67.1071 459.12 65.292C459.776 64.4424 460.758 64.159 462.066 64.4419L466.193 65.3347C466.084 65.4054 465.819 65.537 465.4 65.7296C464.471 66.0952 463.725 66.595 463.163 67.2288C460.935 69.6741 458.041 73.2269 454.484 77.8871C453.033 79.7924 452.2 81.2412 451.985 82.2335C451.771 83.2258 451.777 83.9591 452.005 84.4333C452.278 84.9173 452.708 85.2228 453.294 85.3496C454.151 85.535 455.542 84.8914 457.466 83.4189C461.478 80.3679 466.292 75.2476 471.908 68.058C472.609 67.2181 473.591 66.9347 474.854 67.2079L478.507 67.9982C477.159 68.5564 476.01 69.3938 475.06 70.5104C474.12 71.5819 473.015 73.0898 471.744 75.0341C470.519 76.9882 468.917 79.5926 466.938 82.8474C465.004 86.1119 463.531 88.5554 462.519 90.1779C467.032 89.8321 470.763 88.3019 473.711 85.5872C475.006 84.4036 476.963 82.2302 479.583 79.0669C480.036 78.5037 480.36 78.3142 480.556 78.4983C480.797 78.6921 480.894 78.9018 480.845 79.1273C480.796 79.3529 480.223 80.1495 479.124 81.5172C478.08 82.8496 477.034 84.0868 475.984 85.229C474.944 86.3261 473.669 87.4195 472.158 88.5092C470.648 89.5989 469.065 90.3662 467.411 90.811C465.747 91.301 463.577 91.7287 460.901 92.0942C456.062 97.6576 451.561 101.547 447.399 103.763C443.521 105.757 439.665 106.34 435.831 105.51ZM433.356 97.9635C432.645 98.8485 432.202 99.6969 432.026 100.509C431.841 101.366 432.015 102.088 432.549 102.676C433.083 103.263 433.824 103.66 434.771 103.865C437.387 104.43 440.476 103.682 444.038 101.62C447.591 99.6026 450.827 97.3043 453.745 94.7249L455.775 92.5436C447.913 92.8733 442.92 93.2569 440.795 93.6943C437.635 94.3328 435.156 95.7559 433.356 97.9635Z" fill="#FFF9EF"/>
</g>
<path d="M99.8365 120.898C96.2883 121.664 93.2237 123.282 90.6426 125.752C88.0903 128.179 86.2522 131.107 85.1283 134.538C84.0331 137.925 83.8259 141.364 84.5064 144.855C85.194 148.382 86.6927 151.471 89.0024 154.122C91.3121 156.774 94.0581 158.694 97.2403 159.882C100.451 161.026 103.705 161.242 107.003 160.53C108.938 160.112 110.623 159.561 112.059 158.876C113.53 158.183 114.887 157.29 116.13 156.196L113.657 143.51L100.324 146.389L100.019 144.824L115.126 141.561L117.683 154.679L117.78 154.602L118.17 156.6C116.653 158.015 115.026 159.154 113.289 160.016C111.596 160.907 109.673 161.585 107.523 162.049C103.76 162.862 100.122 162.691 96.6105 161.537C93.0917 160.346 90.0847 158.333 87.5895 155.496C85.1232 152.616 83.4936 149.143 82.7008 145.076C81.936 141.153 82.1876 137.367 83.4557 133.718C84.7596 130.061 86.8241 126.952 89.649 124.392C92.5098 121.824 95.7502 120.149 99.37 119.367C101.879 118.825 103.914 118.63 105.474 118.78C107.028 118.895 108.881 119.301 111.034 119.999L111.424 121.996C109.35 121.131 107.476 120.617 105.801 120.454C104.154 120.247 102.166 120.395 99.8365 120.898Z" fill="#FFF9EF"/>
<path d="M122.942 115.961L137.536 113.528L137.773 115.105L124.97 117.24L128.31 139.43L138.998 137.648L139.235 139.225L128.547 141.007L130.635 154.876L143.438 152.741L143.676 154.319L129.082 156.752L122.942 115.961Z" fill="#FFF9EF"/>
<path d="M154.938 112.724L145.501 113.937L145.317 112.353L165.883 109.709L166.066 111.293L156.738 112.492L161.31 151.883L159.51 152.114L154.938 112.724Z" fill="#FFF9EF"/>
<path d="M237.595 104.823L239.292 146.038L237.479 146.121L235.89 107.544L218.061 147.778L197.08 108.819L198.69 147.891L196.876 147.973L195.179 106.758L197.761 106.64L217.907 144.041L235.067 104.938L237.595 104.823Z" fill="#FFF9EF"/>
<path d="M288.286 147.154L286.362 147.103L278.932 131.17L257.049 130.59L249.03 146.112L247.106 146.061L268.68 104.379L288.286 147.154ZM278.31 129.558L268.476 108.335L257.857 129.015L278.31 129.558Z" fill="#FFF9EF"/>
<path d="M299.727 106.873L302.085 107.061C306.361 107.402 309.569 108.798 311.709 111.249C313.885 113.703 314.821 117.033 314.518 121.239C314.344 123.653 313.6 125.819 312.286 127.737C311.008 129.658 309.34 131.125 307.282 132.138C305.226 133.114 303.011 133.507 300.635 133.318L300.251 133.287L313.322 149.337L310.964 149.149L299.459 135.1L298.519 148.156L296.764 148.016L299.727 106.873ZM300.695 131.723C302.778 131.889 304.716 131.528 306.507 130.641C308.299 129.754 309.75 128.491 310.861 126.851C311.974 125.174 312.607 123.275 312.76 121.154C313.026 117.46 312.226 114.527 310.361 112.355C308.532 110.186 305.772 108.955 302.08 108.66L301.367 108.603L299.708 131.644L300.695 131.723Z" fill="#FFF9EF"/>
<path d="M327.365 109.36L329.714 109.637C333.974 110.141 337.131 111.659 339.183 114.19C341.272 116.726 342.093 120.091 341.646 124.284C341.389 126.69 340.571 128.827 339.192 130.694C337.849 132.566 336.132 133.969 334.041 134.904C331.954 135.801 329.727 136.11 327.361 135.831L326.978 135.785L339.483 152.327L337.134 152.049L326.124 137.567L324.735 150.583L322.987 150.377L327.365 109.36ZM327.475 134.238C329.551 134.483 331.499 134.197 333.319 133.378C335.14 132.56 336.633 131.352 337.799 129.754C338.969 128.121 339.667 126.246 339.892 124.132C340.285 120.449 339.587 117.487 337.799 115.245C336.046 113.007 333.331 111.671 329.654 111.236L328.944 111.152L326.492 134.122L327.475 134.238Z" fill="#FFF9EF"/>
<path d="M354.946 112.934L356.741 113.203L351.229 154.083L349.434 153.815L354.946 112.934Z" fill="#FFF9EF"/>
<path d="M371.507 115.561L386.07 118.172L385.815 119.747L373.039 117.456L369.453 139.607L380.118 141.52L379.863 143.094L369.198 141.182L366.957 155.027L379.733 157.318L379.478 158.892L364.915 156.281L371.507 115.561Z" fill="#FFF9EF"/>
<path d="M397.041 120.367L398.759 120.749C405.165 122.173 409.751 125.033 412.516 129.328C415.324 133.595 416.078 138.964 414.779 145.435C414.036 149.138 412.459 152.336 410.049 155.03C407.639 157.723 404.714 159.627 401.275 160.74C397.872 161.861 394.327 162.012 390.641 161.192L388.923 160.81L397.041 120.367ZM391.406 159.616C394.699 160.348 397.868 160.207 400.912 159.195C403.965 158.146 406.563 156.376 408.708 153.887C410.889 151.405 412.322 148.456 413.007 145.041C414.205 139.073 413.568 134.143 411.097 130.252C408.668 126.332 404.59 123.735 398.863 122.462L398.434 122.366L390.976 159.52L391.406 159.616Z" fill="#FFF9EF"/>
</g>
<defs>
<filter id="filter0_d" x="0.686951" y="9.13945" width="488.17" height="116.182" filterUnits="userSpaceOnUse" color-interpolation-filters="sRGB">
<feFlood flood-opacity="0" result="BackgroundImageFix"/>
<feColorMatrix in="SourceAlpha" type="matrix" values="0 0 0 0 0 0 0 0 0 0 0 0 0 0 0 0 0 0 127 0"/>
<feOffset dy="4"/>
<feGaussianBlur stdDeviation="4"/>
<feColorMatrix type="matrix" values="0 0 0 0 0 0 0 0 0 0 0 0 0 0 0 0 0 0 0.25 0"/>
<feBlend mode="normal" in2="BackgroundImageFix" result="effect1_dropShadow"/>
<feBlend mode="normal" in="SourceGraphic" in2="effect1_dropShadow" result="shape"/>
</filter>
<clipPath id="clip0">
<rect width="491" height="170" fill="white"/>
</clipPath>
</defs>
</svg>
