<svg width="491" height="170" viewBox="0 0 491 170" fill="none" xmlns="http://www.w3.org/2000/svg">
<g clip-path="url(#clip0)">
<g filter="url(#filter0_d)">
<path d="M84.7819 14.9505L81.9679 16.0677C79.6645 22.7754 77.9062 31.5393 76.6931 42.3595C76.2267 46.4488 75.3779 51.2245 74.1467 56.6868C72.9065 62.1039 71.3462 67.2076 69.4656 71.9979C66.9187 78.4242 62.9491 84.0718 57.5567 88.9408C52.2184 93.8462 47.1028 97.1323 42.21 98.7991C39.9628 99.5699 37.3676 100.244 34.4243 100.823C31.4809 101.401 28.3447 101.476 25.0156 101.049C19.8048 100.38 15.9289 98.3663 13.3881 95.0091C12.2349 93.4485 11.4314 91.5135 10.9777 89.2041C10.5239 86.8947 10.6014 84.0576 11.2101 80.6929C11.6612 78.4409 12.7955 76.1957 14.6132 73.9573C16.4309 71.719 17.9466 70.457 19.1603 70.1715C19.6948 70.0195 19.9843 70.0567 20.0288 70.2831C20.0191 70.4731 19.7692 70.7573 19.2792 71.1358C17.9458 72.0092 16.5919 73.6156 15.2174 75.955C13.8428 78.2944 13.0796 80.5137 12.9277 82.6129C12.7394 84.7663 12.752 86.3863 12.9656 87.4731C13.6151 90.7787 15.023 93.2769 17.1894 94.9676C18.6789 96.0859 20.4361 97.0104 22.4609 97.7413C24.4858 98.4722 26.5797 98.8368 28.7428 98.835C31.9376 98.8187 34.4407 98.6326 36.252 98.2767C38.0633 97.9208 39.6352 97.4238 40.9678 96.7857C43.9136 95.5015 46.6571 93.7867 49.1985 91.6413C51.7852 89.4869 54.0011 87.2409 55.8462 84.9031C57.7003 82.6105 59.4427 79.8696 61.0735 76.6803C62.7496 73.4821 64.1124 70.6042 65.1619 68.0464C66.2113 65.4887 67.2624 62.4604 68.315 58.9614C70.0177 53.2654 71.637 46.7862 73.173 39.5239C75.1844 30.8513 77.4546 23.2566 79.9836 16.7398C73.894 19.018 67.9314 22.5411 62.0958 27.309C59.1372 29.7246 56.7475 32.5221 54.9266 35.7017C52.5689 39.7393 51.7771 43.7279 52.5511 47.6674C52.9693 49.7957 53.7922 51.3506 55.0197 52.3322C56.2925 53.3049 57.495 53.6801 58.627 53.4576C59.7591 53.2352 60.9554 52.7415 62.216 51.9764C63.4766 51.2114 64.5302 50.1108 65.3767 48.6747C66.706 46.3442 67.117 43.8884 66.6099 41.3073C66.3964 40.2205 66.0955 39.5271 65.7074 39.2271C65.0928 38.9716 64.9808 38.6409 65.3713 38.235C65.816 37.8654 66.3679 37.9216 67.027 38.4035C67.6755 39.3107 68.1333 40.4436 68.4002 41.802C68.6582 43.1152 68.4582 44.7301 67.8001 46.6465C66.6851 49.8285 64.7583 52.2294 62.0196 53.8492C60.7501 54.569 59.5041 55.049 58.2814 55.2892C56.2437 55.6896 54.2808 55.3933 52.3926 54.4004C49.9715 53.089 48.4763 50.9842 47.9068 48.0861C47.1862 44.4183 47.8098 40.6509 49.7778 36.7839C51.2631 33.8113 53.1769 31.2249 55.5194 29.0245C57.9071 26.8152 60.6701 24.7203 63.8082 22.7398C68.8692 19.535 74.5302 16.8707 80.7913 14.7469C81.1567 13.7345 81.7627 12.5102 82.6093 11.0741C83.4558 9.6379 84.2191 8.73544 84.8992 8.36667C85.5792 7.9979 86.1456 7.76903 86.5984 7.68006C88.1833 7.36866 89.1092 7.89219 89.3761 9.25066C89.5711 10.4822 89.2598 11.531 88.4423 12.3971C87.616 13.2179 86.3958 14.069 84.7819 14.9505ZM86.0067 10.0538C85.9161 10.0716 85.8073 10.1165 85.6804 10.1885C85.5987 10.2515 85.4625 10.3959 85.2716 10.6215C85.1172 10.7929 84.9628 10.9644 84.8083 11.1358C84.6539 11.3072 84.4675 11.5555 84.2492 11.8806C84.0762 12.1967 83.9169 12.4632 83.7714 12.6799C83.6622 12.8425 83.5029 13.1089 83.2935 13.4793C83.0752 13.8043 82.9297 14.0211 82.8569 14.1294C85.8746 12.9721 87.2496 11.8319 86.9819 10.7087C86.7846 10.1831 86.4595 9.96483 86.0067 10.0538Z" fill="#FFF9EF"/>
<path d="M89.5819 53.9883C89.1738 55.6353 89.1124 57.4174 89.3976 59.3345C89.5878 60.6126 90.0144 61.5988 90.6776 62.2933C91.3797 62.9354 92.2557 63.1783 93.3055 63.0221C97.4593 62.4041 100.644 57.9411 102.861 49.6331C103.072 48.8552 103.412 48.478 103.882 48.5013C104.072 48.5198 104.18 48.6203 104.207 48.8029C104.234 48.9855 103.889 50.2732 103.172 52.6661C102.494 55.0065 101.732 56.9395 100.886 58.465C99.0331 62.0066 96.3951 64.0321 92.9717 64.5414C91.1459 64.8131 89.5056 64.4506 88.051 63.454C86.5963 62.4573 85.7162 60.932 85.4106 58.8779C85.1049 56.8239 85.2616 54.5844 85.8806 52.1595C86.5384 49.6822 87.5658 47.3365 88.9627 45.1224C90.3527 42.8627 92.0753 41.1134 94.1305 39.8745C95.1124 39.2619 96.0827 38.8842 97.0412 38.7416C97.9998 38.599 98.9306 38.7404 99.8338 39.1659C100.705 39.6895 101.198 40.3393 101.314 41.1153C101.721 43.854 100.468 46.7231 97.5553 49.7226C96.6666 50.648 95.3568 51.566 93.6261 52.4767C91.8885 53.3418 90.5405 53.8456 89.5819 53.9883ZM99.4547 41.3218C99.3189 40.4089 98.8858 40.0068 98.1554 40.1155C96.8774 40.3056 95.1717 42.169 93.0385 45.7057C91.7718 47.8537 90.7217 50.2028 89.888 52.753C90.664 52.6375 91.7416 52.1973 93.1207 51.4322C94.5455 50.6603 95.7378 49.7364 96.6975 48.6605C98.8888 46.1416 99.8078 43.6954 99.4547 41.3218Z" fill="#FFF9EF"/>
<path d="M128.931 36.6267C124.514 47.213 122.491 54.0176 122.863 57.0406C123.01 58.2315 123.518 58.7735 124.388 58.6664C126.724 58.3792 129.375 54.0314 132.339 45.6231C132.535 44.948 132.779 44.6623 133.071 44.7659C133.362 44.8696 133.522 45.0359 133.551 45.2649C133.579 45.4939 133.521 45.78 133.377 46.1231C131.552 51.3226 129.908 54.9655 128.444 57.0518C127.02 59.0867 125.461 60.2083 123.767 60.4167C122.118 60.6195 120.779 60.1332 119.751 58.9577C119.22 58.4186 118.892 57.6452 118.769 56.6375C118.639 55.584 118.713 54.2963 118.991 52.7743C119.269 51.2522 120.235 48.7156 121.891 45.1643C122.293 44.2779 122.467 43.6057 122.41 43.1476C122.348 42.6438 121.928 42.4398 121.149 42.5355C120.371 42.6313 119.009 43.8449 117.064 46.1764C114.138 49.6049 111.512 54.5309 109.187 60.9543C108.968 61.4461 108.684 61.7832 108.334 61.9657C108.025 62.0967 107.369 62.2471 106.367 62.4168C105.365 62.5865 104.715 62.7827 104.417 63.0053C104.97 61.4495 106.044 58.272 107.639 53.4728C110.501 44.9841 112.457 40.094 113.507 38.8025C113.989 38.1853 114.711 37.8175 115.673 37.6992C115.856 37.6767 116.322 37.6891 117.072 37.7364C117.868 37.778 118.443 37.7305 118.798 37.5939C117.216 38.7183 114.974 43.3646 112.073 51.5326C113.899 48.6113 115.587 46.265 117.136 44.4937C118.725 42.6709 120.675 40.9433 122.985 39.3108C125.289 37.6326 127.014 36.7231 128.159 36.5823C128.434 36.5485 128.691 36.5633 128.931 36.6267Z" fill="#FFF9EF"/>
<path d="M158.492 33.7807C153.777 44.2379 151.563 50.9826 151.849 54.0149C151.961 55.2095 152.454 55.7655 153.327 55.6832C155.67 55.4621 158.443 51.191 161.644 42.8698C161.859 42.2006 162.111 41.9219 162.399 42.0337C162.688 42.1455 162.843 42.3163 162.865 42.546C162.886 42.7757 162.821 43.06 162.667 43.399C160.696 48.5448 158.949 52.1397 157.427 54.1838C155.946 56.1777 154.356 57.2548 152.656 57.4152C151.002 57.5713 149.678 57.0473 148.684 55.8432C148.168 55.2893 147.862 54.5069 147.767 53.4962C147.667 52.4395 147.778 51.1543 148.099 49.6408C148.419 48.1272 149.457 45.6189 151.213 42.1158C151.64 41.2411 151.832 40.5741 151.789 40.1146C151.741 39.6093 151.327 39.3934 150.546 39.4671C149.765 39.5408 148.369 40.7155 146.359 42.991C143.337 46.3355 140.573 51.1852 138.067 57.5403C137.835 58.0258 137.541 58.3548 137.187 58.5273C136.874 58.6495 136.214 58.7813 135.208 58.9226C134.201 59.0639 133.546 59.2417 133.241 59.4558C133.838 57.9162 135.001 54.7703 136.731 50.0181C139.832 41.6137 141.925 36.7809 143.011 35.5195C143.511 34.9162 144.243 34.569 145.208 34.4779C145.391 34.4606 145.857 34.4862 146.606 34.5546C147.4 34.6188 147.976 34.5876 148.335 34.461C146.722 35.5403 144.35 40.1213 141.219 48.2041C143.127 45.3355 144.88 43.0379 146.478 41.311C148.118 39.5339 150.116 37.8621 152.471 36.2956C154.822 34.6832 156.572 33.8228 157.721 33.7144C157.996 33.6884 158.253 33.7105 158.492 33.7807Z" fill="#FFF9EF"/>
<path d="M160.619 78.2233C158.593 78.3529 156.999 78.0155 155.837 77.2112C154.679 76.4529 154.062 75.475 153.985 74.2776C153.909 73.0802 154.167 71.6995 154.761 70.1356C155.808 67.7103 157.852 65.6836 160.892 64.0557C163.17 62.8002 166.213 61.5652 170.019 60.3507C173.829 59.1822 176.276 58.4015 177.361 58.0084C178.833 55.001 180.482 49.6933 182.308 42.0853C179.937 46.9536 177.914 50.3893 176.239 52.3924C174.563 54.3954 172.805 55.4559 170.962 55.5737C168.475 55.7327 166.958 54.7892 166.411 52.7433C166.207 52.4327 166.13 51.9521 166.181 51.3014C166.231 50.6508 166.248 50.1873 166.23 49.911C166.259 49.6317 166.392 49.1839 166.63 48.5675C166.865 47.9051 167.02 47.4328 167.094 47.1506C167.533 46.0589 167.918 45.202 168.248 44.5797C167.511 44.6268 167.28 44.2716 167.555 43.5142L168.644 41.0168C170.019 37.9232 171.146 35.3077 172.027 33.1705C172.426 32.1739 173.293 31.6329 174.628 31.5475L178.842 31.2781C178.756 31.3761 178.538 31.575 178.187 31.8749C177.393 32.4805 176.813 33.1651 176.445 33.9284C174.97 36.8898 173.158 41.0981 171.01 46.5534C170.135 48.7827 169.73 50.4039 169.795 51.4171C169.86 52.4303 170.066 53.1339 170.415 53.5277C170.81 53.9187 171.307 54.095 171.906 54.0567C172.781 54.0007 173.942 53.0016 175.39 51.0593C178.416 47.0277 181.647 40.7865 185.083 32.3356C185.528 31.3361 186.395 30.7951 187.685 30.7126L191.415 30.4741C190.271 31.3796 189.394 32.4992 188.786 33.8329C188.175 35.1206 187.524 36.8732 186.833 39.0907C186.189 41.3053 185.359 44.2485 184.346 47.9202C183.378 51.589 182.629 54.3421 182.099 56.1794C186.346 54.6131 189.516 52.1214 191.61 48.7043C192.532 47.2118 193.82 44.5861 195.476 40.827C195.757 40.1617 196.017 39.8907 196.256 40.0141C196.541 40.1346 196.691 40.31 196.706 40.5403C196.721 40.7706 196.387 41.6936 195.704 43.3096C195.064 44.8765 194.396 46.3527 193.698 47.7384C192.998 49.0779 192.07 50.4783 190.915 51.9394C189.76 53.4006 188.447 54.5712 186.978 55.4513C185.511 56.3774 183.54 57.382 181.066 58.4651C177.932 65.1394 174.667 70.1112 171.269 73.3805C168.083 76.3587 164.533 77.973 160.619 78.2233ZM156.175 71.6405C155.733 72.6861 155.539 73.6234 155.592 74.4523C155.648 75.3274 156.013 75.9745 156.687 76.3939C157.361 76.8132 158.182 76.9919 159.149 76.9301C161.82 76.7593 164.587 75.195 167.45 72.2374C170.316 69.3259 172.8 66.2306 174.902 62.9517L176.259 60.2985C168.786 62.7648 164.088 64.4987 162.164 65.5004C159.299 66.9784 157.302 69.0251 156.175 71.6405Z" fill="#FFF9EF"/>
<path d="M243.984 25.4953L248.622 25.3456C250.56 25.3408 251.853 25.753 252.501 26.5821C252.825 26.9505 252.988 27.3193 252.989 27.6885C252.99 28.0577 252.875 28.381 252.645 28.6584C252.093 29.352 251.055 29.7006 249.532 29.7044C246.902 29.7108 244.569 28.7012 242.534 26.6756C237.367 27.4727 233.451 30.2281 230.786 34.9417C229.086 37.9917 228.239 40.9703 228.247 43.8776C228.25 45.4928 228.508 47.0843 229.02 48.6521C230.553 53.0786 233.858 55.2856 238.935 55.2733C243.457 55.2622 247.376 53.7298 250.691 50.6759C254.006 47.6221 255.66 44.5953 255.653 41.5957C255.65 40.1651 255.024 38.9899 253.775 38.0699C252.573 37.1037 251.28 36.5531 249.895 36.418C248.556 36.2367 247.402 36.1472 246.433 36.1496C245.51 36.1518 244.288 36.2702 242.765 36.5046C241.289 36.6928 239.814 37.2964 238.339 38.3152C236.589 39.5193 235.716 41.1136 235.721 43.098C235.725 45.0823 237.276 46.8783 240.372 48.486C240.834 48.7617 241.019 49.1305 240.928 49.5922C240.883 50.0076 240.699 50.1234 240.375 49.9396C237.464 48.3777 235.406 46.606 234.201 44.6245C233.368 43.3344 232.95 42.251 232.948 41.3741C232.945 40.4973 233.059 39.7818 233.288 39.2274C233.838 37.6109 235.219 36.2462 237.432 35.1332C239.644 34.0202 242.458 33.4596 245.873 33.4513L258.125 33.4214C260.525 33.4156 263.476 32.6008 266.98 30.9771C268.685 30.1884 269.929 29.2624 270.711 28.1991C271.079 27.6444 271.262 27.0671 271.26 26.4672C271.259 25.8211 271.119 25.2677 270.841 24.8069C270.563 24.346 270.447 24.0233 270.493 23.8386C270.538 23.6539 270.653 23.5613 270.838 23.5609C271.069 23.5603 271.254 23.6752 271.393 23.9056C272.041 25.0116 272.367 26.0722 272.369 27.0875C272.372 28.0566 272.074 28.9572 271.476 29.7893C270.327 31.5458 268.369 32.958 265.603 34.0262C262.836 35.0944 259.976 35.632 257.023 35.6392C256.931 35.6395 256.815 35.6397 256.677 35.6401C258.434 37.0664 259.315 38.8871 259.321 41.1022C259.328 44.1941 257.536 47.3827 253.945 50.668C252.241 52.2873 250.052 53.6079 247.378 54.6297C244.704 55.6515 241.89 56.166 238.937 56.1732C231.784 56.1906 226.726 54.1262 223.762 49.9801C222.28 47.9071 221.537 45.9014 221.532 43.9632C221.527 42.025 221.823 40.2245 222.419 38.5617C224.023 34.1737 227.269 30.7739 232.154 28.3623C234.966 26.971 238.125 26.0864 241.631 25.7087C240.335 23.9121 239.683 21.6524 239.677 18.9297C239.716 16.2068 240.91 13.6427 243.257 11.2373C245.605 8.83183 248.301 7.0947 251.344 6.02587C254.433 4.91078 257.431 4.3497 260.339 4.34261C262.738 4.33676 264.77 4.81637 266.434 5.78142C268.143 6.74637 269.001 8.29025 269.006 10.4131C269.009 11.7514 268.597 12.9522 267.769 14.0156C266.941 15.0329 265.996 15.5429 264.935 15.5454C263.919 15.5479 263.088 15.25 262.44 14.6516C261.839 14.007 261.537 13.2232 261.535 12.3003C261.533 11.3773 261.831 10.6151 262.429 10.0138C263.074 9.41226 263.811 9.11049 264.642 9.10847C265.196 9.10712 265.727 9.24427 266.235 9.51992C266.743 9.74942 267.044 10.0256 267.137 10.3484C267.182 10.0714 267.205 9.79445 267.204 9.51756C267.202 8.5023 266.784 7.7188 265.952 7.16704C265.074 6.52311 263.758 6.20328 262.004 6.20755C260.251 6.21183 258.198 6.70139 255.847 7.67623C253.496 8.60493 251.284 9.97169 249.212 11.7765C247.14 13.5814 245.507 15.8005 244.313 18.4338C243.671 19.9121 243.351 21.2281 243.354 22.3818C243.357 23.5355 243.567 24.5734 243.984 25.4953ZM251.812 27.6221C251.81 26.7915 250.101 26.3803 246.686 26.3886C245.994 26.3903 245.279 26.4151 244.541 26.4631C245.651 27.8448 247.13 28.5334 248.976 28.5289C250.868 28.5243 251.813 28.2221 251.812 27.6221Z" fill="#FFF9EF"/>
<path d="M356.787 11.4969C356.91 9.8864 356.289 8.31182 354.925 6.77317C352.963 4.58725 350.118 3.35229 346.391 3.06831C343.124 2.81939 339.457 3.2574 335.391 4.38235C333.265 4.96081 331.393 5.83641 329.776 7.00912C327.275 8.85497 325.948 10.7902 325.793 12.8149C325.586 15.5297 327.126 18.1 330.412 20.5256C331.641 21.4061 334.12 22.8908 337.848 24.9799C341.626 27.0265 344.371 28.6703 346.081 29.9114C348.67 31.7747 350.398 33.6883 351.267 35.652C352.182 37.6193 352.578 39.4082 352.455 41.0187C352.28 43.3194 351.341 45.6083 349.641 47.8854C346.646 51.9614 342.454 55.3446 337.065 58.0349C330.856 61.1718 323.564 62.4212 315.189 61.7831C307.137 61.1696 300.897 58.6346 296.469 54.1782C293.026 50.7687 291.493 46.6022 291.868 41.6786C292.106 38.5496 293.497 35.1844 296.039 31.5829C298.627 27.985 301.637 25.53 305.069 24.218C305.781 23.9945 306.294 23.941 306.609 24.0576C306.97 24.1776 306.661 24.5937 305.681 25.3059C303.583 26.7196 301.864 28.3242 300.524 30.1197C297.639 33.9726 296.015 38.2689 295.654 43.0084C295.416 46.1374 296.081 48.9419 297.651 51.4219C300.461 55.8476 305.71 58.6311 313.399 59.7723C314.266 59.9309 315.551 60.0751 317.253 60.2048C319.002 60.3381 321.373 60.1948 324.367 59.7749C327.404 59.4046 330.357 58.6114 333.227 57.3953C339.401 54.7186 343.552 50.962 345.679 46.1257C346.343 44.6953 346.728 43.2898 346.833 41.9094C347.072 38.7804 345.878 35.9126 343.254 33.3059C341.827 31.9939 338.841 30.1697 334.299 27.8335C329.805 25.4547 326.794 23.6748 325.264 22.4937C321.903 19.831 320.347 16.8661 320.596 13.5991C320.814 10.7462 322.613 8.08323 325.995 5.61027C330.845 2.09212 337.434 0.650331 345.763 1.28491C349.674 1.58292 352.804 2.42302 355.151 3.80522C357.548 5.14491 358.934 7.00917 359.307 9.398C359.364 9.86515 359.375 10.3288 359.34 10.789C359.203 12.5835 358.252 14.1309 356.487 15.4312C355.267 16.2638 353.669 16.8826 351.694 17.2875C350.849 17.4545 350.395 17.3274 350.335 16.9063C350.288 16.3011 350.892 15.9768 352.145 15.9334C354.374 15.8256 355.816 14.8247 356.469 12.9306C356.646 12.435 356.752 11.9571 356.787 11.4969Z" fill="#FFF9EF"/>
<path d="M385.988 43.8417C385.061 44.5634 383.659 46.2957 381.783 49.0384C379.913 51.7354 378.726 53.7967 378.223 55.2223C377.772 56.6077 377.489 57.7584 377.375 58.6743C377.267 59.5444 377.556 60.0222 378.243 60.1077C379.113 60.2159 380.289 59.5485 381.771 58.1052C383.939 56.0034 386.173 53.1888 388.472 49.6616C388.707 49.2723 388.941 49.0689 389.176 49.0516C389.559 48.9598 389.725 49.12 389.674 49.5322C389.646 49.7612 389.543 50.0274 389.365 50.3308C384.092 58.3244 380.013 62.1416 377.128 61.7825C375.8 61.6172 374.803 60.8422 374.139 59.4573C373.812 58.7191 373.72 57.7776 373.862 56.6327C374.005 55.4878 374.408 54.1196 375.071 52.528C370.672 57.9795 367.145 60.5401 364.489 60.2095C363.756 60.1183 363.12 59.8067 362.582 59.2747C361.328 58.142 360.846 56.4079 361.137 54.0723C361.695 49.5844 364.209 45.2701 368.677 41.1292C371.194 38.8383 374.104 37.503 377.407 37.1235C378.305 37.0028 379.144 36.9909 379.922 37.0878C382.029 37.35 383.724 38.3049 385.007 39.9528C385.402 40.5135 385.479 41.0114 385.239 41.4466C384.999 41.8817 384.587 42.0165 384.003 41.8508C383.705 40.1395 382.708 39.1784 381.014 38.9675C379.044 38.7225 376.424 39.9774 373.151 42.7324C371.274 44.359 369.472 46.3205 367.745 48.6167C365.589 51.3711 364.399 53.6413 364.177 55.4273C363.955 57.2133 364.416 58.1775 365.561 58.32C368.308 58.662 372.428 54.8962 377.918 47.0228C378.999 45.4367 379.875 44.383 380.544 43.8618C381.219 43.2947 382.015 43.0682 382.931 43.1822C383.114 43.205 383.563 43.3307 384.279 43.5593C385.04 43.7935 385.61 43.8877 385.988 43.8417Z" fill="#FFF9EF"/>
<path d="M416.701 44.4981C409.576 53.4876 405.782 59.4875 405.319 62.4979C405.137 63.6838 405.479 64.3434 406.345 64.4767C408.672 64.8344 412.403 61.3694 417.539 54.0817C417.911 53.4852 418.223 53.2765 418.476 53.4554C418.728 53.6343 418.837 53.8378 418.802 54.0659C418.767 54.2939 418.634 54.5536 418.402 54.8448C415.234 59.3535 412.663 62.4132 410.687 64.0238C408.765 65.5958 406.96 66.252 405.272 65.9925C403.63 65.74 402.474 64.9085 401.804 63.4981C401.439 62.835 401.333 62.0018 401.488 60.9983C401.649 59.9492 402.07 58.73 402.75 57.3405C403.431 55.9511 405.05 53.7721 407.608 50.8037C408.236 50.0598 408.585 49.4598 408.655 49.0037C408.732 48.502 408.383 48.1915 407.607 48.0722C406.832 47.953 405.192 48.7513 402.687 50.4672C398.94 52.9726 395.075 57.0007 391.094 62.5516C390.75 62.9656 390.385 63.213 389.999 63.2937C389.666 63.3359 388.994 63.3026 387.983 63.1939C386.973 63.0852 386.294 63.0975 385.946 63.2309C386.901 61.8835 388.797 59.1168 391.635 54.9309C396.694 47.538 399.904 43.3625 401.265 42.4046C401.897 41.9414 402.691 41.7835 403.649 41.9308C403.832 41.9588 404.277 42.0974 404.986 42.3464C405.74 42.6025 406.307 42.713 406.686 42.6779C404.858 43.3306 401.439 47.1938 396.429 54.2674C398.98 51.9516 401.241 50.1515 403.213 48.8673C405.237 47.5444 407.583 46.4109 410.249 45.4669C412.923 44.4773 414.829 44.0702 415.97 44.2455C416.243 44.2876 416.487 44.3718 416.701 44.4981Z" fill="#FFF9EF"/>
<path d="M436.37 67.043C436.103 68.4954 436.56 69.3301 437.74 69.5471C439.873 69.9393 443.365 66.8979 448.215 60.423C448.402 60.1757 448.565 59.9242 448.706 59.6686C448.892 59.4213 449.107 59.2731 449.351 59.2241C449.64 59.1834 449.809 59.2849 449.858 59.5285C449.915 59.7267 449.811 60.0361 449.546 60.4566C444.363 68.2311 439.911 71.7762 436.189 71.0919C434.964 70.8666 434.088 70.1425 433.562 68.9197C433.036 67.6969 432.869 66.5635 433.061 65.5196C433.261 64.4303 433.558 63.4527 433.952 62.5866C430.519 66.4598 427.794 68.5162 425.78 68.7558C425.193 68.8826 424.628 68.8959 424.083 68.7958C423.584 68.704 423.097 68.5441 422.623 68.3161C420.507 67.3172 419.721 65.3426 420.263 62.3925C420.63 60.3954 421.534 58.2859 422.975 56.064C424.47 53.805 426.352 51.7346 428.622 49.8527C430.892 47.9709 433.414 46.8862 436.188 46.5986C437.199 46.4561 438.341 46.5017 439.611 46.7353C440.928 46.9773 442.305 47.6529 443.743 48.7619C447.898 43.5197 451.519 38.6253 454.607 34.0787C455.518 32.6977 456.306 31.8572 456.971 31.5572C457.69 31.2202 458.299 31.0975 458.798 31.1893C459.343 31.2895 459.661 31.3479 459.752 31.3646C459.888 31.3896 460.306 31.537 461.008 31.8066C461.762 32.0393 462.348 32.1705 462.765 32.2002C461.546 32.9614 457.926 37.0819 451.906 44.5616C444.234 54.1308 439.483 60.5771 437.652 63.9003C436.956 65.1331 436.529 66.1807 436.37 67.043ZM442.998 49.7511C442.517 49.0525 441.731 48.6031 440.642 48.4029C439.598 48.2109 437.977 48.734 435.779 49.9721C432.271 51.9547 429.176 54.6233 426.494 57.9779C424.728 60.1868 423.698 62.0855 423.406 63.6741C423.273 64.4003 423.288 65.0834 423.452 65.7236C423.661 66.372 424.083 66.7546 424.719 66.8715C426.262 67.1552 428.46 65.9171 431.314 63.1572C434.167 60.3974 438.062 55.9286 442.998 49.7511Z" fill="#FFF9EF"/>
<path d="M437.831 93.5104C435.847 93.0811 434.406 92.3209 433.509 91.2298C432.602 90.1837 432.275 89.0743 432.529 87.9016C432.782 86.7289 433.409 85.4714 434.407 84.1293C436.077 82.0826 438.597 80.6919 441.967 79.9571C444.501 79.3721 447.766 79.0158 451.759 78.8882C455.743 78.8056 458.311 78.7235 459.461 78.642C461.7 76.1516 464.737 71.4968 468.573 64.6776C464.962 68.7124 462.076 71.4643 459.917 72.9331C457.758 74.4019 455.776 74.9411 453.972 74.5509C451.537 74.024 450.335 72.7018 450.368 70.5843C450.256 70.2295 450.314 69.7462 450.54 69.1342C450.767 68.5223 450.91 68.081 450.968 67.8103C451.072 67.5495 451.323 67.1551 451.72 66.6273C452.127 66.0544 452.405 65.6423 452.554 65.3912C453.275 64.4611 453.879 63.7419 454.366 63.2336C453.645 63.0775 453.52 62.6728 453.992 62.0194L455.722 59.9148C457.889 57.3147 459.689 55.1071 461.12 53.292C461.776 52.4424 462.758 52.159 464.066 52.4419L468.193 53.3347C468.084 53.4054 467.819 53.537 467.4 53.7296C466.471 54.0952 465.725 54.595 465.163 55.2288C462.935 57.6741 460.041 61.2269 456.484 65.8871C455.033 67.7924 454.2 69.2412 453.985 70.2335C453.771 71.2258 453.777 71.9591 454.005 72.4333C454.278 72.9173 454.708 73.2228 455.294 73.3496C456.151 73.535 457.542 72.8914 459.466 71.4189C463.478 68.3679 468.292 63.2476 473.908 56.058C474.609 55.2181 475.591 54.9347 476.854 55.2079L480.507 55.9982C479.159 56.5564 478.01 57.3938 477.06 58.5104C476.12 59.5819 475.015 61.0898 473.744 63.0341C472.519 64.9882 470.917 67.5926 468.938 70.8474C467.004 74.1119 465.531 76.5554 464.519 78.1779C469.032 77.8321 472.763 76.3019 475.711 73.5872C477.006 72.4036 478.963 70.2302 481.583 67.0669C482.036 66.5037 482.36 66.3142 482.556 66.4983C482.797 66.6921 482.894 66.9018 482.845 67.1273C482.796 67.3529 482.223 68.1495 481.124 69.5172C480.08 70.8496 479.034 72.0868 477.984 73.229C476.944 74.3261 475.669 75.4195 474.158 76.5092C472.648 77.5989 471.065 78.3662 469.411 78.811C467.747 79.301 465.577 79.7287 462.901 80.0942C458.062 85.6576 453.561 89.5473 449.399 91.7632C445.521 93.7573 441.665 94.3397 437.831 93.5104ZM435.356 85.9635C434.645 86.8485 434.202 87.6969 434.026 88.5088C433.841 89.3658 434.015 90.0881 434.549 90.6758C435.083 91.2634 435.824 91.6597 436.771 91.8646C439.387 92.4304 442.476 91.6822 446.038 89.6198C449.591 87.6026 452.827 85.3043 455.745 82.7249L457.775 80.5436C449.913 80.8733 444.92 81.2569 442.795 81.6943C439.635 82.3328 437.156 83.7559 435.356 85.9635Z" fill="#FFF9EF"/>
</g>
<path d="M101.099 139.845C100.379 139.934 99.5694 139.995 98.6712 140.027C97.7882 140.062 96.865 140.065 95.9018 140.034C94.9536 140.006 93.9915 139.936 93.0154 139.822C92.0544 139.712 91.1358 139.556 90.2596 139.354C88.7036 138.994 87.2311 138.479 85.8422 137.807C84.4498 137.151 83.1753 136.362 82.0186 135.44C80.8654 134.504 79.8509 133.448 78.9753 132.272C78.1148 131.1 77.429 129.825 76.9181 128.446C76.4223 127.071 76.1239 125.597 76.0231 124.026C75.9373 122.458 76.0908 120.818 76.4837 119.106C77.0712 116.544 78.0622 114.339 79.4565 112.491C80.866 110.646 82.5516 109.192 84.5135 108.129C86.4788 107.05 88.6681 106.383 91.0812 106.126C93.4979 105.854 96.0205 106.022 98.6492 106.629C99.6009 106.848 100.544 107.106 101.478 107.402C102.413 107.697 103.304 108.007 104.153 108.33C105.016 108.657 105.831 108.989 106.597 109.325C107.363 109.662 108.051 109.988 108.663 110.305L106.264 117.746L104.881 117.427L104.965 117.063C105.132 116.336 105.209 115.548 105.197 114.699C105.185 113.851 104.968 113.027 104.547 112.227C104.129 111.413 103.435 110.662 102.463 109.975C101.495 109.272 100.142 108.721 98.4045 108.32C96.3197 107.838 94.3211 107.744 92.4087 108.037C90.5115 108.333 88.7789 108.986 87.2109 109.996C85.6464 110.992 84.2953 112.339 83.1576 114.04C82.0385 115.728 81.2113 117.739 80.6759 120.073C80.1788 122.241 80.0969 124.296 80.4304 126.241C80.7674 128.17 81.4337 129.911 82.4292 131.466C83.4434 133.008 84.7333 134.32 86.2991 135.399C87.8649 136.479 89.6373 137.247 91.6163 137.704C92.8551 137.99 93.973 138.144 94.9699 138.167C95.9703 138.175 96.9289 138.053 97.8455 137.802C98.2431 136.345 98.5614 135.166 98.8002 134.264C99.0541 133.365 99.2494 132.652 99.3862 132.125C99.5381 131.601 99.6401 131.226 99.6923 130.999C99.7595 130.775 99.8036 130.617 99.8245 130.527C99.9844 129.829 100.068 129.258 100.074 128.813C100.081 128.368 100.022 128.003 99.896 127.718C99.7703 127.434 99.5761 127.206 99.3134 127.033C99.0507 126.861 98.7375 126.701 98.3737 126.553L97.4306 126.192L97.7278 124.896C98.0463 125.033 98.4345 125.179 98.8923 125.332C99.2747 125.468 99.7419 125.616 100.294 125.776C100.861 125.938 101.53 126.109 102.3 126.287C103.071 126.465 103.922 126.637 104.854 126.804C105.801 126.975 106.847 127.129 107.993 127.266L107.696 128.562C107.296 128.501 106.942 128.451 106.633 128.412C106.324 128.372 106.037 128.338 105.773 128.309C105.528 128.269 105.283 128.228 105.038 128.187C104.793 128.147 104.525 128.101 104.234 128.05L101.099 139.845Z" fill="#FFF9EF"/>
<path d="M133.105 131.583C132.211 131.296 131.299 131.023 130.369 130.762C129.454 130.504 128.575 130.268 127.731 130.054C126.887 129.84 126.11 129.653 125.398 129.495C124.704 129.323 124.131 129.181 123.678 129.069C123.291 130.895 122.932 132.561 122.602 134.066C122.457 134.703 122.32 135.342 122.191 135.983C122.061 136.623 121.933 137.216 121.804 137.762C121.694 138.295 121.597 138.752 121.514 139.132C121.446 139.514 121.4 139.775 121.375 139.912C121.234 140.709 121.228 141.363 121.357 141.876C121.486 142.389 121.743 142.806 122.127 143.127C122.526 143.451 123.039 143.709 123.667 143.9C124.294 144.091 125.035 144.263 125.89 144.416C127.111 144.634 128.162 144.743 129.044 144.742C129.941 144.745 130.724 144.592 131.393 144.285C132.076 143.981 132.673 143.503 133.182 142.852C133.694 142.185 134.174 141.299 134.622 140.195L136.065 140.452C135.93 140.855 135.746 141.359 135.513 141.965C135.279 142.571 135.008 143.21 134.7 143.881C134.41 144.54 134.082 145.192 133.715 145.838C133.364 146.486 133.003 147.053 132.633 147.54C131.024 147.205 129.487 146.859 128.023 146.503C126.571 146.165 125.242 145.848 124.034 145.553C122.842 145.261 121.802 145.004 120.912 144.782C120.022 144.56 119.349 144.408 118.891 144.326C118.112 144.187 117.286 144.055 116.41 143.93C115.535 143.805 114.514 143.702 113.348 143.62L113.626 142.319C114.028 142.359 114.385 142.391 114.695 142.415C115.006 142.439 115.294 142.459 115.559 142.475C115.823 142.49 116.079 142.513 116.326 142.541C116.573 142.569 116.835 142.6 117.113 142.634C118.062 138.175 118.92 134.142 119.686 130.535C120.006 128.997 120.323 127.482 120.635 125.99C120.965 124.485 121.262 123.124 121.525 121.907C121.788 120.691 122.001 119.67 122.163 118.846C122.34 118.025 122.445 117.522 122.478 117.338C122.6 116.649 122.652 116.09 122.634 115.66C122.634 115.218 122.563 114.866 122.42 114.603C122.281 114.326 122.075 114.107 121.804 113.948C121.533 113.789 121.197 113.642 120.796 113.507L119.882 113.202L120.119 111.87C120.535 112.007 121.066 112.165 121.711 112.344C122.268 112.491 122.971 112.656 123.82 112.839C124.669 113.023 125.712 113.225 126.948 113.446L132.465 114.431C133.076 114.541 133.671 114.647 134.251 114.751C134.834 114.839 135.424 114.929 136.022 115.02C136.622 115.095 137.247 115.168 137.896 115.236C138.546 115.305 139.243 115.366 139.989 115.421L137.902 123.056L136.505 122.807C136.575 122.503 136.624 122.267 136.654 122.099C136.702 121.918 136.734 121.782 136.751 121.69C136.77 121.583 136.782 121.514 136.787 121.483C136.796 121.437 136.802 121.399 136.808 121.368C136.897 120.863 136.914 120.368 136.859 119.885C136.818 119.403 136.638 118.953 136.319 118.532C136.018 118.099 135.552 117.708 134.922 117.358C134.309 116.996 133.475 116.681 132.42 116.414L126.858 115.017C126.513 116.251 126.187 117.512 125.879 118.799C125.59 120.075 125.334 121.253 125.11 122.335L124.009 127.469L133.851 128.707L133.105 131.583Z" fill="#FFF9EF"/>
<path d="M159.043 119.84C158.171 119.693 157.375 119.563 156.655 119.452C155.95 119.343 155.382 119.259 154.952 119.202C154.091 119.087 153.321 119.056 152.642 119.107C151.965 119.142 151.338 119.333 150.76 119.68C150.198 120.029 149.673 120.571 149.185 121.306C148.697 122.041 148.213 123.043 147.732 124.313L146.372 124.132L148.344 116.488C150.078 116.859 151.565 117.143 152.805 117.34C154.063 117.523 155.177 117.679 156.145 117.807C158.235 118.085 160.225 118.35 162.115 118.602C164.023 118.84 165.769 119.056 167.354 119.251C168.941 119.431 170.343 119.586 171.561 119.717C172.797 119.834 173.789 119.903 174.536 119.924L172.812 127.649L171.383 127.459C171.405 127.289 171.441 127.074 171.491 126.814C171.543 126.539 171.581 126.316 171.603 126.147C171.67 125.638 171.682 125.137 171.637 124.645C171.593 124.153 171.418 123.698 171.114 123.281C170.811 122.849 170.338 122.464 169.695 122.128C169.069 121.778 168.191 121.496 167.062 121.283L162.574 120.451C162.229 122.476 161.886 124.478 161.546 126.456C161.222 128.437 160.909 130.333 160.607 132.144C160.32 133.957 160.041 135.653 159.77 137.233C159.514 138.815 159.29 140.213 159.099 141.427C158.907 142.64 158.744 143.638 158.609 144.421C158.49 145.205 158.416 145.705 158.387 145.921C158.298 146.599 158.272 147.153 158.309 147.581C158.361 148.012 158.463 148.363 158.615 148.634C158.784 148.892 159 149.093 159.263 149.238C159.525 149.382 159.838 149.502 160.2 149.598L161.173 149.868L160.999 151.186C160.667 151.095 160.267 150.987 159.799 150.862C159.403 150.778 158.915 150.682 158.335 150.573C157.758 150.449 157.085 150.336 156.316 150.234C155.532 150.13 154.669 150.038 153.725 149.96C152.782 149.882 151.725 149.827 150.557 149.797L150.731 148.479C151.134 148.502 151.492 148.518 151.803 148.528C152.115 148.538 152.403 148.545 152.669 148.549C152.934 148.553 153.19 148.563 153.438 148.581C153.686 148.598 153.95 148.617 154.228 148.639L159.043 119.84Z" fill="#FFF9EF"/>
<path d="M229.832 150.861C229.8 151.778 229.816 152.511 229.881 153.06C229.945 153.608 230.062 154.042 230.232 154.363C230.401 154.683 230.622 154.913 230.894 155.052C231.182 155.191 231.541 155.304 231.971 155.388L232.962 155.581L232.893 156.908C232.555 156.844 232.148 156.768 231.671 156.681C231.27 156.629 230.776 156.572 230.19 156.51C229.604 156.432 228.924 156.373 228.15 156.333C227.36 156.291 226.492 156.269 225.545 156.266C224.599 156.263 223.542 156.293 222.374 156.357L222.443 155.029C222.847 155.019 223.205 155.006 223.516 154.991C223.827 154.977 224.115 154.961 224.38 154.943C224.645 154.926 224.902 154.916 225.15 154.914C225.399 154.911 225.663 154.909 225.942 154.909L227.095 131.002L226.654 130.979L213.547 154.609L212.456 154.551L203.322 129.661L202.927 129.64L200.575 147.504C200.532 147.735 200.495 148.006 200.463 148.316C200.432 148.61 200.393 148.911 200.346 149.22C200.315 149.515 200.285 149.793 200.256 150.057C200.242 150.321 200.231 150.53 200.223 150.686C200.191 151.291 200.22 151.783 200.309 152.162C200.399 152.525 200.531 152.82 200.705 153.047C200.895 153.275 201.127 153.451 201.4 153.574C201.689 153.683 202.018 153.77 202.387 153.836L203.378 154.028L203.309 155.356C203.064 155.297 202.742 155.225 202.342 155.142C202.003 155.093 201.579 155.04 201.07 154.982C200.562 154.908 199.951 154.853 199.239 154.816C198.527 154.778 197.713 154.759 196.797 154.757C195.897 154.757 194.863 154.788 193.696 154.852L193.765 153.524C194.169 153.514 194.527 153.501 194.838 153.487C195.149 153.472 195.437 153.456 195.702 153.439C195.967 153.421 196.223 153.411 196.472 153.409C196.72 153.406 196.984 153.405 197.264 153.404L202.229 122.923L204.475 122.27L214.336 148.857L214.661 148.874L228.227 124.03L230.574 123.686L229.832 150.861Z" fill="#FFF9EF"/>
<path d="M255.07 129.658L250.23 144.004L259.717 143.96L255.744 129.655L255.07 129.658ZM257.086 123.28L265.065 148.763C265.647 150.658 266.282 152.187 266.97 153.35C267.657 154.498 268.513 155.155 269.537 155.321L270.817 155.525L270.776 156.855C269.985 156.765 269.125 156.699 268.194 156.657C267.28 156.615 266.342 156.596 265.38 156.6C264.357 156.605 263.358 156.633 262.381 156.684C261.405 156.736 260.475 156.81 259.592 156.907L259.632 155.578L262.909 155.259L260.19 145.59L259.283 145.595C258.865 145.597 258.314 145.607 257.632 145.626C256.95 145.629 256.175 145.648 255.307 145.683C254.455 145.718 253.533 145.769 252.541 145.836C251.549 145.903 250.526 145.993 249.473 146.107L248.211 149.706C247.935 150.454 247.69 151.162 247.476 151.832C247.278 152.502 247.18 153.085 247.182 153.583C247.185 154.081 247.318 154.492 247.583 154.818C247.848 155.127 248.307 155.327 248.958 155.418L250.331 155.621L250.291 156.951C249.453 156.862 248.647 156.788 247.871 156.729C247.111 156.671 246.313 156.643 245.476 156.647C244.639 156.651 243.771 156.686 242.872 156.753C241.973 156.819 240.974 156.902 239.873 157L239.914 155.67C240.363 155.621 240.789 155.573 241.192 155.524C241.548 155.491 241.905 155.459 242.261 155.426C242.618 155.393 242.912 155.368 243.144 155.352C243.774 154.011 244.426 152.546 245.1 150.957C245.791 149.367 246.488 147.7 247.193 145.955C247.914 144.209 248.626 142.402 249.33 140.533C250.05 138.663 250.755 136.786 251.443 134.9C252.132 133.015 252.79 131.138 253.417 129.269C254.059 127.4 254.663 125.585 255.229 123.825L257.086 123.28Z" fill="#FFF9EF"/>
<path d="M277.865 155.282C278.265 155.229 278.62 155.179 278.928 155.132C279.236 155.084 279.52 155.038 279.782 154.993C280.043 154.948 280.298 154.911 280.545 154.882C280.791 154.854 281.054 154.824 281.332 154.794C281.3 152.724 281.261 150.678 281.216 148.656C281.187 146.633 281.154 144.696 281.118 142.844C281.083 140.993 281.053 139.266 281.031 137.663C281.008 136.06 280.987 134.644 280.969 133.414C280.95 132.185 280.928 131.174 280.901 130.381C280.89 129.587 280.879 129.074 280.866 128.841C280.831 128.173 280.756 127.632 280.641 127.218C280.526 126.804 280.361 126.485 280.148 126.263C279.949 126.024 279.7 125.866 279.401 125.789C279.101 125.696 278.756 125.629 278.366 125.587L277.337 125.502L277.265 124.151C277.702 124.19 278.169 124.227 278.668 124.263C279.089 124.287 279.563 124.301 280.091 124.304C280.634 124.306 281.192 124.292 281.765 124.261C282.291 124.233 282.793 124.175 283.269 124.088C283.746 124 284.238 123.912 284.746 123.822C285.252 123.717 285.791 123.619 286.36 123.526C286.93 123.433 287.563 123.368 288.259 123.331C290.117 123.232 291.716 123.381 293.056 123.777C294.396 124.157 295.504 124.713 296.381 125.445C297.258 126.162 297.915 127.006 298.355 127.98C298.794 128.938 299.041 129.937 299.096 130.977C299.171 132.406 298.973 133.647 298.501 134.7C298.044 135.752 297.456 136.656 296.735 137.41C296.029 138.149 295.262 138.758 294.433 139.238C293.62 139.702 292.893 140.052 292.254 140.289C293.543 142.354 294.848 144.293 296.171 146.107C297.493 147.921 298.78 149.504 300.031 150.854C301.298 152.204 302.503 153.261 303.645 154.026C304.803 154.774 305.861 155.122 306.821 155.071L306.818 155.889C306.234 156.014 305.664 156.091 305.107 156.12C303.836 156.157 302.596 155.912 301.389 155.384C300.197 154.871 299.051 154.185 297.95 153.325C296.849 152.464 295.803 151.484 294.814 150.385C293.839 149.268 292.933 148.149 292.098 147.025C291.278 145.901 290.545 144.826 289.901 143.801C289.257 142.777 288.722 141.902 288.295 141.177C287.895 141.23 287.47 141.276 287.022 141.315C286.589 141.354 286.125 141.386 285.63 141.413L284.678 141.463C284.687 141.93 284.693 142.475 284.695 143.098C284.711 143.704 284.721 144.334 284.725 144.988C284.744 145.641 284.755 146.303 284.76 146.972C284.78 147.641 284.797 148.263 284.812 148.838C284.827 149.414 284.839 149.927 284.847 150.378C284.854 150.814 284.864 151.14 284.876 151.358C284.911 152.026 284.986 152.567 285.101 152.981C285.215 153.38 285.372 153.699 285.571 153.937C285.77 154.176 286.019 154.342 286.319 154.435C286.619 154.528 286.972 154.594 287.378 154.635L288.383 154.722L288.454 156.05C288.111 156.021 287.698 155.989 287.214 155.952C286.81 155.942 286.313 155.938 285.723 155.938C285.133 155.923 284.45 155.936 283.676 155.977C282.887 156.019 282.021 156.088 281.079 156.185C280.137 156.282 279.089 156.424 277.935 156.61L277.865 155.282ZM284.639 139.853L285.963 139.783C287.898 139.68 289.488 139.369 290.734 138.851C291.978 138.318 292.953 137.659 293.656 136.874C294.36 136.089 294.833 135.207 295.076 134.228C295.335 133.249 295.437 132.247 295.383 131.222C295.357 130.725 295.276 130.223 295.14 129.716C295.02 129.193 294.822 128.69 294.548 128.206C294.29 127.721 293.948 127.272 293.522 126.859C293.111 126.429 292.611 126.066 292.021 125.771C291.445 125.459 290.766 125.23 289.982 125.085C289.213 124.924 288.333 124.869 287.342 124.922C286.785 124.952 286.282 124.994 285.835 125.049C285.388 125.104 284.896 125.192 284.359 125.315L284.639 139.853Z" fill="#FFF9EF"/>
<path d="M313.105 153.195C313.503 153.123 313.855 153.056 314.16 152.993C314.465 152.931 314.747 152.871 315.006 152.813C315.265 152.755 315.518 152.706 315.763 152.665C316.008 152.625 316.269 152.583 316.545 152.539C316.413 150.473 316.276 148.431 316.134 146.414C316.007 144.394 315.881 142.461 315.756 140.614C315.631 138.766 315.518 137.042 315.418 135.443C315.319 133.843 315.23 132.429 315.152 131.202C315.074 129.975 315.003 128.966 314.939 128.176C314.889 127.383 314.853 126.871 314.83 126.639C314.762 125.974 314.661 125.437 314.526 125.029C314.391 124.62 314.212 124.31 313.988 124.099C313.777 123.87 313.521 123.724 313.219 123.661C312.915 123.583 312.567 123.533 312.175 123.51L311.143 123.475L311.006 122.129C311.444 122.146 311.913 122.161 312.413 122.173C312.834 122.177 313.309 122.167 313.836 122.145C314.379 122.121 314.936 122.079 315.506 122.021C316.031 121.968 316.529 121.885 317.001 121.775C317.473 121.664 317.96 121.552 318.462 121.438C318.964 121.309 319.496 121.184 320.061 121.064C320.625 120.944 321.254 120.848 321.948 120.777C323.799 120.588 325.403 120.659 326.761 120.99C328.118 121.304 329.251 121.806 330.163 122.495C331.072 123.168 331.77 123.98 332.256 124.931C332.741 125.866 333.035 126.852 333.141 127.889C333.285 129.312 333.147 130.561 332.726 131.636C332.32 132.709 331.776 133.64 331.093 134.429C330.423 135.201 329.686 135.846 328.882 136.366C328.091 136.869 327.382 137.254 326.755 137.521C328.142 139.521 329.54 141.395 330.948 143.143C332.356 144.891 333.718 146.409 335.033 147.697C336.363 148.984 337.617 149.981 338.795 150.69C339.987 151.381 341.061 151.678 342.018 151.58L342.054 152.397C341.477 152.55 340.911 152.654 340.356 152.711C339.088 152.809 337.838 152.624 336.607 152.156C335.392 151.701 334.214 151.071 333.073 150.265C331.931 149.46 330.84 148.532 329.798 147.481C328.771 146.414 327.813 145.339 326.924 144.257C326.05 143.174 325.267 142.136 324.575 141.144C323.882 140.152 323.305 139.304 322.844 138.6C322.446 138.672 322.025 138.739 321.579 138.8C321.149 138.86 320.687 138.914 320.193 138.965L319.245 139.062C319.276 139.527 319.308 140.071 319.34 140.693C319.386 141.298 319.426 141.927 319.461 142.58C319.512 143.232 319.555 143.892 319.592 144.56C319.644 145.227 319.691 145.847 319.734 146.421C319.777 146.995 319.813 147.508 319.843 147.958C319.872 148.393 319.897 148.718 319.919 148.935C319.986 149.6 320.088 150.137 320.222 150.545C320.356 150.938 320.527 151.249 320.738 151.478C320.948 151.706 321.205 151.86 321.509 151.938C321.813 152.017 322.169 152.066 322.576 152.087L323.585 152.125L323.719 153.448C323.375 153.436 322.961 153.424 322.476 153.411C322.072 153.421 321.576 153.44 320.986 153.469C320.396 153.482 319.715 153.528 318.944 153.607C318.157 153.687 317.296 153.799 316.36 153.941C315.424 154.084 314.383 154.276 313.239 154.518L313.105 153.195ZM319.129 137.456L320.447 137.321C322.375 137.124 323.949 136.737 325.168 136.159C326.385 135.566 327.326 134.86 327.991 134.042C328.656 133.224 329.087 132.32 329.282 131.331C329.494 130.34 329.547 129.334 329.444 128.313C329.394 127.818 329.289 127.321 329.129 126.821C328.983 126.304 328.762 125.811 328.465 125.341C328.183 124.87 327.82 124.438 327.375 124.046C326.944 123.636 326.427 123.298 325.823 123.031C325.233 122.748 324.543 122.552 323.753 122.445C322.977 122.321 322.096 122.31 321.109 122.411C320.554 122.467 320.054 122.534 319.61 122.611C319.166 122.687 318.678 122.799 318.148 122.947L319.129 137.456Z" fill="#FFF9EF"/>
<path d="M348.159 149.308C348.554 149.221 348.902 149.141 349.205 149.067C349.508 148.993 349.787 148.922 350.044 148.854C350.301 148.787 350.551 148.728 350.794 148.678C351.038 148.628 351.297 148.576 351.571 148.521C351.361 146.462 351.146 144.427 350.927 142.416C350.723 140.404 350.524 138.476 350.328 136.635C350.133 134.794 349.955 133.076 349.794 131.481C349.634 129.886 349.491 128.477 349.367 127.254C349.242 126.03 349.133 125.025 349.038 124.237C348.959 123.448 348.903 122.937 348.87 122.706C348.778 122.044 348.648 121.513 348.483 121.112C348.332 120.709 348.141 120.406 347.909 120.203C347.691 119.983 347.429 119.847 347.124 119.796C346.818 119.729 346.476 119.691 346.099 119.681L345.066 119.685L344.878 118.346C345.225 118.36 345.64 118.364 346.125 118.358C346.53 118.348 347.019 118.319 347.591 118.269C348.179 118.218 348.864 118.137 349.647 118.027C350.43 117.916 351.287 117.772 352.217 117.594C353.16 117.398 354.191 117.158 355.309 116.875L355.497 118.215C355.102 118.302 354.754 118.383 354.451 118.457C354.148 118.531 353.868 118.602 353.612 118.669C353.368 118.719 353.125 118.769 352.881 118.819C352.638 118.869 352.379 118.921 352.105 118.976C352.315 121.035 352.523 123.079 352.729 125.107C352.948 127.118 353.148 129.045 353.328 130.888C353.521 132.714 353.699 134.432 353.862 136.043C354.038 137.635 354.188 139.043 354.312 140.267C354.437 141.49 354.539 142.496 354.618 143.286C354.713 144.074 354.775 144.575 354.805 144.791C354.9 145.468 355.023 146.009 355.173 146.411C355.339 146.812 355.531 147.123 355.75 147.343C355.982 147.546 356.251 147.681 356.558 147.747C356.865 147.814 357.205 147.845 357.58 147.839L358.59 147.838L358.774 149.155C358.43 149.156 358.016 149.16 357.531 149.165C357.128 149.19 356.632 149.229 356.045 149.28C355.455 149.316 354.776 149.389 354.009 149.497C353.226 149.607 352.369 149.751 351.439 149.93C350.509 150.108 349.477 150.34 348.343 150.625L348.159 149.308Z" fill="#FFF9EF"/>
<path d="M383.128 129.574C382.19 129.613 381.24 129.671 380.278 129.747C379.33 129.82 378.424 129.901 377.558 129.992C376.692 130.082 375.898 130.175 375.175 130.271C374.465 130.35 373.878 130.414 373.415 130.465C373.677 132.313 373.911 134.001 374.117 135.528C374.199 136.177 374.29 136.824 374.387 137.47C374.485 138.116 374.568 138.717 374.634 139.274C374.713 139.813 374.779 140.275 374.831 140.661C374.898 141.044 374.944 141.304 374.968 141.442C375.108 142.238 375.327 142.855 375.624 143.292C375.922 143.729 376.305 144.032 376.776 144.201C377.262 144.368 377.832 144.433 378.487 144.396C379.141 144.359 379.896 144.265 380.751 144.113C381.972 143.897 382.997 143.636 383.825 143.332C384.668 143.025 385.351 142.612 385.874 142.093C386.412 141.571 386.808 140.916 387.063 140.129C387.315 139.326 387.463 138.329 387.505 137.137L388.947 136.882C388.959 137.306 388.959 137.843 388.947 138.493C388.936 139.142 388.9 139.835 388.841 140.572C388.794 141.291 388.71 142.017 388.587 142.749C388.479 143.479 388.335 144.136 388.154 144.721C386.528 144.962 384.966 145.167 383.469 145.337C381.99 145.52 380.633 145.682 379.399 145.821C378.179 145.958 377.114 146.076 376.202 146.174C375.291 146.272 374.606 146.362 374.148 146.443C373.369 146.581 372.548 146.742 371.683 146.927C370.818 147.112 369.824 147.367 368.701 147.692L368.516 146.374C368.908 146.274 369.253 146.181 369.553 146.096C369.853 146.011 370.13 145.931 370.384 145.854C370.639 145.777 370.886 145.71 371.128 145.651C371.37 145.593 371.626 145.532 371.898 145.468C371.262 140.953 370.685 136.87 370.168 133.219C369.942 131.664 369.72 130.132 369.501 128.623C369.296 127.096 369.108 125.716 368.938 124.482C368.769 123.249 368.618 122.218 368.488 121.388C368.373 120.555 368.3 120.047 368.267 119.864C368.146 119.174 368.003 118.631 367.839 118.234C367.687 117.819 367.499 117.512 367.276 117.315C367.049 117.102 366.782 116.968 366.473 116.912C366.164 116.856 365.798 116.834 365.375 116.846L364.412 116.875L364.178 115.542C364.616 115.528 365.169 115.493 365.836 115.438C366.409 115.384 367.125 115.296 367.986 115.176C368.846 115.055 369.894 114.885 371.131 114.666L376.65 113.689C377.26 113.581 377.856 113.475 378.436 113.373C379.013 113.255 379.598 113.135 380.191 113.014C380.781 112.878 381.392 112.731 382.025 112.571C382.659 112.412 383.335 112.229 384.054 112.022L384.71 119.913L383.313 120.16C383.275 119.851 383.241 119.613 383.211 119.444C383.194 119.258 383.177 119.118 383.161 119.026C383.142 118.919 383.13 118.85 383.125 118.82C383.117 118.774 383.11 118.735 383.105 118.705C383.016 118.199 382.862 117.729 382.644 117.294C382.441 116.856 382.118 116.495 381.674 116.21C381.243 115.908 380.671 115.701 379.959 115.59C379.26 115.461 378.369 115.453 377.287 115.566L371.585 116.173C371.684 117.45 371.809 118.747 371.962 120.062C372.127 121.359 372.29 122.554 372.451 123.647L373.178 128.849L382.844 126.616L383.128 129.574Z" fill="#FFF9EF"/>
<path d="M398.814 140.944C399.2 140.823 399.541 140.713 399.836 140.613C400.131 140.513 400.404 140.419 400.654 140.329C400.904 140.24 401.148 140.16 401.386 140.089C401.624 140.018 401.878 139.944 402.146 139.866C401.282 135.39 400.5 131.342 399.8 127.721C399.495 126.18 399.196 124.661 398.901 123.165C398.622 121.666 398.367 120.305 398.135 119.081C397.903 117.858 397.703 116.843 397.535 116.036C397.378 115.211 397.278 114.707 397.237 114.525C397.077 113.828 396.904 113.278 396.716 112.874C396.529 112.47 396.318 112.176 396.085 111.99C395.848 111.789 395.574 111.669 395.263 111.629C394.966 111.585 394.622 111.577 394.231 111.603L393.225 111.691L392.924 110.372C393.376 110.332 393.866 110.283 394.393 110.225C394.842 110.17 395.357 110.091 395.938 109.99C396.534 109.884 397.164 109.755 397.829 109.602C398.66 109.411 399.484 109.19 400.302 108.938C401.134 108.683 401.981 108.424 402.844 108.162C403.703 107.884 404.579 107.611 405.471 107.342C406.379 107.069 407.332 106.818 408.329 106.589C410.641 106.057 412.843 105.949 414.935 106.266C417.027 106.582 418.913 107.281 420.591 108.363C422.285 109.441 423.733 110.871 424.936 112.653C426.138 114.434 427.011 116.515 427.555 118.895C427.805 119.987 427.949 121.174 427.988 122.457C428.038 123.722 427.93 125.024 427.664 126.361C427.408 127.681 426.962 128.996 426.323 130.308C425.696 131.601 424.838 132.819 423.747 133.964C422.653 135.093 421.295 136.107 419.672 137.007C418.048 137.907 416.111 138.616 413.86 139.134C413.164 139.294 412.447 139.427 411.708 139.533C410.988 139.651 410.249 139.758 409.491 139.852C408.752 139.958 407.997 140.068 407.228 140.181C406.459 140.294 405.689 140.44 404.918 140.617C404.193 140.784 403.343 140.995 402.367 141.251C401.404 141.489 400.318 141.819 399.11 142.24L398.814 140.944ZM405.495 109.012C404.982 109.13 404.47 109.255 403.959 109.389C403.446 109.507 402.958 109.635 402.496 109.773C402.032 109.896 401.599 110.02 401.197 110.144C400.796 110.268 400.456 110.378 400.176 110.475C401.025 114.954 401.798 118.997 402.494 122.602C402.799 124.143 403.091 125.664 403.37 127.163C403.661 128.644 403.92 129.989 404.149 131.197C404.389 132.386 404.585 133.386 404.739 134.196C404.904 134.988 405.002 135.452 405.033 135.588C405.2 136.316 405.415 136.912 405.681 137.378C405.943 137.828 406.328 138.155 406.835 138.357C407.339 138.544 407.998 138.608 408.811 138.548C409.64 138.486 410.696 138.306 411.981 138.011C412.751 137.834 413.629 137.568 414.613 137.214C415.613 136.856 416.617 136.378 417.625 135.779C418.649 135.177 419.616 134.435 420.529 133.555C421.437 132.66 422.186 131.587 422.774 130.334C423.363 129.082 423.741 127.639 423.908 126.005C424.072 124.356 423.913 122.477 423.431 120.37C423.175 119.249 422.824 118.133 422.38 117.022C421.947 115.893 421.394 114.832 420.722 113.838C420.049 112.844 419.241 111.952 418.297 111.164C417.365 110.358 416.274 109.723 415.023 109.261C413.788 108.795 412.383 108.528 410.808 108.459C409.231 108.376 407.46 108.56 405.495 109.012Z" fill="#FFF9EF"/>
</g>
<defs>
<filter id="filter0_d" x="2.68695" y="-2.86055" width="488.17" height="116.182" filterUnits="userSpaceOnUse" color-interpolation-filters="sRGB">
<feFlood flood-opacity="0" result="BackgroundImageFix"/>
<feColorMatrix in="SourceAlpha" type="matrix" values="0 0 0 0 0 0 0 0 0 0 0 0 0 0 0 0 0 0 127 0"/>
<feOffset dy="4"/>
<feGaussianBlur stdDeviation="4"/>
<feColorMatrix type="matrix" values="0 0 0 0 0 0 0 0 0 0 0 0 0 0 0 0 0 0 0.25 0"/>
<feBlend mode="normal" in2="BackgroundImageFix" result="effect1_dropShadow"/>
<feBlend mode="normal" in="SourceGraphic" in2="effect1_dropShadow" result="shape"/>
</filter>
<clipPath id="clip0">
<rect width="491" height="170" fill="white"/>
</clipPath>
</defs>
</svg>
