<svg width="491" height="170" viewBox="0 0 491 170" fill="none" xmlns="http://www.w3.org/2000/svg">
<g clip-path="url(#clip0)">
<g filter="url(#filter0_d)">
<path d="M84.7819 14.9505L81.9679 16.0678C79.6645 22.7754 77.9062 31.5393 76.6931 42.3596C76.2267 46.4488 75.3779 51.2246 74.1467 56.6869C72.9065 62.1039 71.3462 67.2076 69.4656 71.998C66.9187 78.4242 62.9491 84.0718 57.5567 88.9408C52.2184 93.8462 47.1028 97.1323 42.21 98.7992C39.9628 99.5699 37.3676 100.244 34.4243 100.823C31.4809 101.401 28.3447 101.476 25.0156 101.049C19.8048 100.38 15.9289 98.3663 13.3881 95.0091C12.2349 93.4485 11.4314 91.5135 10.9777 89.2041C10.5239 86.8947 10.6014 84.0576 11.2101 80.6929C11.6612 78.4409 12.7955 76.1957 14.6132 73.9573C16.4309 71.719 17.9466 70.457 19.1603 70.1715C19.6948 70.0195 19.9843 70.0567 20.0288 70.2831C20.0191 70.4731 19.7692 70.7574 19.2792 71.1358C17.9458 72.0092 16.5919 73.6156 15.2174 75.955C13.8428 78.2944 13.0796 80.5137 12.9277 82.6129C12.7394 84.7663 12.752 86.3864 12.9656 87.4731C13.6151 90.7788 15.023 93.2769 17.1894 94.9676C18.6789 96.0859 20.4361 97.0104 22.4609 97.7413C24.4858 98.4722 26.5797 98.8368 28.7428 98.8351C31.9376 98.8187 34.4407 98.6326 36.252 98.2767C38.0633 97.9208 39.6352 97.4238 40.9678 96.7858C43.9136 95.5015 46.6571 93.7867 49.1985 91.6413C51.7852 89.487 54.0011 87.2409 55.8462 84.9031C57.7003 82.6105 59.4427 79.8696 61.0735 76.6803C62.7496 73.4821 64.1124 70.6042 65.1619 68.0465C66.2113 65.4887 67.2624 62.4604 68.315 58.9614C70.0177 53.2654 71.637 46.7862 73.173 39.5239C75.1844 30.8513 77.4546 23.2566 79.9836 16.7398C73.894 19.018 67.9314 22.5411 62.0958 27.3091C59.1372 29.7246 56.7475 32.5221 54.9266 35.7017C52.5689 39.7393 51.7771 43.7279 52.5511 47.6674C52.9693 49.7957 53.7922 51.3506 55.0197 52.3322C56.2925 53.3049 57.495 53.6801 58.627 53.4576C59.7591 53.2352 60.9554 52.7415 62.216 51.9765C63.4766 51.2114 64.5302 50.1108 65.3767 48.6747C66.706 46.3442 67.117 43.8884 66.6099 41.3073C66.3964 40.2205 66.0955 39.5271 65.7074 39.2271C65.0928 38.9717 64.9808 38.6409 65.3713 38.235C65.816 37.8654 66.3679 37.9216 67.027 38.4035C67.6755 39.3107 68.1333 40.4436 68.4002 41.8021C68.6582 43.1152 68.4582 44.7301 67.8001 46.6465C66.6851 49.8285 64.7583 52.2294 62.0196 53.8492C60.7501 54.569 59.5041 55.049 58.2814 55.2892C56.2437 55.6896 54.2808 55.3933 52.3926 54.4004C49.9715 53.089 48.4763 50.9842 47.9068 48.0861C47.1862 44.4183 47.8098 40.6509 49.7778 36.7839C51.2631 33.8114 53.1769 31.2249 55.5194 29.0245C57.9071 26.8152 60.6701 24.7203 63.8082 22.7398C68.8692 19.535 74.5302 16.8707 80.7913 14.7469C81.1567 13.7345 81.7627 12.5102 82.6093 11.0741C83.4558 9.63792 84.2191 8.73545 84.8992 8.36669C85.5792 7.99792 86.1456 7.76905 86.5984 7.68008C88.1833 7.36867 89.1092 7.8922 89.3761 9.25067C89.5711 10.4822 89.2598 11.531 88.4423 12.3971C87.616 13.2179 86.3958 14.069 84.7819 14.9505ZM86.0067 10.0538C85.9161 10.0716 85.8073 10.1165 85.6804 10.1885C85.5987 10.2515 85.4625 10.3959 85.2716 10.6215C85.1172 10.7929 84.9628 10.9644 84.8083 11.1358C84.6539 11.3073 84.4675 11.5555 84.2492 11.8806C84.0762 12.1968 83.9169 12.4632 83.7714 12.6799C83.6622 12.8425 83.5029 13.1089 83.2935 13.4793C83.0752 13.8044 82.9297 14.0211 82.8569 14.1294C85.8746 12.9721 87.2496 11.8319 86.9819 10.7087C86.7846 10.1832 86.4595 9.96484 86.0067 10.0538Z" fill="#FFF9EF"/>
<path d="M89.5819 53.9883C89.1738 55.6353 89.1124 57.4174 89.3976 59.3345C89.5878 60.6126 90.0144 61.5988 90.6776 62.2933C91.3797 62.9354 92.2557 63.1783 93.3055 63.0221C97.4593 62.4041 100.644 57.9411 102.861 49.6331C103.072 48.8552 103.412 48.478 103.882 48.5013C104.072 48.5198 104.18 48.6203 104.207 48.8029C104.234 48.9855 103.889 50.2732 103.172 52.6661C102.494 55.0065 101.732 56.9395 100.886 58.465C99.0331 62.0066 96.3951 64.0321 92.9717 64.5414C91.1459 64.8131 89.5056 64.4506 88.051 63.454C86.5963 62.4573 85.7162 60.932 85.4106 58.8779C85.1049 56.8239 85.2616 54.5844 85.8806 52.1595C86.5384 49.6822 87.5658 47.3365 88.9627 45.1224C90.3527 42.8627 92.0753 41.1134 94.1305 39.8745C95.1124 39.2619 96.0827 38.8842 97.0412 38.7416C97.9998 38.599 98.9306 38.7404 99.8338 39.1659C100.705 39.6895 101.198 40.3393 101.314 41.1153C101.721 43.854 100.468 46.7231 97.5553 49.7226C96.6666 50.648 95.3568 51.566 93.6261 52.4767C91.8885 53.3418 90.5405 53.8456 89.5819 53.9883ZM99.4547 41.3218C99.3189 40.4089 98.8858 40.0068 98.1554 40.1155C96.8774 40.3056 95.1717 42.169 93.0385 45.7057C91.7718 47.8537 90.7217 50.2028 89.888 52.753C90.664 52.6375 91.7416 52.1973 93.1207 51.4322C94.5455 50.6603 95.7378 49.7364 96.6975 48.6605C98.8888 46.1416 99.8078 43.6954 99.4547 41.3218Z" fill="#FFF9EF"/>
<path d="M128.931 36.6267C124.514 47.213 122.491 54.0176 122.863 57.0406C123.01 58.2315 123.518 58.7735 124.388 58.6664C126.724 58.3792 129.375 54.0314 132.339 45.6231C132.535 44.948 132.779 44.6623 133.071 44.7659C133.362 44.8696 133.522 45.0359 133.551 45.2649C133.579 45.4939 133.521 45.78 133.377 46.1231C131.552 51.3226 129.908 54.9655 128.444 57.0518C127.02 59.0867 125.461 60.2083 123.767 60.4167C122.118 60.6195 120.779 60.1332 119.751 58.9577C119.22 58.4186 118.892 57.6452 118.769 56.6375C118.639 55.584 118.713 54.2963 118.991 52.7743C119.269 51.2522 120.235 48.7156 121.891 45.1643C122.293 44.2779 122.467 43.6057 122.41 43.1476C122.348 42.6438 121.928 42.4398 121.149 42.5355C120.371 42.6313 119.009 43.8449 117.064 46.1764C114.138 49.6049 111.512 54.5309 109.187 60.9543C108.968 61.4461 108.684 61.7832 108.334 61.9657C108.025 62.0967 107.369 62.2471 106.367 62.4168C105.365 62.5865 104.715 62.7827 104.417 63.0053C104.97 61.4495 106.044 58.272 107.639 53.4728C110.501 44.9841 112.457 40.094 113.507 38.8025C113.989 38.1853 114.711 37.8175 115.673 37.6992C115.856 37.6767 116.322 37.6891 117.072 37.7364C117.868 37.778 118.443 37.7305 118.798 37.5939C117.216 38.7183 114.974 43.3646 112.073 51.5326C113.899 48.6113 115.587 46.265 117.136 44.4937C118.725 42.6709 120.675 40.9433 122.985 39.3108C125.289 37.6326 127.014 36.7231 128.159 36.5823C128.434 36.5485 128.691 36.5633 128.931 36.6267Z" fill="#FFF9EF"/>
<path d="M158.492 33.7807C153.777 44.2379 151.563 50.9826 151.849 54.0149C151.961 55.2095 152.454 55.7655 153.327 55.6832C155.67 55.4621 158.443 51.191 161.644 42.8698C161.859 42.2006 162.111 41.9219 162.399 42.0337C162.688 42.1455 162.843 42.3163 162.865 42.546C162.886 42.7757 162.821 43.06 162.667 43.399C160.696 48.5448 158.949 52.1397 157.427 54.1838C155.946 56.1777 154.356 57.2548 152.656 57.4152C151.002 57.5713 149.678 57.0473 148.684 55.8432C148.168 55.2893 147.862 54.5069 147.767 53.4962C147.667 52.4395 147.778 51.1543 148.099 49.6408C148.419 48.1272 149.457 45.6189 151.213 42.1158C151.64 41.2411 151.832 40.5741 151.789 40.1146C151.741 39.6093 151.327 39.3934 150.546 39.4671C149.765 39.5408 148.369 40.7155 146.359 42.991C143.337 46.3355 140.573 51.1852 138.067 57.5403C137.835 58.0258 137.541 58.3548 137.187 58.5273C136.874 58.6495 136.214 58.7813 135.208 58.9226C134.201 59.0639 133.546 59.2417 133.241 59.4558C133.838 57.9162 135.001 54.7703 136.731 50.0181C139.832 41.6137 141.925 36.7809 143.011 35.5195C143.511 34.9162 144.243 34.569 145.208 34.4779C145.391 34.4606 145.857 34.4862 146.606 34.5546C147.4 34.6188 147.976 34.5876 148.335 34.461C146.722 35.5403 144.35 40.1213 141.219 48.2041C143.127 45.3355 144.88 43.0379 146.478 41.311C148.118 39.5339 150.116 37.8621 152.471 36.2956C154.822 34.6832 156.572 33.8228 157.721 33.7144C157.996 33.6884 158.253 33.7105 158.492 33.7807Z" fill="#FFF9EF"/>
<path d="M160.619 78.2233C158.593 78.3529 156.999 78.0155 155.837 77.2112C154.679 76.4529 154.062 75.475 153.985 74.2776C153.909 73.0802 154.167 71.6995 154.761 70.1356C155.808 67.7103 157.852 65.6836 160.892 64.0557C163.17 62.8002 166.213 61.5652 170.019 60.3507C173.829 59.1822 176.276 58.4015 177.361 58.0084C178.833 55.001 180.482 49.6933 182.308 42.0853C179.937 46.9536 177.914 50.3893 176.239 52.3924C174.563 54.3954 172.805 55.4559 170.962 55.5737C168.475 55.7327 166.958 54.7892 166.411 52.7433C166.207 52.4327 166.13 51.9521 166.181 51.3014C166.231 50.6508 166.248 50.1873 166.23 49.911C166.259 49.6317 166.392 49.1839 166.63 48.5675C166.865 47.9051 167.02 47.4328 167.094 47.1506C167.533 46.0589 167.918 45.202 168.248 44.5797C167.511 44.6268 167.28 44.2716 167.555 43.5142L168.644 41.0168C170.019 37.9232 171.146 35.3077 172.027 33.1705C172.426 32.1739 173.293 31.6329 174.628 31.5475L178.842 31.2781C178.756 31.3761 178.538 31.575 178.187 31.8749C177.393 32.4805 176.813 33.1651 176.445 33.9284C174.97 36.8898 173.158 41.0981 171.01 46.5534C170.135 48.7827 169.73 50.4039 169.795 51.4171C169.86 52.4303 170.066 53.1339 170.415 53.5277C170.81 53.9187 171.307 54.095 171.906 54.0567C172.781 54.0007 173.942 53.0016 175.39 51.0593C178.416 47.0277 181.647 40.7865 185.083 32.3356C185.528 31.3361 186.395 30.7951 187.685 30.7126L191.415 30.4741C190.271 31.3796 189.394 32.4992 188.786 33.8329C188.175 35.1206 187.524 36.8732 186.833 39.0907C186.189 41.3053 185.359 44.2485 184.346 47.9202C183.378 51.589 182.629 54.3421 182.099 56.1794C186.346 54.6131 189.516 52.1214 191.61 48.7043C192.532 47.2118 193.82 44.5861 195.476 40.827C195.757 40.1617 196.017 39.8907 196.256 40.0141C196.541 40.1346 196.691 40.31 196.706 40.5403C196.721 40.7706 196.387 41.6936 195.704 43.3096C195.064 44.8765 194.396 46.3527 193.698 47.7384C192.998 49.0779 192.07 50.4783 190.915 51.9394C189.76 53.4006 188.447 54.5712 186.978 55.4513C185.511 56.3774 183.54 57.382 181.066 58.4651C177.932 65.1394 174.667 70.1112 171.269 73.3805C168.083 76.3587 164.533 77.973 160.619 78.2233ZM156.175 71.6405C155.733 72.6861 155.539 73.6234 155.592 74.4523C155.648 75.3274 156.013 75.9745 156.687 76.3939C157.361 76.8132 158.182 76.9919 159.149 76.9301C161.82 76.7593 164.587 75.195 167.45 72.2374C170.316 69.3259 172.8 66.2306 174.902 62.9517L176.259 60.2985C168.786 62.7648 164.088 64.4987 162.164 65.5004C159.299 66.9784 157.302 69.0251 156.175 71.6405Z" fill="#FFF9EF"/>
<path d="M243.984 25.4953L248.622 25.3456C250.56 25.3408 251.853 25.753 252.501 26.5821C252.825 26.9505 252.988 27.3193 252.989 27.6885C252.99 28.0577 252.875 28.381 252.645 28.6584C252.093 29.352 251.055 29.7006 249.532 29.7044C246.902 29.7108 244.569 28.7012 242.534 26.6756C237.367 27.4727 233.451 30.2281 230.786 34.9417C229.086 37.9917 228.239 40.9703 228.247 43.8776C228.25 45.4928 228.508 47.0843 229.02 48.6521C230.553 53.0786 233.858 55.2856 238.935 55.2733C243.457 55.2622 247.376 53.7298 250.691 50.6759C254.006 47.6221 255.66 44.5953 255.653 41.5957C255.65 40.1651 255.024 38.9899 253.775 38.0699C252.573 37.1037 251.28 36.5531 249.895 36.418C248.556 36.2367 247.402 36.1472 246.433 36.1496C245.51 36.1518 244.288 36.2702 242.765 36.5046C241.289 36.6928 239.814 37.2964 238.339 38.3152C236.589 39.5193 235.716 41.1136 235.721 43.098C235.725 45.0823 237.276 46.8783 240.372 48.486C240.834 48.7617 241.019 49.1305 240.928 49.5922C240.883 50.0076 240.699 50.1234 240.375 49.9396C237.464 48.3777 235.406 46.606 234.201 44.6245C233.368 43.3344 232.95 42.251 232.948 41.3741C232.945 40.4973 233.059 39.7818 233.288 39.2274C233.838 37.6109 235.219 36.2462 237.432 35.1332C239.644 34.0202 242.458 33.4596 245.873 33.4513L258.125 33.4214C260.525 33.4156 263.476 32.6008 266.98 30.9771C268.685 30.1884 269.929 29.2624 270.711 28.1991C271.079 27.6444 271.262 27.0671 271.26 26.4672C271.259 25.8211 271.119 25.2677 270.841 24.8069C270.563 24.346 270.447 24.0233 270.493 23.8386C270.538 23.6539 270.653 23.5613 270.838 23.5609C271.069 23.5603 271.254 23.6752 271.393 23.9056C272.041 25.0116 272.367 26.0722 272.369 27.0875C272.372 28.0566 272.074 28.9572 271.476 29.7893C270.327 31.5458 268.369 32.958 265.603 34.0262C262.836 35.0944 259.976 35.632 257.023 35.6392C256.931 35.6395 256.815 35.6397 256.677 35.6401C258.434 37.0664 259.315 38.8871 259.321 41.1022C259.328 44.1941 257.536 47.3827 253.945 50.668C252.241 52.2873 250.052 53.6079 247.378 54.6297C244.704 55.6515 241.89 56.166 238.937 56.1732C231.784 56.1906 226.726 54.1262 223.762 49.9801C222.28 47.9071 221.537 45.9014 221.532 43.9632C221.527 42.025 221.823 40.2245 222.419 38.5617C224.023 34.1737 227.269 30.7739 232.154 28.3623C234.966 26.971 238.125 26.0864 241.631 25.7087C240.335 23.9121 239.683 21.6524 239.677 18.9297C239.716 16.2068 240.91 13.6427 243.257 11.2373C245.605 8.83183 248.301 7.0947 251.344 6.02587C254.433 4.91078 257.431 4.3497 260.339 4.34261C262.738 4.33676 264.77 4.81637 266.434 5.78142C268.143 6.74637 269.001 8.29025 269.006 10.4131C269.009 11.7514 268.597 12.9522 267.769 14.0156C266.941 15.0329 265.996 15.5429 264.935 15.5454C263.919 15.5479 263.088 15.25 262.44 14.6516C261.839 14.007 261.537 13.2232 261.535 12.3003C261.533 11.3773 261.831 10.6151 262.429 10.0138C263.074 9.41226 263.811 9.11049 264.642 9.10847C265.196 9.10712 265.727 9.24427 266.235 9.51992C266.743 9.74942 267.044 10.0256 267.137 10.3484C267.182 10.0714 267.205 9.79445 267.204 9.51756C267.202 8.5023 266.784 7.7188 265.952 7.16704C265.074 6.52311 263.758 6.20328 262.004 6.20755C260.251 6.21183 258.198 6.70139 255.847 7.67623C253.496 8.60493 251.284 9.97169 249.212 11.7765C247.14 13.5814 245.507 15.8005 244.313 18.4338C243.671 19.9121 243.351 21.2281 243.354 22.3818C243.357 23.5355 243.567 24.5734 243.984 25.4953ZM251.812 27.6221C251.81 26.7915 250.101 26.3803 246.686 26.3886C245.994 26.3903 245.279 26.4151 244.541 26.4631C245.651 27.8448 247.13 28.5334 248.976 28.5289C250.868 28.5243 251.813 28.2221 251.812 27.6221Z" fill="#FFF9EF"/>
<path d="M356.787 11.4969C356.91 9.8864 356.289 8.31182 354.925 6.77317C352.963 4.58725 350.118 3.35229 346.391 3.06831C343.124 2.81939 339.457 3.2574 335.391 4.38235C333.265 4.96081 331.393 5.83641 329.776 7.00912C327.275 8.85497 325.948 10.7902 325.793 12.8149C325.586 15.5297 327.126 18.1 330.412 20.5256C331.641 21.4061 334.12 22.8908 337.848 24.9799C341.626 27.0265 344.371 28.6703 346.081 29.9114C348.67 31.7747 350.398 33.6883 351.267 35.652C352.182 37.6193 352.578 39.4082 352.455 41.0187C352.28 43.3194 351.341 45.6083 349.641 47.8854C346.646 51.9614 342.454 55.3446 337.065 58.0349C330.856 61.1718 323.564 62.4212 315.189 61.7831C307.137 61.1696 300.897 58.6346 296.469 54.1782C293.026 50.7687 291.493 46.6022 291.868 41.6786C292.106 38.5496 293.497 35.1844 296.039 31.5829C298.627 27.985 301.637 25.53 305.069 24.218C305.781 23.9945 306.294 23.941 306.609 24.0576C306.97 24.1776 306.661 24.5937 305.681 25.3059C303.583 26.7196 301.864 28.3242 300.524 30.1197C297.639 33.9726 296.015 38.2689 295.654 43.0084C295.416 46.1374 296.081 48.9419 297.651 51.4219C300.461 55.8476 305.71 58.6311 313.399 59.7723C314.266 59.9309 315.551 60.0751 317.253 60.2048C319.002 60.3381 321.373 60.1948 324.367 59.7749C327.404 59.4046 330.357 58.6114 333.227 57.3953C339.401 54.7186 343.552 50.962 345.679 46.1257C346.343 44.6953 346.728 43.2898 346.833 41.9094C347.072 38.7804 345.878 35.9126 343.254 33.3059C341.827 31.9939 338.841 30.1697 334.299 27.8335C329.805 25.4547 326.794 23.6748 325.264 22.4937C321.903 19.831 320.347 16.8661 320.596 13.5991C320.814 10.7462 322.613 8.08323 325.995 5.61027C330.845 2.09212 337.434 0.650331 345.763 1.28491C349.674 1.58292 352.804 2.42302 355.151 3.80522C357.548 5.14491 358.934 7.00917 359.307 9.398C359.364 9.86515 359.375 10.3288 359.34 10.789C359.203 12.5835 358.252 14.1309 356.487 15.4312C355.267 16.2638 353.669 16.8826 351.694 17.2875C350.849 17.4545 350.395 17.3274 350.335 16.9063C350.288 16.3011 350.892 15.9768 352.145 15.9334C354.374 15.8256 355.816 14.8247 356.469 12.9306C356.646 12.435 356.752 11.9571 356.787 11.4969Z" fill="#FFF9EF"/>
<path d="M385.988 43.8417C385.061 44.5634 383.659 46.2957 381.783 49.0384C379.913 51.7354 378.726 53.7967 378.223 55.2223C377.772 56.6077 377.489 57.7584 377.375 58.6743C377.267 59.5444 377.556 60.0222 378.243 60.1077C379.113 60.2159 380.289 59.5485 381.771 58.1052C383.939 56.0034 386.173 53.1888 388.472 49.6616C388.707 49.2723 388.941 49.0689 389.176 49.0516C389.559 48.9598 389.725 49.12 389.674 49.5322C389.646 49.7612 389.543 50.0274 389.365 50.3308C384.092 58.3244 380.013 62.1416 377.128 61.7825C375.8 61.6172 374.803 60.8422 374.139 59.4573C373.812 58.7191 373.72 57.7776 373.862 56.6327C374.005 55.4878 374.408 54.1196 375.071 52.528C370.672 57.9795 367.145 60.5401 364.489 60.2095C363.756 60.1183 363.12 59.8067 362.582 59.2747C361.328 58.142 360.846 56.4079 361.137 54.0723C361.695 49.5844 364.209 45.2701 368.677 41.1292C371.194 38.8383 374.104 37.503 377.407 37.1235C378.305 37.0028 379.144 36.9909 379.922 37.0878C382.029 37.35 383.724 38.3049 385.007 39.9528C385.402 40.5135 385.479 41.0114 385.239 41.4466C384.999 41.8817 384.587 42.0165 384.003 41.8508C383.705 40.1395 382.708 39.1784 381.014 38.9675C379.044 38.7225 376.424 39.9774 373.151 42.7324C371.274 44.359 369.472 46.3205 367.745 48.6167C365.589 51.3711 364.399 53.6413 364.177 55.4273C363.955 57.2133 364.416 58.1775 365.561 58.32C368.308 58.662 372.428 54.8962 377.918 47.0228C378.999 45.4367 379.875 44.383 380.544 43.8618C381.219 43.2947 382.015 43.0682 382.931 43.1822C383.114 43.205 383.563 43.3307 384.279 43.5593C385.04 43.7935 385.61 43.8877 385.988 43.8417Z" fill="#FFF9EF"/>
<path d="M416.701 44.4981C409.576 53.4876 405.782 59.4875 405.319 62.4979C405.137 63.6838 405.479 64.3434 406.345 64.4767C408.672 64.8344 412.403 61.3694 417.539 54.0817C417.911 53.4852 418.223 53.2765 418.476 53.4554C418.728 53.6343 418.837 53.8378 418.802 54.0659C418.767 54.2939 418.634 54.5536 418.402 54.8448C415.234 59.3535 412.663 62.4132 410.687 64.0238C408.765 65.5958 406.96 66.252 405.272 65.9925C403.63 65.74 402.474 64.9085 401.804 63.4981C401.439 62.835 401.333 62.0018 401.488 60.9983C401.649 59.9492 402.07 58.73 402.75 57.3405C403.431 55.9511 405.05 53.7721 407.608 50.8037C408.236 50.0598 408.585 49.4598 408.655 49.0037C408.732 48.502 408.383 48.1915 407.607 48.0722C406.832 47.953 405.192 48.7513 402.687 50.4672C398.94 52.9726 395.075 57.0007 391.094 62.5516C390.75 62.9656 390.385 63.213 389.999 63.2937C389.666 63.3359 388.994 63.3026 387.983 63.1939C386.973 63.0852 386.294 63.0975 385.946 63.2309C386.901 61.8835 388.797 59.1168 391.635 54.9309C396.694 47.538 399.904 43.3625 401.265 42.4046C401.897 41.9414 402.691 41.7835 403.649 41.9308C403.832 41.9588 404.277 42.0974 404.986 42.3464C405.74 42.6025 406.307 42.713 406.686 42.6779C404.858 43.3306 401.439 47.1938 396.429 54.2674C398.98 51.9516 401.241 50.1515 403.213 48.8673C405.237 47.5444 407.583 46.4109 410.249 45.4669C412.923 44.4773 414.829 44.0702 415.97 44.2455C416.243 44.2876 416.487 44.3718 416.701 44.4981Z" fill="#FFF9EF"/>
<path d="M436.37 67.043C436.103 68.4954 436.56 69.3301 437.74 69.5471C439.873 69.9393 443.365 66.8979 448.215 60.423C448.402 60.1757 448.565 59.9242 448.706 59.6686C448.892 59.4213 449.107 59.2731 449.351 59.2241C449.64 59.1834 449.809 59.2849 449.858 59.5285C449.915 59.7267 449.811 60.0361 449.546 60.4566C444.363 68.2311 439.911 71.7762 436.189 71.0919C434.964 70.8666 434.088 70.1425 433.562 68.9197C433.036 67.6969 432.869 66.5635 433.061 65.5196C433.261 64.4303 433.558 63.4527 433.952 62.5866C430.519 66.4598 427.794 68.5162 425.78 68.7558C425.193 68.8826 424.628 68.8959 424.083 68.7958C423.584 68.704 423.097 68.5441 422.623 68.3161C420.507 67.3172 419.721 65.3426 420.263 62.3925C420.63 60.3954 421.534 58.2859 422.975 56.064C424.47 53.805 426.352 51.7346 428.622 49.8527C430.892 47.9709 433.414 46.8862 436.188 46.5986C437.199 46.4561 438.341 46.5017 439.611 46.7353C440.928 46.9773 442.305 47.6529 443.743 48.7619C447.898 43.5197 451.519 38.6253 454.607 34.0787C455.518 32.6977 456.306 31.8572 456.971 31.5572C457.69 31.2202 458.299 31.0975 458.798 31.1893C459.343 31.2895 459.661 31.3479 459.752 31.3646C459.888 31.3896 460.306 31.537 461.008 31.8066C461.762 32.0393 462.348 32.1705 462.765 32.2002C461.546 32.9614 457.926 37.0819 451.906 44.5616C444.234 54.1308 439.483 60.5771 437.652 63.9003C436.956 65.1331 436.529 66.1807 436.37 67.043ZM442.998 49.7511C442.517 49.0525 441.731 48.6031 440.642 48.4029C439.598 48.2109 437.977 48.734 435.779 49.9721C432.271 51.9547 429.176 54.6233 426.494 57.9779C424.728 60.1868 423.698 62.0855 423.406 63.6741C423.273 64.4003 423.288 65.0834 423.452 65.7236C423.661 66.372 424.083 66.7546 424.719 66.8715C426.262 67.1552 428.46 65.9171 431.314 63.1572C434.167 60.3974 438.062 55.9286 442.998 49.7511Z" fill="#FFF9EF"/>
<path d="M437.831 93.5104C435.847 93.0811 434.406 92.3209 433.509 91.2298C432.602 90.1837 432.275 89.0743 432.529 87.9016C432.782 86.7289 433.409 85.4714 434.407 84.1293C436.077 82.0826 438.597 80.6919 441.967 79.9571C444.501 79.3721 447.766 79.0158 451.759 78.8882C455.743 78.8056 458.311 78.7235 459.461 78.642C461.7 76.1516 464.737 71.4968 468.573 64.6776C464.962 68.7124 462.076 71.4643 459.917 72.9331C457.758 74.4019 455.776 74.9411 453.972 74.5509C451.537 74.024 450.335 72.7018 450.368 70.5843C450.256 70.2295 450.314 69.7462 450.54 69.1342C450.767 68.5223 450.91 68.081 450.968 67.8103C451.072 67.5495 451.323 67.1551 451.72 66.6273C452.127 66.0544 452.405 65.6423 452.554 65.3912C453.275 64.4611 453.879 63.7419 454.366 63.2336C453.645 63.0775 453.52 62.6728 453.992 62.0194L455.722 59.9148C457.889 57.3147 459.689 55.1071 461.12 53.292C461.776 52.4424 462.758 52.159 464.066 52.4419L468.193 53.3347C468.084 53.4054 467.819 53.537 467.4 53.7296C466.471 54.0952 465.725 54.595 465.163 55.2288C462.935 57.6741 460.041 61.2269 456.484 65.8871C455.033 67.7924 454.2 69.2412 453.985 70.2335C453.771 71.2258 453.777 71.9591 454.005 72.4333C454.278 72.9173 454.708 73.2228 455.294 73.3496C456.151 73.535 457.542 72.8914 459.466 71.4189C463.478 68.3679 468.292 63.2476 473.908 56.058C474.609 55.2181 475.591 54.9347 476.854 55.2079L480.507 55.9982C479.159 56.5564 478.01 57.3938 477.06 58.5104C476.12 59.5819 475.015 61.0898 473.744 63.0341C472.519 64.9882 470.917 67.5926 468.938 70.8474C467.004 74.1119 465.531 76.5554 464.519 78.1779C469.032 77.8321 472.763 76.3019 475.711 73.5872C477.006 72.4036 478.963 70.2302 481.583 67.0669C482.036 66.5037 482.36 66.3142 482.556 66.4983C482.797 66.6921 482.894 66.9018 482.845 67.1273C482.796 67.3529 482.223 68.1495 481.124 69.5172C480.08 70.8496 479.034 72.0868 477.984 73.229C476.944 74.3261 475.669 75.4195 474.158 76.5092C472.648 77.5989 471.065 78.3662 469.411 78.811C467.747 79.301 465.577 79.7287 462.901 80.0942C458.062 85.6576 453.561 89.5473 449.399 91.7632C445.521 93.7573 441.665 94.3397 437.831 93.5104ZM435.356 85.9635C434.645 86.8485 434.202 87.6969 434.026 88.5088C433.841 89.3658 434.015 90.0881 434.549 90.6758C435.083 91.2634 435.824 91.6597 436.771 91.8646C439.387 92.4304 442.476 91.6822 446.038 89.6198C449.591 87.6026 452.827 85.3043 455.745 82.7249L457.775 80.5436C449.913 80.8733 444.92 81.2569 442.795 81.6943C439.635 82.3328 437.156 83.7559 435.356 85.9635Z" fill="#FFF9EF"/>
</g>
<g filter="url(#filter1_b)">
<path d="M83.4886 124.63C82.843 128.553 83.4392 132 85.2774 134.969C87.1477 137.916 89.8234 139.676 93.3046 140.249C96.7858 140.822 100.211 139.754 103.579 137.045L104.875 129.171C104.943 128.756 104.77 128.515 104.356 128.447L101.869 128.038C101.455 127.969 101.282 127.728 101.35 127.314C101.418 126.899 101.659 126.726 102.074 126.794L109.948 128.09C110.362 128.158 110.535 128.4 110.467 128.814C110.399 129.229 110.158 129.402 109.743 129.334L106.842 128.856C106.428 128.788 106.187 128.961 106.118 129.375L104.004 142.223C103.936 142.637 103.695 142.81 103.28 142.742C102.866 142.674 102.693 142.432 102.761 142.018L103.102 139.946C103.211 139.283 103.013 139.108 102.507 139.422C99.3853 141.321 96.3049 142.02 93.2658 141.52C89.2597 140.86 86.2452 138.917 84.2224 135.69C82.1996 132.462 81.5406 128.708 82.2454 124.425C82.9547 120.115 84.7568 116.751 87.6519 114.333C90.5791 111.892 93.9491 110.985 97.7618 111.613C101.077 112.158 103.909 113.83 106.258 116.629C106.636 117.088 106.88 116.987 106.989 116.324L107.33 114.252C107.399 113.837 107.64 113.664 108.054 113.732C108.469 113.8 108.642 114.042 108.574 114.456L107.278 122.33C107.21 122.745 106.968 122.918 106.554 122.85C106.139 122.781 105.966 122.54 106.035 122.126L106.512 119.225C105.907 118.245 105.166 117.315 104.29 116.433C102.288 114.457 100.044 113.265 97.5572 112.856C94.1589 112.297 91.1271 113.132 88.4619 115.36C85.7966 117.589 84.1388 120.679 83.4886 124.63Z" fill="#FFF9EF"/>
<path d="M117.715 144.867C117.298 144.814 117.117 144.579 117.17 144.162C117.223 143.746 117.458 143.564 117.875 143.618L120.791 143.991C121.208 144.044 121.443 143.863 121.496 143.446L124.751 118.034C124.804 117.617 124.622 117.382 124.206 117.329L121.29 116.955C120.873 116.902 120.691 116.667 120.745 116.25C120.798 115.834 121.033 115.652 121.45 115.706L141.238 118.24C141.655 118.293 141.836 118.528 141.783 118.945L141.036 124.777C140.983 125.194 140.748 125.375 140.331 125.322C139.914 125.269 139.733 125.034 139.786 124.617L140.373 120.034C140.426 119.618 140.245 119.383 139.828 119.33L126.705 117.649C126.289 117.596 126.054 117.777 126 118.194L124.56 129.442C124.507 129.858 124.688 130.093 125.105 130.147L134.478 131.347C134.895 131.401 135.13 131.219 135.183 130.802L135.45 128.719C135.503 128.303 135.738 128.121 136.155 128.175C136.571 128.228 136.753 128.463 136.7 128.879L135.846 135.545C135.793 135.962 135.558 136.143 135.141 136.09C134.724 136.037 134.543 135.802 134.596 135.385L134.863 133.302C134.916 132.885 134.735 132.65 134.318 132.597L124.945 131.397C124.528 131.343 124.293 131.525 124.24 131.941L122.746 143.606C122.692 144.023 122.874 144.258 123.291 144.311L136.83 146.045C137.247 146.098 137.482 145.917 137.535 145.5L138.122 140.918C138.175 140.501 138.41 140.319 138.827 140.373C139.243 140.426 139.425 140.661 139.372 141.078L138.625 146.91C138.571 147.327 138.336 147.508 137.92 147.455L117.715 144.867Z" fill="#FFF9EF"/>
<path d="M149.351 125.946L149.93 119.884C149.97 119.466 150.199 119.277 150.617 119.317L173.194 121.474C173.613 121.514 173.802 121.743 173.762 122.161L173.182 128.224C173.142 128.642 172.913 128.831 172.495 128.791C172.077 128.751 171.888 128.522 171.928 128.104L172.388 123.296C172.428 122.878 172.238 122.649 171.82 122.609L163.04 121.77C162.622 121.73 162.393 121.919 162.353 122.337L159.916 147.841C159.876 148.259 160.065 148.488 160.483 148.528L163.41 148.808C163.828 148.848 164.017 149.077 163.977 149.495C163.937 149.913 163.708 150.102 163.29 150.062L154.928 149.263C154.51 149.223 154.321 148.994 154.361 148.576C154.401 148.158 154.63 147.969 155.048 148.008L157.975 148.288C158.393 148.328 158.622 148.139 158.662 147.721L161.099 122.217C161.139 121.799 160.95 121.57 160.532 121.53L151.752 120.691C151.334 120.651 151.105 120.84 151.065 121.258L150.605 126.066C150.565 126.484 150.336 126.673 149.918 126.634C149.5 126.594 149.311 126.365 149.351 125.946Z" fill="#FFF9EF"/>
<path d="M196.849 151.43L199.787 151.541C200.207 151.557 200.424 151.355 200.44 150.935L201.408 125.333C201.424 124.914 201.222 124.696 200.803 124.68L197.865 124.569C197.445 124.553 197.243 124.335 197.259 123.915C197.275 123.496 197.493 123.294 197.912 123.31L202.529 123.484C203.033 123.503 203.375 123.726 203.555 124.154L214.322 150.619C214.581 151.19 214.861 151.2 215.161 150.651L227.897 125.074C228.109 124.662 228.467 124.465 228.97 124.484L233.587 124.659C234.007 124.675 234.209 124.893 234.193 125.312C234.177 125.732 233.959 125.934 233.539 125.918L230.601 125.807C230.182 125.791 229.964 125.993 229.948 126.413L228.98 152.014C228.964 152.434 229.166 152.652 229.586 152.668L232.523 152.779C232.943 152.795 233.145 153.012 233.129 153.432C233.113 153.852 232.896 154.054 232.476 154.038L224.502 153.736C224.082 153.72 223.88 153.503 223.896 153.083C223.912 152.663 224.129 152.461 224.549 152.477L227.067 152.572C227.487 152.588 227.705 152.386 227.721 151.967L228.649 127.414C228.66 127.134 228.608 127.02 228.494 127.072C228.438 127.07 228.381 127.11 228.321 127.192L215.586 152.769C215.346 153.18 215.03 153.378 214.639 153.363C214.247 153.348 213.947 153.127 213.739 152.699L202.972 126.233C202.866 126.061 202.784 126.016 202.724 126.098C202.665 126.179 202.633 126.29 202.628 126.43L201.699 150.983C201.683 151.402 201.885 151.62 202.305 151.636L204.823 151.731C205.243 151.747 205.445 151.965 205.429 152.385C205.413 152.804 205.195 153.006 204.776 152.99L196.801 152.689C196.382 152.673 196.18 152.455 196.196 152.035C196.212 151.616 196.429 151.414 196.849 151.43Z" fill="#FFF9EF"/>
<path d="M255.777 126.96C255.72 126.792 255.636 126.709 255.524 126.709C255.412 126.71 255.328 126.794 255.273 126.963L249.589 141.941C249.367 142.362 249.522 142.572 250.054 142.569L261.141 142.517C261.645 142.515 261.798 142.304 261.6 141.885L255.777 126.96ZM262.578 144.359C262.408 143.967 262.071 143.773 261.567 143.775L249.639 143.831C249.135 143.833 248.8 144.031 248.634 144.424L245.688 152.207C245.466 152.629 245.607 152.838 246.111 152.836L248.631 152.824C249.051 152.822 249.262 153.031 249.264 153.451C249.266 153.871 249.057 154.082 248.637 154.084L240.657 154.121C240.237 154.123 240.026 153.914 240.024 153.494C240.022 153.074 240.231 152.863 240.651 152.861L243.381 152.848C243.717 152.847 243.996 152.635 244.218 152.214L254.591 124.866C254.701 124.445 255.008 124.234 255.512 124.231C256.016 124.229 256.325 124.438 256.439 124.857L267.066 152.108C267.264 152.527 267.545 152.736 267.909 152.734L270.639 152.721C271.059 152.719 271.27 152.928 271.272 153.348C271.274 153.768 271.065 153.979 270.645 153.981L262.665 154.018C262.245 154.02 262.034 153.811 262.032 153.391C262.03 152.971 262.239 152.76 262.659 152.758L265.179 152.747C265.655 152.744 265.794 152.534 265.596 152.115L262.578 144.359Z" fill="#FFF9EF"/>
<path d="M292.661 138.473C294.955 138.379 296.693 137.719 297.876 136.494C299.059 135.269 299.607 133.593 299.52 131.467C299.433 129.34 298.75 127.715 297.471 126.59C296.192 125.466 294.405 124.95 292.111 125.044L283.508 125.396C283.089 125.413 282.888 125.632 282.905 126.052L283.403 138.221C283.42 138.641 283.638 138.842 284.058 138.825L292.661 138.473ZM283.952 151.65C283.97 152.07 284.188 152.271 284.608 152.254L287.126 152.151C287.545 152.134 287.764 152.335 287.781 152.754C287.798 153.174 287.597 153.393 287.177 153.41L279.204 153.736C278.784 153.753 278.566 153.552 278.549 153.132C278.531 152.713 278.733 152.494 279.152 152.477L282.09 152.357C282.509 152.34 282.711 152.121 282.693 151.702L281.646 126.103C281.629 125.683 281.41 125.482 280.991 125.499L278.053 125.62C277.633 125.637 277.415 125.436 277.398 125.016C277.381 124.596 277.582 124.378 278.001 124.361L292.06 123.785C294.773 123.674 296.872 124.289 298.356 125.629C299.868 126.969 300.676 128.897 300.779 131.415C300.882 133.933 300.235 135.921 298.837 137.379C297.468 138.837 295.426 139.621 292.712 139.732L292.503 139.74C292.279 139.75 292.114 139.826 292.008 139.971C291.928 140.086 291.962 140.225 292.109 140.387L300.529 150.972C300.909 151.376 301.268 151.572 301.603 151.558L304.331 151.447C304.751 151.429 304.969 151.631 304.986 152.05C305.004 152.47 304.802 152.688 304.383 152.706L295.99 153.049C295.57 153.066 295.352 152.865 295.334 152.445C295.317 152.026 295.519 151.807 295.938 151.79L298.666 151.678C299.169 151.658 299.231 151.445 298.85 151.04L289.985 139.844L284.11 140.084C283.69 140.101 283.489 140.32 283.506 140.739L283.952 151.65Z" fill="#FFF9EF"/>
<path d="M326.27 136.429C328.559 136.254 330.273 135.534 331.412 134.268C332.551 133.001 333.04 131.307 332.878 129.186C332.716 127.064 331.976 125.463 330.658 124.384C329.341 123.306 327.537 122.853 325.248 123.028L316.663 123.683C316.244 123.715 316.05 123.94 316.082 124.359L317.008 136.503C317.04 136.922 317.266 137.116 317.685 137.084L326.27 136.429ZM318.03 149.905C318.062 150.323 318.288 150.517 318.707 150.485L321.219 150.293C321.638 150.261 321.863 150.455 321.895 150.873C321.927 151.292 321.734 151.518 321.315 151.55L313.358 152.156C312.939 152.188 312.714 151.995 312.682 151.576C312.65 151.157 312.844 150.932 313.262 150.9L316.194 150.676C316.613 150.645 316.806 150.419 316.774 150L314.826 124.455C314.794 124.036 314.569 123.842 314.15 123.874L311.218 124.098C310.8 124.13 310.574 123.936 310.542 123.518C310.51 123.099 310.704 122.873 311.123 122.842L325.152 121.772C327.86 121.565 329.979 122.105 331.509 123.393C333.068 124.678 333.943 126.577 334.134 129.09C334.326 131.602 333.749 133.612 332.404 135.119C331.086 136.623 329.074 137.479 326.365 137.685L326.156 137.701C325.933 137.718 325.771 137.801 325.669 137.949C325.594 138.067 325.633 138.205 325.785 138.361L334.572 148.643C334.967 149.034 335.332 149.217 335.667 149.191L338.389 148.984C338.808 148.952 339.034 149.145 339.066 149.564C339.097 149.983 338.904 150.208 338.485 150.24L330.11 150.879C329.691 150.911 329.465 150.717 329.433 150.299C329.402 149.88 329.595 149.654 330.014 149.623L332.736 149.415C333.238 149.377 333.292 149.162 332.897 148.771L323.643 137.893L317.78 138.34C317.362 138.372 317.168 138.597 317.2 139.016L318.03 149.905Z" fill="#FFF9EF"/>
<path d="M347.387 149.317C346.97 149.36 346.739 149.173 346.696 148.755C346.652 148.337 346.839 148.107 347.257 148.063L350.181 147.759C350.599 147.716 350.786 147.485 350.743 147.068L348.094 121.585C348.051 121.167 347.82 120.98 347.403 121.023L344.478 121.327C344.061 121.371 343.83 121.184 343.787 120.766C343.743 120.348 343.93 120.118 344.348 120.074L352.703 119.206C353.121 119.162 353.351 119.35 353.395 119.767C353.438 120.185 353.251 120.416 352.833 120.459L349.909 120.763C349.491 120.806 349.304 121.037 349.348 121.455L351.996 146.937C352.039 147.355 352.27 147.542 352.688 147.499L355.612 147.195C356.03 147.152 356.26 147.339 356.304 147.757C356.347 148.174 356.16 148.405 355.742 148.448L347.387 149.317Z" fill="#FFF9EF"/>
<path d="M366.42 147.283C366.003 147.337 365.768 147.156 365.713 146.74C365.659 146.323 365.84 146.088 366.257 146.034L369.172 145.654C369.589 145.6 369.77 145.365 369.716 144.948L366.408 119.543C366.354 119.126 366.119 118.945 365.702 118.999L362.787 119.379C362.37 119.433 362.135 119.252 362.081 118.835C362.027 118.419 362.208 118.183 362.624 118.129L382.407 115.554C382.824 115.5 383.059 115.681 383.113 116.097L383.872 121.928C383.927 122.345 383.746 122.58 383.329 122.634C382.913 122.688 382.677 122.507 382.623 122.091L382.027 117.509C381.972 117.093 381.737 116.912 381.321 116.966L368.201 118.674C367.785 118.728 367.604 118.963 367.658 119.38L369.122 130.625C369.176 131.041 369.411 131.223 369.828 131.168L379.199 129.949C379.615 129.894 379.796 129.659 379.742 129.242L379.471 127.16C379.417 126.744 379.598 126.508 380.014 126.454C380.431 126.4 380.666 126.581 380.721 126.997L381.588 133.661C381.642 134.078 381.461 134.313 381.045 134.367C380.628 134.421 380.393 134.24 380.339 133.824L380.067 131.741C380.013 131.325 379.778 131.144 379.361 131.198L369.99 132.418C369.574 132.472 369.393 132.707 369.447 133.124L370.965 144.786C371.019 145.202 371.255 145.383 371.671 145.329L385.207 143.567C385.623 143.513 385.805 143.277 385.75 142.861L385.154 138.279C385.1 137.863 385.281 137.628 385.697 137.573C386.114 137.519 386.349 137.7 386.403 138.117L387.162 143.948C387.217 144.364 387.036 144.599 386.619 144.654L366.42 147.283Z" fill="#FFF9EF"/>
<path d="M397.329 143.123C396.915 143.191 396.674 143.019 396.605 142.604C396.536 142.19 396.709 141.948 397.124 141.88L400.024 141.399C400.438 141.331 400.611 141.089 400.543 140.675L396.356 115.399C396.288 114.985 396.046 114.812 395.632 114.881L392.731 115.361C392.317 115.43 392.075 115.257 392.007 114.842C391.938 114.428 392.111 114.187 392.525 114.118L404.127 112.196C408.298 111.505 411.883 112.331 414.882 114.672C417.881 117.014 419.724 120.256 420.41 124.4C421.096 128.543 420.398 132.207 418.314 135.39C416.23 138.573 413.103 140.51 408.931 141.201L397.329 143.123ZM401.786 140.469C401.854 140.883 402.096 141.056 402.51 140.987L408.725 139.958C412.482 139.336 415.313 137.576 417.217 134.678C419.148 131.775 419.799 128.418 419.167 124.605C418.536 120.793 416.838 117.825 414.073 115.7C411.337 113.571 408.09 112.817 404.333 113.439L398.118 114.469C397.703 114.537 397.531 114.779 397.599 115.193L401.786 140.469Z" fill="#FFF9EF"/>
</g>
</g>
<defs>
<filter id="filter0_d" x="2.68695" y="-2.86055" width="488.17" height="116.182" filterUnits="userSpaceOnUse" color-interpolation-filters="sRGB">
<feFlood flood-opacity="0" result="BackgroundImageFix"/>
<feColorMatrix in="SourceAlpha" type="matrix" values="0 0 0 0 0 0 0 0 0 0 0 0 0 0 0 0 0 0 127 0"/>
<feOffset dy="4"/>
<feGaussianBlur stdDeviation="4"/>
<feColorMatrix type="matrix" values="0 0 0 0 0 0 0 0 0 0 0 0 0 0 0 0 0 0 0.25 0"/>
<feBlend mode="normal" in2="BackgroundImageFix" result="effect1_dropShadow"/>
<feBlend mode="normal" in="SourceGraphic" in2="effect1_dropShadow" result="shape"/>
</filter>
<filter id="filter1_b" x="76.9722" y="106.42" width="348.693" height="52.7007" filterUnits="userSpaceOnUse" color-interpolation-filters="sRGB">
<feFlood flood-opacity="0" result="BackgroundImageFix"/>
<feGaussianBlur in="BackgroundImage" stdDeviation="2.5"/>
<feComposite in2="SourceAlpha" operator="in" result="effect1_backgroundBlur"/>
<feBlend mode="normal" in="SourceGraphic" in2="effect1_backgroundBlur" result="shape"/>
</filter>
<clipPath id="clip0">
<rect width="491" height="170" fill="white"/>
</clipPath>
</defs>
</svg>
