<svg width="499" height="182" viewBox="0 0 499 182" fill="none" xmlns="http://www.w3.org/2000/svg">
<g filter="url(#filter0_d)">
<path d="M66.6033 31.6205L64.2278 33.4976C63.9441 40.584 64.7721 49.4842 66.7119 60.198C67.4375 64.2493 67.9935 69.0679 68.3799 74.6539C68.7448 80.199 68.7131 85.536 68.2848 90.664C67.6873 97.551 65.5034 104.1 61.7332 110.31C58.0253 116.54 54.0666 121.155 49.857 124.154C47.9251 125.537 45.6322 126.927 42.9782 128.325C40.3242 129.723 37.3412 130.694 34.0293 131.239C28.8453 132.092 24.555 131.274 21.1583 128.786C19.6061 127.622 18.2817 125.998 17.1849 123.916C16.0881 121.834 15.3489 119.094 14.9675 115.696C14.754 113.409 15.1971 110.933 16.2967 108.267C17.3964 105.602 18.4867 103.958 19.5676 103.337C20.0361 103.038 20.3241 102.99 20.4316 103.194C20.4768 103.379 20.3189 103.723 19.958 104.226C18.931 105.445 18.0944 107.372 17.4482 110.008C16.8021 112.643 16.7072 114.988 17.1634 117.043C17.6004 119.159 18.0769 120.708 18.5931 121.688C20.163 124.669 22.228 126.658 24.7882 127.657C26.5358 128.301 28.4843 128.683 30.6337 128.803C32.783 128.923 34.8936 128.671 36.9654 128.05C40.0214 127.118 42.3661 126.222 43.9993 125.362C45.6326 124.502 46.996 123.575 48.0897 122.582C50.5436 120.507 52.6804 118.077 54.5001 115.293C56.3605 112.488 57.8395 109.701 58.937 106.932C60.0559 104.204 60.9394 101.079 61.5875 97.556C62.2763 94.012 62.7568 90.864 63.0289 88.113C63.3011 85.361 63.4398 82.159 63.4451 78.505C63.4433 72.5598 63.1372 65.8884 62.5267 58.4906C61.9673 49.6054 61.9649 41.6786 62.5194 34.7103C57.3386 38.6387 52.6363 43.7233 48.4126 49.9641C46.2707 53.1265 44.7833 56.4917 43.9505 60.0598C42.8492 64.6039 43.2341 68.652 45.1051 72.2043C46.1159 74.1234 47.35 75.3771 48.8074 75.9656C50.3057 76.533 51.5652 76.547 52.5859 76.01C53.6067 75.4719 54.6113 74.656 55.5996 73.5616C56.588 72.4673 57.2818 71.1109 57.6811 69.4923C58.2864 66.8785 57.9762 64.408 56.7503 62.0806C56.2342 61.1007 55.7472 60.5227 55.2893 60.3466C54.6273 60.278 54.4252 59.9933 54.683 59.4924C55.0031 59.0108 55.5479 58.9064 56.3174 59.1792C57.1989 59.8624 57.9622 60.8165 58.6074 62.0414C59.231 63.2255 59.5023 64.8299 59.4213 66.8546C59.2654 70.2226 58.1078 73.0751 55.9484 75.4121C54.9385 76.466 53.8824 77.283 52.78 77.863C50.9426 78.831 48.9771 79.11 46.8835 78.7C44.1881 78.138 42.1522 76.55 40.7758 73.9369C39.0338 70.6296 38.5512 66.8416 39.328 62.5727C39.8987 59.2991 40.9907 56.2725 42.604 53.493C44.2582 50.6919 46.3046 47.8928 48.7432 45.0958C52.673 40.5746 57.3325 36.3991 62.7219 32.5695C62.7818 31.4949 63.0113 30.1482 63.4106 28.5297C63.8099 26.9111 64.2824 25.8277 64.8282 25.2794C65.3739 24.7312 65.851 24.3495 66.2593 24.1345C67.6884 23.3818 68.7255 23.6179 69.3707 24.8428C69.9105 25.9667 69.913 27.0608 69.3781 28.1248C68.8217 29.1481 67.8968 30.3133 66.6033 31.6205ZM66.3729 26.5782C66.2912 26.6212 66.1999 26.6954 66.0989 26.8008C66.0387 26.8846 65.9496 27.062 65.8315 27.3328C65.7327 27.5413 65.6339 27.7498 65.535 27.9584C65.4362 28.1669 65.3289 28.4581 65.2129 28.8322C65.1378 29.1847 65.0616 29.4856 64.9843 29.7349C64.9263 29.922 64.8501 30.2229 64.7557 30.6377C64.6397 31.0118 64.5624 31.2611 64.5238 31.3858C67.083 29.4119 68.0734 27.9253 67.4949 26.9261C67.1552 26.4791 66.7812 26.3632 66.3729 26.5782Z" fill="#F1F1F1"/>
<path d="M83.8284 68.6702C83.7919 70.3667 84.1232 72.1188 84.8224 73.9265C85.289 75.1316 85.921 76 86.721 76.532C87.547 77.004 88.455 77.049 89.445 76.666C93.361 75.1511 95.489 70.0977 95.827 61.5058C95.862 60.7006 96.111 60.2578 96.575 60.1774C96.764 60.1539 96.892 60.2282 96.958 60.4004C97.025 60.5725 96.971 61.9045 96.797 64.3964C96.649 66.8286 96.33 68.8818 95.839 70.5559C94.809 74.4178 92.681 76.973 89.453 78.222C87.731 78.888 86.051 78.894 84.4131 78.241C82.7751 77.588 81.5816 76.293 80.8324 74.3565C80.0833 72.4197 79.7444 70.2004 79.8159 67.6988C79.9138 65.1375 80.401 62.6234 81.2777 60.1567C82.1377 57.647 83.4342 55.5621 85.167 53.9022C85.991 53.0889 86.854 52.5075 87.758 52.1578C88.662 51.8082 89.601 51.7419 90.576 51.9587C91.54 52.2782 92.164 52.8039 92.447 53.5356C93.446 56.118 92.854 59.1922 90.671 62.758C90.007 63.856 88.931 65.0392 87.442 66.3077C85.937 67.5331 84.7323 68.3206 83.8284 68.6702ZM90.679 54.1452C90.346 53.2844 89.835 52.9872 89.147 53.2536C87.942 53.7197 86.687 55.9121 85.382 59.8309C84.618 62.2046 84.1092 64.7269 83.8558 67.3979C84.5875 67.1149 85.542 66.4488 86.72 65.3996C87.94 64.3337 88.901 63.1706 89.601 61.9102C91.185 58.9717 91.545 56.3834 90.679 54.1452Z" fill="#F1F1F1"/>
<path d="M119.612 43.7229C117.199 54.9371 116.451 61.9965 117.368 64.901C117.729 66.0452 118.328 66.4854 119.164 66.2215C121.408 65.5131 123.221 60.7549 124.603 51.9469C124.673 51.2475 124.86 50.9221 125.166 50.9708C125.472 51.0195 125.659 51.1538 125.729 51.3739C125.798 51.5939 125.793 51.8857 125.715 52.2494C124.868 57.6944 123.916 61.5761 122.857 63.8943C121.828 66.1547 120.5 67.5419 118.872 68.0558C117.287 68.5558 115.883 68.3217 114.658 67.3534C114.037 66.9202 113.574 66.2195 113.268 65.2513C112.949 64.2391 112.787 62.9594 112.782 61.4123C112.778 59.8651 113.266 57.1947 114.246 53.4011C114.48 52.4561 114.528 51.7636 114.389 51.3235C114.236 50.8395 113.786 50.7155 113.038 50.9516C112.289 51.1877 111.172 52.6293 109.684 55.2764C107.433 59.1811 105.749 64.5032 104.634 71.2429C104.509 71.7664 104.291 72.1496 103.981 72.3928C103.7 72.578 103.083 72.8455 102.129 73.195C101.175 73.5446 100.571 73.8561 100.319 74.1293C100.578 72.4988 101.055 69.1788 101.748 64.1691C103.014 55.3009 104.045 50.1361 104.842 48.6748C105.204 47.98 105.847 47.4868 106.771 47.1951C106.947 47.1395 107.408 47.0666 108.154 46.9764C108.943 46.8723 109.5 46.7207 109.825 46.5216C108.474 47.9157 107.117 52.8928 105.754 61.4529C107.017 58.2476 108.248 55.6329 109.448 53.6088C110.679 51.5268 112.28 49.4727 114.254 47.4464C116.214 45.376 117.744 44.1673 118.844 43.82C119.108 43.7367 119.364 43.7043 119.612 43.7229Z" fill="#F1F1F1"/>
<path d="M149.469 36.3884C146.271 47.4043 145.027 54.3933 145.736 57.3553C146.016 58.5222 146.582 59.0035 147.434 58.7992C149.723 58.251 151.868 53.6327 153.868 44.9443C153.986 44.2515 154.197 43.9401 154.498 44.0103C154.8 44.0804 154.977 44.2277 155.031 44.4521C155.085 44.6765 155.059 44.9673 154.955 45.3244C153.727 50.6961 152.503 54.5009 151.283 56.7386C150.097 58.9207 148.674 60.2106 147.014 60.6084C145.398 60.9953 144.013 60.6626 142.86 59.6102C142.271 59.1343 141.859 58.4027 141.622 57.4153C141.375 56.3831 141.304 55.0952 141.408 53.5516C141.513 52.008 142.188 49.3787 143.434 45.6637C143.734 44.7376 143.831 44.0502 143.723 43.6014C143.605 43.1078 143.164 42.9523 142.401 43.135C141.638 43.3178 140.422 44.6769 138.751 47.2124C136.229 50.9483 134.174 56.1384 132.586 62.7826C132.425 63.2958 132.18 63.6628 131.854 63.8834C131.561 64.0484 130.926 64.2716 129.95 64.553C128.973 64.8343 128.349 65.1024 128.078 65.3571C128.452 63.749 129.162 60.4709 130.207 55.5227C132.096 46.7659 133.489 41.6869 134.387 40.2854C134.797 39.6179 135.473 39.1713 136.415 38.9455C136.595 38.9025 137.06 38.8624 137.81 38.825C138.605 38.7769 139.172 38.665 139.509 38.4892C138.064 39.7845 136.359 44.6535 134.395 53.096C135.881 49.9878 137.294 47.4666 138.634 45.5322C140.008 43.5423 141.751 41.6063 143.862 39.7244C145.963 37.7976 147.575 36.6998 148.697 36.4311C148.966 36.3666 149.224 36.3524 149.469 36.3884Z" fill="#F1F1F1"/>
<path d="M156.91 80.07C154.905 80.392 153.287 80.209 152.054 79.519C150.828 78.875 150.12 77.96 149.93 76.776C149.739 75.5912 149.864 74.1922 150.306 72.5786C151.117 70.0643 152.957 67.8517 155.828 65.9407C157.976 64.4732 160.886 62.9531 164.56 61.3804C168.24 59.8533 170.602 58.8422 171.644 58.3473C172.822 55.213 173.956 49.772 175.047 42.0243C173.152 47.0969 171.466 50.7102 169.99 52.8642C168.514 55.0182 166.864 56.2418 165.042 56.5351C162.582 56.9311 160.981 56.1369 160.241 54.1526C160.008 53.863 159.885 53.3919 159.874 52.7394C159.862 52.0869 159.834 51.6239 159.79 51.3506C159.792 51.0699 159.882 50.6114 160.06 49.9751C160.231 49.2932 160.339 48.8082 160.387 48.5202C160.719 47.3916 161.02 46.5019 161.289 45.8509C160.56 45.9682 160.297 45.6367 160.498 44.8564L161.343 42.2664C162.416 39.0556 163.288 36.3444 163.961 34.1328C164.262 33.1027 165.074 32.4813 166.395 32.2686L170.564 31.5977C170.488 31.7035 170.289 31.9224 169.969 32.2545C169.236 32.9332 168.724 33.67 168.431 34.465C167.246 37.5538 165.844 41.916 164.227 47.5516C163.569 49.8543 163.321 51.5068 163.483 52.5092C163.644 53.5116 163.917 54.1921 164.302 54.5508C164.732 54.9022 165.244 55.0303 165.836 54.935C166.702 54.7956 167.762 53.6901 169.018 51.6183C171.645 47.3161 174.264 40.7947 176.878 32.0541C177.225 31.0166 178.036 30.3952 179.312 30.1899L183.002 29.596C181.95 30.6067 181.184 31.805 180.706 33.1907C180.221 34.5309 179.74 36.3376 179.265 38.611C178.835 40.8771 178.291 43.886 177.633 47.6378C177.02 51.3823 176.538 54.1943 176.186 56.0739C180.263 54.1089 183.181 51.3257 184.938 47.7241C185.713 46.1504 186.745 43.4135 188.034 39.5135C188.25 38.8243 188.483 38.5297 188.733 38.6298C189.029 38.7225 189.195 38.8827 189.231 39.1105C189.268 39.3383 189.024 40.2891 188.498 41.9629C188.011 43.5837 187.487 45.1171 186.925 46.5631C186.356 47.9635 185.566 49.4461 184.556 51.0109C183.546 52.5757 182.351 53.8664 180.972 54.8829C179.601 55.945 177.735 57.1333 175.376 58.4478C172.894 65.3911 170.118 70.6522 167.048 74.2312C164.162 77.5 160.783 79.446 156.91 80.07ZM151.857 73.9416C151.518 75.0246 151.414 75.9761 151.546 76.796C151.685 77.662 152.11 78.271 152.821 78.624C153.533 78.977 154.367 79.077 155.323 78.923C157.966 78.497 160.571 76.676 163.138 73.4583C165.712 70.2862 167.889 66.9678 169.669 63.5029L170.765 60.7323C163.563 63.9013 159.052 66.0763 157.232 67.2572C154.521 69.0022 152.73 71.2303 151.857 73.9416Z" fill="#F1F1F1"/>
<path d="M237.827 22.5635L242.464 22.3968C244.402 22.385 245.697 22.7925 246.348 23.6192C246.673 23.9864 246.837 24.3546 246.839 24.7238C246.841 25.093 246.728 25.4167 246.499 25.695C245.949 26.3906 244.913 26.743 243.39 26.7523C240.76 26.7683 238.423 25.7673 236.38 23.7491C231.217 24.5651 227.311 27.3348 224.663 32.0581C222.974 35.1142 222.138 38.0959 222.156 41.0032C222.166 42.6184 222.43 44.2089 222.947 45.7748C224.497 50.1957 227.81 52.3906 232.886 52.3597C237.408 52.3322 241.321 50.7854 244.626 47.7195C247.93 44.6535 249.572 41.6208 249.554 38.6212C249.545 37.1906 248.915 36.0177 247.664 35.1023C246.458 34.1405 245.162 33.5946 243.777 33.4646C242.438 33.2882 241.284 33.2029 240.314 33.2088C239.392 33.2144 238.169 33.3372 236.648 33.5772C235.172 33.7708 233.699 34.3797 232.229 35.404C230.482 36.6145 229.615 38.2119 229.627 40.1962C229.639 42.1806 231.196 43.9709 234.298 45.5672C234.761 45.8413 234.948 46.2094 234.859 46.6714C234.815 47.087 234.631 47.2035 234.307 47.0209C231.39 45.4696 229.326 43.7054 228.114 41.7284C227.275 40.4413 226.853 39.3594 226.848 38.4826C226.843 37.6058 226.954 36.8898 227.181 36.3346C227.725 34.7161 229.101 33.3463 231.309 32.2253C233.518 31.1043 236.329 30.5333 239.744 30.5126L251.996 30.4379C254.396 30.4233 257.345 29.5978 260.842 27.9612C262.545 27.1663 263.785 26.2358 264.563 25.1696C264.929 24.6136 265.11 24.0357 265.106 23.4357C265.102 22.7897 264.96 22.2368 264.681 21.777C264.401 21.3172 264.284 20.9949 264.329 20.81C264.374 20.6251 264.489 20.5321 264.673 20.531C264.904 20.5296 265.089 20.6438 265.229 20.8737C265.882 21.9773 266.211 23.0367 266.218 24.052C266.223 25.0211 265.929 25.9228 265.334 26.7571C264.191 28.5177 262.238 29.9371 259.476 31.0154C256.714 32.0936 253.856 32.6418 250.902 32.6597C250.81 32.6603 250.695 32.661 250.556 32.6619C252.319 34.0817 253.206 35.8992 253.22 38.1143C253.239 41.2062 251.458 44.4013 247.879 47.6997C246.181 49.3252 243.997 50.6538 241.327 51.6853C238.657 52.7168 235.845 53.2416 232.891 53.2596C225.738 53.3032 220.673 51.2573 217.694 47.122C216.205 45.0544 215.454 43.0515 215.442 41.1133C215.43 39.1751 215.719 37.3736 216.309 35.7086C217.898 31.3148 221.13 27.9031 226.007 25.4737C228.814 24.0721 231.97 23.1761 235.475 22.7855C234.172 20.9936 233.512 18.7364 233.495 16.0137C233.525 13.2907 234.709 10.7222 237.048 8.30819C239.387 5.89419 242.076 4.14729 245.115 3.06729C248.2 1.94099 251.196 1.36889 254.104 1.35119C256.503 1.33659 258.537 1.80879 260.204 2.76779C261.917 3.72649 262.78 5.26719 262.793 7.38999C262.801 8.72819 262.393 9.93059 261.569 10.997C260.745 12.0173 259.802 12.5307 258.74 12.5372C257.725 12.5434 256.893 12.2485 256.243 11.6525C255.639 11.0101 255.334 10.2274 255.329 9.30449C255.323 8.38149 255.619 7.61829 256.215 7.01469C256.857 6.41079 257.594 6.10639 258.424 6.10129C258.978 6.09799 259.51 6.23319 260.019 6.50699C260.528 6.73459 260.83 7.00969 260.924 7.33209C260.968 7.05499 260.99 6.77789 260.988 6.50109C260.982 5.48579 260.562 4.70379 259.728 4.15509C258.847 3.51439 257.53 3.19939 255.776 3.21009C254.023 3.22079 251.972 3.71779 249.624 4.70119C247.277 5.63849 245.07 7.01329 243.004 8.82569C240.938 10.6381 239.314 12.8632 238.13 15.5009C237.493 16.9815 237.178 18.2987 237.185 19.4524C237.192 20.6061 237.406 21.6431 237.827 22.5635ZM245.662 24.6617C245.657 23.8311 243.947 23.4262 240.532 23.447C239.84 23.4512 239.125 23.4786 238.387 23.5292C239.502 24.9069 240.983 25.5901 242.829 25.5789C244.721 25.5674 245.666 25.2617 245.662 24.6617Z" fill="#F1F1F1"/>
<path d="M355.398 17.2161C355.703 15.63 355.266 13.9951 354.086 12.3113C352.385 9.91637 349.699 8.36588 346.028 7.65988C342.811 7.04108 339.118 7.05928 334.951 7.71448C332.772 8.04738 330.813 8.70438 329.073 9.68568C326.378 11.2351 324.839 13.0068 324.456 15.0008C323.942 17.6746 325.179 20.4032 328.168 23.1869C329.289 24.2013 331.583 25.9583 335.049 28.4579C338.57 30.9208 341.11 32.8661 342.668 34.2936C345.028 36.4393 346.528 38.537 347.167 40.5868C347.852 42.6453 348.042 44.4676 347.737 46.0537C347.301 48.3196 346.109 50.487 344.16 52.5558C340.721 56.2648 336.172 59.1494 330.512 61.2094C323.987 63.6198 316.6 64.0318 308.352 62.4455C300.421 60.9202 294.51 57.692 290.618 52.761C287.585 48.9821 286.535 44.6681 287.468 39.8192C288.061 36.7376 289.825 33.5523 292.76 30.2633C295.741 26.9831 299.01 24.8864 302.57 23.9732C303.302 23.832 303.818 23.8372 304.117 23.9889C304.463 24.1492 304.108 24.5275 303.053 25.1235C300.808 26.2895 298.918 27.6882 297.382 29.3196C294.078 32.8195 291.976 36.9033 291.079 41.571C290.486 44.6526 290.828 47.5146 292.106 50.157C294.394 54.8736 299.293 58.2359 306.802 60.2441C307.645 60.5003 308.905 60.7897 310.582 61.1122C312.304 61.4434 314.676 61.5707 317.699 61.4941C320.758 61.4715 323.782 61.0193 326.771 60.1374C333.21 58.1802 337.761 54.92 340.424 50.357C341.247 49.0114 341.789 47.6588 342.05 46.2993C342.643 43.2177 341.784 40.2328 339.473 37.3446C338.204 35.8787 335.446 33.7269 331.198 30.8892C327.005 28.0149 324.215 25.9041 322.829 24.5567C319.793 21.5291 318.584 18.4065 319.203 15.1889C319.744 12.3792 321.834 9.93818 325.476 7.86588C330.694 4.92208 337.405 4.23908 345.607 5.81668C349.459 6.55758 352.473 7.74808 354.648 9.38828C356.877 10.9919 358.042 13.0016 358.141 15.4174C358.144 15.888 358.102 16.3499 358.015 16.8031C357.675 18.5705 356.555 19.9997 354.653 21.0908C353.346 21.7792 351.688 22.2123 349.68 22.39C348.821 22.4597 348.385 22.2819 348.373 21.8566C348.396 21.2501 349.032 20.9965 350.282 21.0959C352.509 21.2423 354.055 20.4119 354.92 18.6044C355.152 18.1321 355.311 17.6693 355.398 17.2161Z" fill="#F1F1F1"/>
<path d="M381.487 55.633C380.443 56.1714 378.746 57.6153 376.396 59.9649C374.06 62.2705 372.514 64.0775 371.756 65.3857C371.057 66.6641 370.567 67.7428 370.286 68.622C370.019 69.4572 370.215 69.9801 370.874 70.1909C371.709 70.4579 372.988 70.0188 374.711 68.8737C377.23 67.208 379.944 64.8539 382.855 61.8115C383.157 61.4721 383.425 61.3155 383.659 61.3418C384.053 61.3223 384.187 61.5104 384.06 61.906C383.99 62.1258 383.84 62.3685 383.609 62.634C376.952 69.5174 372.238 72.5164 369.469 71.6312C368.194 71.2238 367.358 70.2782 366.96 68.7945C366.775 68.0086 366.859 67.0663 367.21 65.9674C367.561 64.8684 368.21 63.598 369.155 62.156C363.826 66.7024 359.887 68.5682 357.337 67.7532C356.634 67.5284 356.067 67.1049 355.636 66.4827C354.612 65.138 354.458 63.3448 355.175 61.103C356.552 56.7952 359.818 53.0186 364.974 49.7733C367.871 47.9861 370.977 47.2107 374.293 47.447C375.198 47.4942 376.025 47.6372 376.772 47.876C378.794 48.5224 380.283 49.7737 381.24 51.6299C381.525 52.254 381.51 52.7577 381.193 53.141C380.877 53.5244 380.447 53.5808 379.904 53.3102C379.926 51.5732 379.124 50.4448 377.498 49.9249C375.607 49.3207 372.8 50.0705 369.075 52.1744C366.931 53.4269 364.798 55.0222 362.676 56.9603C360.049 59.2695 358.461 61.2813 357.913 62.9956C357.365 64.7099 357.641 65.7427 358.739 66.094C361.377 66.9371 366.12 63.996 372.969 57.2708C374.324 55.9114 375.379 55.0372 376.133 54.6485C376.901 54.2157 377.725 54.1399 378.604 54.4209C378.78 54.4771 379.198 54.6835 379.86 55.0402C380.565 55.4109 381.107 55.6086 381.487 55.633Z" fill="#F1F1F1"/>
<path d="M412.136 63.4354C403.159 70.5757 398.103 75.5594 396.97 78.387C396.523 79.5 396.707 80.22 397.521 80.546C399.706 81.422 404.125 78.893 410.779 72.9594C411.277 72.4628 411.628 72.3302 411.834 72.5617C412.039 72.7933 412.099 73.0161 412.013 73.2303C411.927 73.4445 411.739 73.6671 411.447 73.8983C407.34 77.572 404.141 79.969 401.853 81.09C399.624 82.185 397.717 82.415 396.132 81.779C394.59 81.161 393.652 80.089 393.319 78.564C393.114 77.835 393.2 77 393.578 76.057C393.973 75.0722 394.659 73.9801 395.637 72.7811C396.615 71.5821 398.686 69.8269 401.85 67.5155C402.63 66.9333 403.106 66.4281 403.278 65.9997C403.467 65.5285 403.197 65.147 402.469 64.8551C401.741 64.5632 399.962 64.9689 397.133 66.0723C392.916 67.6631 388.239 70.7104 383.103 75.2141C382.674 75.5394 382.262 75.6977 381.868 75.6888C381.534 75.6543 380.887 75.4695 379.928 75.1346C378.968 74.7997 378.304 74.6578 377.935 74.7089C379.17 73.613 381.644 71.3482 385.357 67.9146C391.96 61.8608 396.033 58.5217 397.576 57.8973C398.296 57.5893 399.106 57.6156 400.006 57.9762C400.177 58.0449 400.58 58.2809 401.214 58.6841C401.89 59.1045 402.417 59.3406 402.794 59.3923C400.866 59.6136 396.66 62.6013 390.177 68.3552C393.187 66.6778 395.797 65.4371 398.008 64.6333C400.28 63.8037 402.821 63.2314 405.632 62.9164C408.46 62.5586 410.41 62.5943 411.481 63.0236C411.738 63.1266 411.956 63.2639 412.136 63.4354Z" fill="#F1F1F1"/>
<path d="M426.051 90.783C425.403 92.11 425.618 93.037 426.696 93.564C428.645 94.515 432.826 92.526 439.24 87.595C439.486 87.407 439.711 87.209 439.916 87.001C440.162 86.813 440.409 86.728 440.657 86.746C440.946 86.785 441.081 86.928 441.063 87.176C441.065 87.382 440.882 87.652 440.513 87.986C433.429 94.079 428.187 96.295 424.786 94.634C423.667 94.087 423.018 93.154 422.841 91.835C422.664 90.516 422.808 89.379 423.274 88.425C423.76 87.43 424.309 86.568 424.921 85.84C420.572 88.647 417.395 89.894 415.39 89.582C414.791 89.547 414.243 89.407 413.745 89.164C413.289 88.941 412.863 88.656 412.468 88.309C410.699 86.778 410.473 84.664 411.79 81.969C412.681 80.145 414.119 78.356 416.105 76.604C418.152 74.8307 420.522 73.3432 423.215 72.1417C425.907 70.9402 428.628 70.5743 431.377 71.044C432.39 71.1791 433.477 71.5301 434.638 72.0972C435.84 72.6845 436.985 73.7058 438.072 75.1611C443.484 71.2305 448.289 67.4914 452.487 63.9436C453.736 62.8588 454.721 62.2614 455.442 62.1515C456.225 62.0203 456.845 62.0662 457.301 62.2889C457.799 62.532 458.089 62.6737 458.172 62.7142C458.296 62.775 458.66 63.0296 459.262 63.478C459.927 63.9053 460.456 64.1893 460.849 64.3301C459.47 64.7351 454.875 67.7293 447.064 73.3127C437.1 80.464 430.789 85.394 428.131 88.101C427.129 89.101 426.436 89.995 426.051 90.783ZM437.088 75.9132C436.812 75.1109 436.177 74.4667 435.182 73.9806C434.228 73.5148 432.526 73.5823 430.076 74.183C426.163 75.1482 422.464 76.885 418.979 79.395C416.683 81.046 415.18 82.598 414.471 84.049C414.147 84.713 413.978 85.375 413.964 86.035C413.991 86.716 414.294 87.198 414.875 87.482C416.285 88.171 418.735 87.57 422.226 85.68C425.717 83.79 430.671 80.534 437.088 75.9132Z" fill="#F1F1F1"/>
<path d="M419.613 116.071C417.863 115.041 416.734 113.867 416.224 112.549C415.692 111.271 415.73 110.116 416.339 109.082C416.948 108.048 417.937 107.051 419.306 106.09C421.534 104.671 424.363 104.141 427.793 104.501C430.383 104.741 433.594 105.427 437.426 106.56C441.235 107.732 443.698 108.459 444.817 108.743C447.724 107.081 452.068 103.615 457.85 98.344C453.155 101.042 449.552 102.749 447.041 103.466C444.53 104.183 442.479 104.073 440.889 103.136C438.742 101.871 438.016 100.239 438.712 98.239C438.717 97.867 438.923 97.426 439.331 96.916C439.738 96.406 440.012 96.032 440.152 95.793C440.333 95.578 440.694 95.282 441.237 94.906C441.804 94.49 442.197 94.186 442.417 93.994C443.393 93.337 444.193 92.844 444.815 92.514C444.179 92.14 444.187 91.716 444.84 91.244L447.144 89.789C450.018 88 452.419 86.469 454.348 85.195C455.238 84.594 456.259 84.633 457.412 85.312L461.05 87.455C460.924 87.488 460.632 87.53 460.173 87.581C459.176 87.637 458.311 87.877 457.579 88.303C454.695 89.925 450.833 92.39 445.993 95.698C444.017 97.052 442.772 98.166 442.256 99.041C441.741 99.916 441.517 100.614 441.585 101.136C441.692 101.681 442.004 102.106 442.521 102.41C443.277 102.855 444.799 102.681 447.088 101.887C451.855 100.249 458.033 96.898 465.621 91.835C466.55 91.257 467.572 91.296 468.685 91.952L471.906 93.849C470.45 93.956 469.097 94.39 467.844 95.153C466.616 95.875 465.093 96.96 463.276 98.407C461.5 99.878 459.161 101.848 456.261 104.317C453.4 106.81 451.235 108.667 449.765 109.89C454.158 110.978 458.18 110.696 461.831 109.044C463.432 108.327 465.973 106.877 469.453 104.696C470.06 104.304 470.427 104.225 470.556 104.462C470.724 104.722 470.75 104.951 470.632 105.15C470.515 105.349 469.721 105.925 468.248 106.879C466.839 107.816 465.457 108.662 464.102 109.417C462.77 110.133 461.216 110.771 459.44 111.331C457.664 111.892 455.921 112.123 454.21 112.027C452.476 111.969 450.282 111.694 447.626 111.202C441.286 114.965 435.792 117.246 431.145 118.043C426.837 118.719 422.993 118.062 419.613 116.071ZM419.631 108.129C418.679 108.746 417.992 109.413 417.57 110.128C417.125 110.884 417.064 111.624 417.386 112.35C417.709 113.075 418.287 113.684 419.122 114.176C421.429 115.534 424.597 115.793 428.626 114.953C432.633 114.153 436.426 112.986 440.007 111.454L442.619 110.02C435.051 107.865 430.189 106.662 428.034 106.41C424.834 106.025 422.033 106.598 419.631 108.129Z" fill="#F1F1F1"/>
</g>
<path d="M12.353 160.843C14.4713 161.003 16.1739 161.714 17.461 162.974C18.7748 164.208 19.4318 165.749 19.4318 167.6C19.4318 169.021 19.0832 170.308 18.386 171.461C17.6889 172.614 16.7236 173.525 15.4902 174.196C14.2836 174.839 12.9295 175.161 11.428 175.161C10.5431 175.161 9.57789 175.121 8.53209 175.04C8.15679 175.013 7.71429 174.987 7.20489 174.96C6.69539 174.933 6.13229 174.92 5.51559 174.92L2.78069 174.96C2.29799 174.987 1.61429 175 0.729486 175C0.675786 175 0.648987 174.92 0.648987 174.759C0.648987 174.598 0.675786 174.517 0.729486 174.517C1.74839 174.517 2.49909 174.45 2.98179 174.316C3.46439 174.155 3.79959 173.887 3.98729 173.512C4.17499 173.136 4.26879 172.547 4.26879 171.742V153.12C4.26879 152.316 4.17499 151.726 3.98729 151.351C3.82639 150.975 3.50459 150.721 3.02199 150.586C2.53939 150.426 1.80199 150.345 0.809887 150.345C0.729487 150.345 0.689187 150.265 0.689187 150.104C0.689187 149.943 0.729487 149.862 0.809887 149.862L2.78069 149.903C3.90679 149.956 4.81849 149.983 5.51559 149.983C5.99829 149.983 6.44069 149.97 6.84289 149.943C7.27189 149.916 7.63389 149.889 7.92879 149.862C8.76009 149.782 9.53759 149.742 10.2616 149.742C12.5139 149.742 14.2032 150.238 15.3293 151.23C16.4555 152.195 17.0186 153.469 17.0186 155.051C17.0186 156.338 16.603 157.491 15.7717 158.51C14.9405 159.502 13.801 160.279 12.353 160.843ZM9.37679 150.345C8.67959 150.345 8.15679 150.399 7.80819 150.506C7.48639 150.613 7.24509 150.868 7.08419 151.27C6.92329 151.672 6.84289 152.316 6.84289 153.201V160.843L8.65279 160.883C10.6102 160.883 12.0581 160.387 12.9966 159.395C13.935 158.376 14.4043 157.035 14.4043 155.373C14.4043 153.871 13.9887 152.664 13.1574 151.753C12.353 150.814 11.0928 150.345 9.37679 150.345ZM10.8247 174.437C12.7821 174.437 14.23 173.941 15.1684 172.949C16.1337 171.93 16.6164 170.482 16.6164 168.605C16.6164 166.567 16.0131 164.918 14.8065 163.658C13.6267 162.398 11.9911 161.754 9.89959 161.727C9.04159 161.701 8.02269 161.727 6.84289 161.808V171.742C6.84289 172.439 6.93669 172.976 7.12439 173.351C7.33889 173.726 7.72769 174.008 8.29079 174.196C8.88069 174.356 9.72529 174.437 10.8247 174.437ZM37.998 169.651C37.998 169.57 38.065 169.53 38.1991 169.53C38.36 169.53 38.4404 169.57 38.4404 169.651C38.2527 171.581 38.1589 173.163 38.1589 174.397C38.1589 174.611 38.1187 174.772 38.0382 174.879C37.9578 174.96 37.7969 175 37.5556 175H22.8351C22.7814 175 22.7546 174.92 22.7546 174.759C22.7546 174.598 22.7814 174.517 22.8351 174.517C23.7199 174.517 24.3634 174.45 24.7656 174.316C25.1678 174.182 25.436 173.927 25.57 173.552C25.7309 173.15 25.8113 172.547 25.8113 171.742V159.435C25.8113 158.63 25.7309 158.041 25.57 157.665C25.436 157.29 25.1678 157.035 24.7656 156.901C24.3634 156.74 23.7199 156.66 22.8351 156.66C22.7814 156.66 22.7546 156.579 22.7546 156.418C22.7546 156.257 22.7814 156.177 22.8351 156.177H36.8316C37.0998 156.177 37.2338 156.284 37.2338 156.499L37.274 158.992C37.3009 159.502 37.3143 160.145 37.3143 160.923C37.3143 161.003 37.2338 161.044 37.0729 161.044C36.9121 161.044 36.8316 161.003 36.8316 160.923C36.7244 159.69 36.2685 158.684 35.4641 157.906C34.6866 157.102 33.7213 156.7 32.5683 156.7H31.4421C30.5037 156.7 29.8199 156.78 29.3909 156.941C28.9619 157.075 28.667 157.33 28.5061 157.705C28.3452 158.081 28.2648 158.671 28.2648 159.475V164.985C30.8657 164.958 32.6353 164.891 33.5738 164.784C34.5391 164.65 35.0888 164.583 35.2228 164.583C35.3569 164.583 35.4239 164.865 35.4239 165.428C35.4239 166.044 35.3569 166.353 35.2228 166.353C35.1156 166.353 34.5793 166.286 33.614 166.152C32.6487 165.991 30.8657 165.883 28.2648 165.83V171.581C28.2648 172.359 28.3452 172.949 28.5061 173.351C28.667 173.726 28.9619 173.994 29.3909 174.155C29.8468 174.289 30.5305 174.356 31.4421 174.356H33.3727C34.4452 174.356 35.4105 173.927 36.2685 173.069C37.1266 172.185 37.7031 171.045 37.998 169.651ZM51.1044 175.161C50.3268 175.161 49.4822 175.121 48.5705 175.04C48.2488 175.013 47.8466 174.987 47.3639 174.96C46.8813 174.933 46.3316 174.92 45.7149 174.92L43.3419 174.96C42.8861 174.987 42.2694 175 41.4918 175C41.4382 175 41.4114 174.92 41.4114 174.759C41.4114 174.598 41.4382 174.517 41.4918 174.517C42.4035 174.517 43.0604 174.45 43.4626 174.316C43.8916 174.182 44.1731 173.927 44.3072 173.552C44.4681 173.15 44.5485 172.547 44.5485 171.742V159.435C44.5485 158.63 44.4681 158.041 44.3072 157.665C44.1731 157.29 43.8916 157.035 43.4626 156.901C43.0604 156.74 42.4169 156.66 41.532 156.66C41.4784 156.66 41.4516 156.579 41.4516 156.418C41.4516 156.257 41.4784 156.177 41.532 156.177L43.3419 156.217C44.3608 156.271 45.1518 156.298 45.7149 156.298C46.5461 156.298 47.3773 156.257 48.2085 156.177C49.2811 156.123 50.0855 156.097 50.6217 156.097C52.8741 156.097 54.818 156.499 56.4536 157.303C58.0893 158.108 59.3361 159.22 60.1941 160.641C61.0521 162.063 61.4811 163.671 61.4811 165.468C61.4811 167.318 61.0387 168.98 60.1539 170.455C59.269 171.93 58.0356 173.083 56.4536 173.914C54.8985 174.745 53.1154 175.161 51.1044 175.161ZM50.6217 174.598C53.1154 174.598 55.0594 173.847 56.4536 172.345C57.8748 170.844 58.5853 168.699 58.5853 165.91C58.5853 163.229 57.8882 161.017 56.4939 159.274C55.1264 157.531 53.0618 156.66 50.3 156.66C49.0666 156.66 48.1951 156.861 47.6857 157.263C47.203 157.665 46.9617 158.416 46.9617 159.515V171.3C46.9617 172.506 47.203 173.364 47.6857 173.874C48.1951 174.356 49.1738 174.598 50.6217 174.598ZM84.783 174.517C84.8366 174.517 84.8634 174.598 84.8634 174.759C84.8634 174.92 84.8366 175 84.783 175H80.0772C79.5946 175 78.7366 174.196 77.5032 172.587C76.2966 170.978 74.8352 168.752 73.1192 165.91C72.6097 166.018 72.0332 166.071 71.3897 166.071C70.7194 166.071 70.2099 166.044 69.8614 165.991V171.742C69.8614 172.573 69.9284 173.177 70.0625 173.552C70.1965 173.927 70.4647 174.182 70.8669 174.316C71.2691 174.45 71.926 174.517 72.8376 174.517C72.8913 174.517 72.9181 174.598 72.9181 174.759C72.9181 174.92 72.8913 175 72.8376 175C72.0869 175 71.5104 174.987 71.1082 174.96L68.5743 174.92L66.2013 174.96C65.7455 174.987 65.1288 175 64.3512 175C64.2976 175 64.2708 174.92 64.2708 174.759C64.2708 174.598 64.2976 174.517 64.3512 174.517C65.2361 174.517 65.8796 174.45 66.2818 174.316C66.7108 174.182 67.0057 173.927 67.1666 173.552C67.3275 173.15 67.4079 172.547 67.4079 171.742V159.435C67.4079 158.63 67.3275 158.041 67.1666 157.665C67.0326 157.29 66.751 157.035 66.322 156.901C65.9198 156.74 65.2763 156.66 64.3914 156.66C64.3378 156.66 64.311 156.579 64.311 156.418C64.311 156.257 64.3378 156.177 64.3914 156.177L66.2416 156.217C67.2068 156.271 67.9844 156.298 68.5743 156.298C69.057 156.298 69.4994 156.284 69.9016 156.257C70.3306 156.231 70.6926 156.204 70.9875 156.177C71.8187 156.097 72.6097 156.056 73.3605 156.056C75.1034 156.056 76.4306 156.392 77.3423 157.062C78.2539 157.732 78.7098 158.697 78.7098 159.958C78.7098 161.03 78.4014 162.022 77.7847 162.934C77.168 163.846 76.3368 164.583 75.2911 165.146C76.7926 167.613 78.0528 169.517 79.0717 170.857C80.1175 172.171 81.0693 173.11 81.9274 173.673C82.8122 174.236 83.7641 174.517 84.783 174.517ZM69.8614 165.267C70.344 165.347 70.9473 165.387 71.6713 165.387C73.3337 165.387 74.4867 165.025 75.1302 164.301C75.8005 163.551 76.1357 162.465 76.1357 161.044C76.1357 158.094 74.862 156.619 72.3148 156.619C71.2959 156.619 70.6255 156.834 70.3038 157.263C70.0088 157.692 69.8614 158.443 69.8614 159.515V165.267ZM102.942 160.119C102.942 158.778 102.727 157.866 102.298 157.384C101.869 156.901 101.038 156.66 99.805 156.66C99.724 156.66 99.684 156.579 99.684 156.418C99.684 156.257 99.724 156.177 99.805 156.177L101.413 156.217C102.218 156.271 102.861 156.298 103.344 156.298C103.719 156.298 104.282 156.271 105.033 156.217L106.561 156.177C106.615 156.177 106.642 156.257 106.642 156.418C106.642 156.579 106.615 156.66 106.561 156.66C105.489 156.66 104.752 156.901 104.349 157.384C103.974 157.866 103.786 158.778 103.786 160.119V167.6C103.786 170.093 103.089 172.037 101.695 173.431C100.301 174.826 98.424 175.523 96.064 175.523C94.563 175.523 93.195 175.228 91.962 174.638C90.728 174.021 89.75 173.15 89.026 172.024C88.302 170.898 87.94 169.557 87.94 168.002V159.435C87.94 158.63 87.859 158.041 87.698 157.665C87.564 157.29 87.283 157.035 86.854 156.901C86.451 156.74 85.821 156.66 84.9633 156.66C84.8829 156.66 84.8427 156.579 84.8427 156.418C84.8427 156.257 84.8829 156.177 84.9633 156.177L86.773 156.217C87.739 156.271 88.503 156.298 89.066 156.298C89.736 156.298 90.581 156.271 91.6 156.217L93.329 156.177C93.41 156.177 93.45 156.257 93.45 156.418C93.45 156.579 93.41 156.66 93.329 156.66C92.471 156.66 91.828 156.74 91.399 156.901C90.97 157.062 90.675 157.343 90.514 157.746C90.38 158.121 90.313 158.711 90.313 159.515V166.956C90.313 169.45 90.929 171.3 92.163 172.506C93.423 173.686 95.032 174.276 96.989 174.276C98.839 174.276 100.287 173.713 101.333 172.587C102.405 171.434 102.942 169.798 102.942 167.68V160.119ZM113.203 156.7C112.184 156.7 111.38 156.847 110.79 157.142C110.2 157.41 109.73 157.88 109.382 158.55C109.06 159.22 108.805 160.172 108.618 161.406C108.618 161.459 108.537 161.486 108.376 161.486C108.242 161.486 108.175 161.459 108.175 161.406C108.256 160.789 108.35 159.797 108.457 158.429C108.564 157.062 108.618 156.016 108.618 155.292C108.618 155.158 108.698 155.091 108.859 155.091C109.02 155.091 109.1 155.158 109.1 155.292C109.1 155.641 109.301 155.869 109.704 155.976C110.106 156.056 110.602 156.097 111.192 156.097C113.551 156.15 115.576 156.177 117.265 156.177L120.764 156.137C121.247 156.11 121.877 156.097 122.655 156.097C123.62 156.097 124.33 156.043 124.786 155.936C125.242 155.802 125.537 155.534 125.671 155.131C125.725 155.051 125.818 155.011 125.953 155.011C126.087 155.011 126.154 155.051 126.154 155.131C125.993 158.027 125.912 160.119 125.912 161.406C125.912 161.459 125.832 161.486 125.671 161.486C125.537 161.486 125.47 161.459 125.47 161.406C125.443 160.199 125.296 159.261 125.027 158.59C124.786 157.92 124.371 157.437 123.781 157.142C123.191 156.847 122.373 156.7 121.327 156.7C120.174 156.7 119.41 156.888 119.035 157.263C118.659 157.612 118.472 158.336 118.472 159.435V171.742C118.472 172.573 118.552 173.177 118.713 173.552C118.874 173.927 119.182 174.182 119.638 174.316C120.094 174.45 120.845 174.517 121.89 174.517C121.971 174.517 122.011 174.598 122.011 174.759C122.011 174.92 121.971 175 121.89 175C121.059 175 120.416 174.987 119.96 174.96L117.144 174.92L114.45 174.96C113.967 174.987 113.297 175 112.439 175C112.385 175 112.358 174.92 112.358 174.759C112.358 174.598 112.385 174.517 112.439 174.517C113.458 174.517 114.208 174.45 114.691 174.316C115.174 174.182 115.495 173.927 115.656 173.552C115.844 173.15 115.938 172.547 115.938 171.742V159.354C115.938 158.577 115.871 158.014 115.737 157.665C115.629 157.29 115.388 157.035 115.013 156.901C114.637 156.767 114.034 156.7 113.203 156.7ZM150.732 174.517C150.812 174.517 150.852 174.598 150.852 174.759C150.852 174.92 150.812 175 150.732 175C149.981 175 149.378 174.987 148.922 174.96L146.509 174.92L144.055 174.96C143.626 174.987 143.036 175 142.286 175C142.205 175 142.165 174.92 142.165 174.759C142.165 174.598 142.205 174.517 142.286 174.517C143.17 174.517 143.814 174.45 144.216 174.316C144.618 174.182 144.887 173.927 145.021 173.552C145.181 173.15 145.262 172.547 145.262 171.742V165.87H134V171.742C134 172.573 134.067 173.177 134.201 173.552C134.362 173.927 134.644 174.182 135.046 174.316C135.448 174.45 136.105 174.517 137.017 174.517C137.07 174.517 137.097 174.598 137.097 174.759C137.097 174.92 137.07 175 137.017 175C136.266 175 135.676 174.987 135.247 174.96L132.753 174.92L130.381 174.96C129.925 174.987 129.308 175 128.53 175C128.477 175 128.45 174.92 128.45 174.759C128.45 174.598 128.477 174.517 128.53 174.517C129.415 174.517 130.059 174.45 130.461 174.316C130.89 174.182 131.185 173.927 131.346 173.552C131.507 173.15 131.587 172.547 131.587 171.742V159.435C131.587 158.63 131.507 158.041 131.346 157.665C131.212 157.29 130.93 157.035 130.501 156.901C130.099 156.74 129.455 156.66 128.571 156.66C128.517 156.66 128.49 156.579 128.49 156.418C128.49 156.257 128.517 156.177 128.571 156.177L130.381 156.217C131.399 156.271 132.19 156.298 132.753 156.298C133.424 156.298 134.268 156.271 135.287 156.217L137.017 156.177C137.07 156.177 137.097 156.257 137.097 156.418C137.097 156.579 137.07 156.66 137.017 156.66C136.159 156.66 135.515 156.74 135.086 156.901C134.657 157.062 134.362 157.343 134.201 157.746C134.067 158.121 134 158.711 134 159.515V165.146H145.262V159.515C145.262 158.711 145.181 158.121 145.021 157.746C144.887 157.343 144.605 157.062 144.176 156.901C143.774 156.74 143.144 156.66 142.286 156.66C142.205 156.66 142.165 156.579 142.165 156.418C142.165 156.257 142.205 156.177 142.286 156.177L144.055 156.217C145.021 156.271 145.838 156.298 146.509 156.298C147.099 156.298 147.903 156.271 148.922 156.217L150.732 156.177C150.812 156.177 150.852 156.257 150.852 156.418C150.852 156.579 150.812 156.66 150.732 156.66C149.847 156.66 149.19 156.74 148.761 156.901C148.359 157.035 148.077 157.29 147.916 157.665C147.756 158.041 147.675 158.63 147.675 159.435V171.742C147.675 172.547 147.756 173.15 147.916 173.552C148.077 173.927 148.359 174.182 148.761 174.316C149.19 174.45 149.847 174.517 150.732 174.517ZM174.505 174.517C174.612 174.517 174.666 174.598 174.666 174.759C174.666 174.92 174.612 175 174.505 175C174.022 175 173.244 174.973 172.172 174.92C171.099 174.866 170.322 174.839 169.839 174.839C169.41 174.839 168.847 174.866 168.15 174.92C167.453 174.973 166.917 175 166.541 175C166.434 175 166.38 174.92 166.38 174.759C166.38 174.598 166.434 174.517 166.541 174.517C167.238 174.517 167.748 174.437 168.069 174.276C168.418 174.088 168.592 173.767 168.592 173.311C168.592 172.909 168.431 172.345 168.11 171.622L165.375 165.749H159.744L158.014 170.053C157.585 171.072 157.371 171.916 157.371 172.587C157.371 173.284 157.612 173.78 158.095 174.075C158.578 174.37 159.315 174.517 160.307 174.517C160.441 174.517 160.508 174.598 160.508 174.759C160.508 174.92 160.441 175 160.307 175C159.905 175 159.355 174.973 158.658 174.92C157.907 174.866 157.21 174.839 156.567 174.839C155.896 174.839 155.105 174.866 154.194 174.92C153.389 174.973 152.746 175 152.263 175C152.129 175 152.062 174.92 152.062 174.759C152.062 174.598 152.129 174.517 152.263 174.517C153.094 174.517 153.751 174.41 154.234 174.196C154.716 173.954 155.159 173.498 155.561 172.828C155.99 172.158 156.5 171.112 157.089 169.691L162.881 155.574C162.935 155.466 163.015 155.413 163.122 155.413C163.23 155.413 163.297 155.466 163.324 155.574L169.799 169.49C170.496 170.991 171.046 172.077 171.448 172.748C171.877 173.418 172.306 173.887 172.735 174.155C173.191 174.397 173.781 174.517 174.505 174.517ZM160.025 165.025H165.053L162.358 159.234L160.025 165.025ZM196.328 156.177C196.408 156.177 196.448 156.257 196.448 156.418C196.448 156.579 196.408 156.66 196.328 156.66C195.336 156.66 194.625 156.955 194.196 157.545C193.767 158.134 193.553 159.14 193.553 160.561V175.442C193.553 175.496 193.486 175.536 193.352 175.563C193.217 175.59 193.124 175.576 193.07 175.523L179.878 159.475C179.744 159.341 179.569 159.14 179.355 158.872V170.616C179.355 172.037 179.556 173.043 179.958 173.633C180.36 174.222 181.058 174.517 182.05 174.517C182.103 174.517 182.13 174.598 182.13 174.759C182.13 174.92 182.103 175 182.05 175C181.46 175 181.004 174.987 180.682 174.96L178.993 174.92L177.264 174.96C176.915 174.987 176.432 175 175.816 175C175.762 175 175.735 174.92 175.735 174.759C175.735 174.598 175.762 174.517 175.816 174.517C176.808 174.517 177.505 174.222 177.907 173.633C178.336 173.043 178.551 172.037 178.551 170.616V158.067C178.014 157.558 177.532 157.196 177.103 156.981C176.674 156.767 176.245 156.66 175.816 156.66C175.762 156.66 175.735 156.579 175.735 156.418C175.735 156.257 175.762 156.177 175.816 156.177L178.068 156.217L180.2 156.177C180.387 156.177 180.535 156.231 180.642 156.338C180.776 156.445 180.964 156.673 181.205 157.022C181.42 157.37 181.715 157.786 182.09 158.268L192.748 171.42V160.561C192.748 159.14 192.547 158.134 192.145 157.545C191.77 156.955 191.086 156.66 190.094 156.66C190.013 156.66 189.973 156.579 189.973 156.418C189.973 156.257 190.013 156.177 190.094 156.177L191.461 156.217C192.158 156.271 192.721 156.298 193.15 156.298C193.579 156.298 194.169 156.271 194.92 156.217L196.328 156.177ZM212.805 154.568C212.805 155.614 213.06 156.526 213.57 157.303C214.079 158.081 214.696 158.738 215.42 159.274C216.144 159.783 217.163 160.44 218.476 161.245C219.871 162.076 220.957 162.773 221.734 163.336C222.512 163.899 223.169 164.623 223.705 165.508C224.268 166.366 224.55 167.398 224.55 168.605C224.55 169.892 224.228 171.058 223.584 172.104C222.941 173.15 221.989 173.981 220.729 174.598C219.495 175.188 218.007 175.483 216.264 175.483C214.2 175.483 212.309 175.013 210.593 174.075C210.459 173.994 210.365 173.901 210.312 173.793C210.285 173.686 210.258 173.525 210.231 173.311L209.709 167.841C209.682 167.734 209.735 167.667 209.869 167.64C210.03 167.613 210.124 167.653 210.151 167.76C210.58 169.691 211.371 171.353 212.524 172.748C213.704 174.142 215.259 174.839 217.189 174.839C218.53 174.839 219.656 174.477 220.568 173.753C221.506 173.002 221.976 171.823 221.976 170.214C221.976 169.007 221.707 167.961 221.171 167.077C220.635 166.192 219.978 165.468 219.2 164.905C218.45 164.315 217.417 163.631 216.103 162.854C214.816 162.076 213.798 161.406 213.047 160.843C212.323 160.279 211.706 159.569 211.197 158.711C210.687 157.853 210.432 156.847 210.432 155.694C210.432 154.354 210.781 153.214 211.478 152.276C212.202 151.31 213.127 150.6 214.253 150.144C215.406 149.661 216.626 149.42 217.913 149.42C219.495 149.42 221.064 149.742 222.619 150.385C223.021 150.519 223.222 150.747 223.222 151.069L223.504 155.694C223.504 155.802 223.437 155.855 223.303 155.855C223.169 155.855 223.088 155.802 223.062 155.694C222.847 154.3 222.271 153.013 221.332 151.833C220.394 150.627 219.04 150.023 217.27 150.023C215.768 150.023 214.642 150.466 213.891 151.351C213.167 152.209 212.805 153.281 212.805 154.568ZM232.763 156.7C231.744 156.7 230.94 156.847 230.35 157.142C229.76 157.41 229.291 157.88 228.942 158.55C228.62 159.22 228.366 160.172 228.178 161.406C228.178 161.459 228.098 161.486 227.937 161.486C227.803 161.486 227.736 161.459 227.736 161.406C227.816 160.789 227.91 159.797 228.017 158.429C228.124 157.062 228.178 156.016 228.178 155.292C228.178 155.158 228.258 155.091 228.419 155.091C228.58 155.091 228.661 155.158 228.661 155.292C228.661 155.641 228.862 155.869 229.264 155.976C229.666 156.056 230.162 156.097 230.752 156.097C233.112 156.15 235.136 156.177 236.825 156.177L240.324 156.137C240.807 156.11 241.437 156.097 242.215 156.097C243.18 156.097 243.891 156.043 244.346 155.936C244.802 155.802 245.097 155.534 245.231 155.131C245.285 155.051 245.379 155.011 245.513 155.011C245.647 155.011 245.714 155.051 245.714 155.131C245.553 158.027 245.473 160.119 245.473 161.406C245.473 161.459 245.392 161.486 245.231 161.486C245.097 161.486 245.03 161.459 245.03 161.406C245.003 160.199 244.856 159.261 244.588 158.59C244.346 157.92 243.931 157.437 243.341 157.142C242.751 156.847 241.933 156.7 240.887 156.7C239.735 156.7 238.97 156.888 238.595 157.263C238.22 157.612 238.032 158.336 238.032 159.435V171.742C238.032 172.573 238.112 173.177 238.273 173.552C238.434 173.927 238.742 174.182 239.198 174.316C239.654 174.45 240.405 174.517 241.451 174.517C241.531 174.517 241.571 174.598 241.571 174.759C241.571 174.92 241.531 175 241.451 175C240.619 175 239.976 174.987 239.52 174.96L236.705 174.92L234.01 174.96C233.527 174.987 232.857 175 231.999 175C231.945 175 231.918 174.92 231.918 174.759C231.918 174.598 231.945 174.517 231.999 174.517C233.018 174.517 233.769 174.45 234.251 174.316C234.734 174.182 235.056 173.927 235.216 173.552C235.404 173.15 235.498 172.547 235.498 171.742V159.354C235.498 158.577 235.431 158.014 235.297 157.665C235.19 157.29 234.948 157.035 234.573 156.901C234.198 156.767 233.594 156.7 232.763 156.7ZM263.254 169.651C263.254 169.57 263.321 169.53 263.455 169.53C263.616 169.53 263.696 169.57 263.696 169.651C263.508 171.581 263.414 173.163 263.414 174.397C263.414 174.611 263.374 174.772 263.294 174.879C263.213 174.96 263.052 175 262.811 175H248.091C248.037 175 248.01 174.92 248.01 174.759C248.01 174.598 248.037 174.517 248.091 174.517C248.975 174.517 249.619 174.45 250.021 174.316C250.423 174.182 250.692 173.927 250.826 173.552C250.986 173.15 251.067 172.547 251.067 171.742V159.435C251.067 158.63 250.986 158.041 250.826 157.665C250.692 157.29 250.423 157.035 250.021 156.901C249.619 156.74 248.975 156.66 248.091 156.66C248.037 156.66 248.01 156.579 248.01 156.418C248.01 156.257 248.037 156.177 248.091 156.177H262.087C262.355 156.177 262.489 156.284 262.489 156.499L262.53 158.992C262.556 159.502 262.57 160.145 262.57 160.923C262.57 161.003 262.489 161.044 262.329 161.044C262.168 161.044 262.087 161.003 262.087 160.923C261.98 159.69 261.524 158.684 260.72 157.906C259.942 157.102 258.977 156.7 257.824 156.7H256.698C255.759 156.7 255.076 156.78 254.646 156.941C254.217 157.075 253.923 157.33 253.762 157.705C253.601 158.081 253.52 158.671 253.52 159.475V164.985C256.121 164.958 257.891 164.891 258.829 164.784C259.795 164.65 260.344 164.583 260.478 164.583C260.612 164.583 260.679 164.865 260.679 165.428C260.679 166.044 260.612 166.353 260.478 166.353C260.371 166.353 259.835 166.286 258.87 166.152C257.904 165.991 256.121 165.883 253.52 165.83V171.581C253.52 172.359 253.601 172.949 253.762 173.351C253.923 173.726 254.217 173.994 254.646 174.155C255.102 174.289 255.786 174.356 256.698 174.356H258.628C259.701 174.356 260.666 173.927 261.524 173.069C262.382 172.185 262.959 171.045 263.254 169.651ZM272.177 171.581C272.177 172.439 272.271 173.069 272.459 173.472C272.646 173.847 273.008 174.115 273.545 174.276C274.108 174.437 274.979 174.517 276.159 174.517C276.239 174.517 276.28 174.598 276.28 174.759C276.28 174.92 276.239 175 276.159 175C275.194 175 274.456 174.987 273.947 174.96L270.97 174.92L268.597 174.96C268.142 174.987 267.525 175 266.747 175C266.694 175 266.667 174.92 266.667 174.759C266.667 174.598 266.694 174.517 266.747 174.517C267.632 174.517 268.276 174.45 268.678 174.316C269.08 174.182 269.348 173.927 269.482 173.552C269.643 173.15 269.724 172.547 269.724 171.742V159.435C269.724 158.63 269.643 158.041 269.482 157.665C269.348 157.29 269.067 157.035 268.638 156.901C268.236 156.74 267.605 156.66 266.747 156.66C266.694 156.66 266.667 156.579 266.667 156.418C266.667 156.257 266.694 156.177 266.747 156.177L268.557 156.217C269.576 156.271 270.367 156.298 270.93 156.298C271.386 156.298 271.815 156.284 272.217 156.257C272.646 156.231 273.008 156.204 273.303 156.177C274.134 156.097 274.912 156.056 275.636 156.056C280.06 156.056 282.272 157.692 282.272 160.963C282.272 162.25 281.937 163.336 281.267 164.221C280.623 165.079 279.792 165.723 278.773 166.152C277.781 166.581 276.749 166.795 275.676 166.795C274.952 166.795 274.362 166.741 273.907 166.634C273.853 166.634 273.826 166.567 273.826 166.433C273.826 166.219 273.893 166.111 274.027 166.111C274.429 166.192 274.845 166.232 275.274 166.232C276.454 166.232 277.446 165.857 278.25 165.106C279.081 164.328 279.497 163.216 279.497 161.768C279.497 160.078 279.055 158.805 278.17 157.947C277.312 157.062 276.145 156.619 274.671 156.619C274 156.619 273.491 156.673 273.142 156.78C272.821 156.888 272.579 157.142 272.418 157.545C272.258 157.947 272.177 158.604 272.177 159.515V171.581ZM288.664 159.435C288.664 160.239 288.865 160.95 289.267 161.567C289.696 162.156 290.219 162.652 290.836 163.055C291.452 163.457 292.27 163.926 293.289 164.462C294.388 165.052 295.273 165.575 295.944 166.031C296.614 166.46 297.177 167.01 297.633 167.68C298.089 168.35 298.317 169.155 298.317 170.093C298.317 171.085 298.035 171.997 297.472 172.828C296.936 173.633 296.158 174.276 295.139 174.759C294.12 175.241 292.927 175.483 291.56 175.483C289.602 175.483 287.98 175.013 286.693 174.075C286.559 174.021 286.465 173.941 286.411 173.834C286.385 173.726 286.358 173.552 286.331 173.311L285.929 169.329C285.902 169.222 285.956 169.155 286.09 169.128C286.251 169.101 286.358 169.141 286.411 169.249C286.787 170.804 287.524 172.131 288.624 173.23C289.75 174.303 290.997 174.839 292.364 174.839C293.303 174.839 294.107 174.571 294.777 174.035C295.474 173.472 295.823 172.614 295.823 171.461C295.823 170.227 295.421 169.222 294.616 168.444C293.812 167.667 292.646 166.876 291.117 166.071C290.045 165.481 289.187 164.972 288.543 164.543C287.926 164.087 287.404 163.537 286.975 162.894C286.546 162.25 286.331 161.473 286.331 160.561C286.331 159.033 286.921 157.839 288.101 156.981C289.281 156.123 290.715 155.694 292.404 155.694C293.825 155.694 295.166 156.003 296.426 156.619C296.668 156.754 296.815 156.861 296.869 156.941C296.949 156.995 297.003 157.116 297.03 157.303L297.311 160.802C297.311 160.91 297.231 160.977 297.07 161.003C296.936 161.03 296.855 160.99 296.828 160.883C296.694 160.212 296.386 159.529 295.903 158.832C295.448 158.108 294.844 157.504 294.094 157.022C293.37 156.539 292.565 156.298 291.68 156.298C290.715 156.298 289.964 156.593 289.428 157.183C288.919 157.772 288.664 158.523 288.664 159.435ZM303.81 172.144C304.614 172.144 305.244 172.453 305.7 173.069C306.156 173.659 306.384 174.517 306.384 175.644C306.384 176.716 306.143 177.708 305.66 178.62C305.177 179.558 304.467 180.483 303.528 181.395C303.501 181.422 303.461 181.435 303.408 181.435C303.327 181.435 303.26 181.395 303.206 181.315C303.153 181.234 303.153 181.167 303.206 181.113C304.52 179.773 305.177 178.191 305.177 176.367C305.177 175.617 305.043 175.067 304.775 174.718C304.534 175.121 304.118 175.322 303.528 175.322C303.046 175.322 302.657 175.174 302.362 174.879C302.094 174.584 301.96 174.209 301.96 173.753C301.96 172.681 302.576 172.144 303.81 172.144ZM334.741 149.42C336.028 149.42 337.329 149.541 338.643 149.782C339.956 150.023 341.002 150.372 341.78 150.828C342.021 150.935 342.168 151.056 342.222 151.19C342.303 151.297 342.356 151.498 342.383 151.793L342.825 156.298C342.825 156.378 342.758 156.432 342.624 156.459C342.49 156.459 342.41 156.418 342.383 156.338C341.793 154.273 340.694 152.758 339.085 151.793C337.503 150.801 335.532 150.305 333.173 150.305C331.135 150.305 329.352 150.761 327.823 151.672C326.295 152.557 325.115 153.817 324.284 155.453C323.453 157.089 323.037 158.979 323.037 161.124C323.037 163.618 323.547 165.924 324.566 168.042C325.611 170.16 327.006 171.836 328.748 173.069C330.518 174.303 332.422 174.92 334.46 174.92C336.39 174.92 338.066 174.397 339.487 173.351C340.908 172.278 341.994 170.643 342.745 168.444C342.745 168.364 342.799 168.323 342.906 168.323C342.986 168.323 343.053 168.337 343.107 168.364C343.187 168.391 343.228 168.431 343.228 168.484L342.665 173.029C342.611 173.351 342.544 173.565 342.463 173.673C342.41 173.753 342.262 173.847 342.021 173.954C339.608 174.973 337.061 175.483 334.379 175.483C331.162 175.483 328.467 174.839 326.295 173.552C324.15 172.238 322.568 170.576 321.549 168.565C320.53 166.554 320.021 164.436 320.021 162.21C320.021 159.743 320.704 157.531 322.072 155.574C323.439 153.616 325.249 152.101 327.502 151.029C329.754 149.956 332.167 149.42 334.741 149.42ZM356.015 175.483C354.138 175.483 352.463 175.04 350.988 174.155C349.54 173.271 348.414 172.077 347.609 170.576C346.805 169.074 346.403 167.452 346.403 165.709C346.403 163.618 346.939 161.821 348.012 160.32C349.111 158.791 350.492 157.638 352.154 156.861C353.843 156.083 355.56 155.694 357.302 155.694C359.179 155.694 360.828 156.164 362.249 157.102C363.697 158.014 364.797 159.207 365.548 160.682C366.325 162.156 366.714 163.698 366.714 165.307C366.714 167.103 366.231 168.793 365.266 170.375C364.301 171.93 363 173.177 361.365 174.115C359.729 175.027 357.946 175.483 356.015 175.483ZM357.061 174.638C359.153 174.638 360.815 173.901 362.048 172.426C363.309 170.951 363.939 168.913 363.939 166.312C363.939 164.516 363.617 162.88 362.973 161.406C362.357 159.931 361.445 158.751 360.238 157.866C359.032 156.981 357.597 156.539 355.935 156.539C353.79 156.539 352.127 157.263 350.948 158.711C349.768 160.132 349.178 162.13 349.178 164.704C349.178 166.554 349.486 168.23 350.103 169.731C350.747 171.233 351.658 172.426 352.838 173.311C354.045 174.196 355.452 174.638 357.061 174.638ZM390.007 174.517C390.061 174.517 390.088 174.598 390.088 174.759C390.088 174.92 390.061 175 390.007 175H385.301C384.819 175 383.961 174.196 382.727 172.587C381.521 170.978 380.059 168.752 378.343 165.91C377.834 166.018 377.257 166.071 376.614 166.071C375.944 166.071 375.434 166.044 375.086 165.991V171.742C375.086 172.573 375.153 173.177 375.287 173.552C375.421 173.927 375.689 174.182 376.091 174.316C376.493 174.45 377.15 174.517 378.062 174.517C378.116 174.517 378.142 174.598 378.142 174.759C378.142 174.92 378.116 175 378.062 175C377.311 175 376.735 174.987 376.332 174.96L373.799 174.92L371.426 174.96C370.97 174.987 370.353 175 369.575 175C369.522 175 369.495 174.92 369.495 174.759C369.495 174.598 369.522 174.517 369.575 174.517C370.46 174.517 371.104 174.45 371.506 174.316C371.935 174.182 372.23 173.927 372.391 173.552C372.552 173.15 372.632 172.547 372.632 171.742V159.435C372.632 158.63 372.552 158.041 372.391 157.665C372.257 157.29 371.975 157.035 371.546 156.901C371.144 156.74 370.501 156.66 369.616 156.66C369.562 156.66 369.535 156.579 369.535 156.418C369.535 156.257 369.562 156.177 369.616 156.177L371.466 156.217C372.431 156.271 373.209 156.298 373.799 156.298C374.281 156.298 374.724 156.284 375.126 156.257C375.555 156.231 375.917 156.204 376.212 156.177C377.043 156.097 377.834 156.056 378.585 156.056C380.328 156.056 381.655 156.392 382.567 157.062C383.478 157.732 383.934 158.697 383.934 159.958C383.934 161.03 383.626 162.022 383.009 162.934C382.392 163.846 381.561 164.583 380.515 165.146C382.017 167.613 383.277 169.517 384.296 170.857C385.342 172.171 386.294 173.11 387.152 173.673C388.036 174.236 388.988 174.517 390.007 174.517ZM375.086 165.267C375.568 165.347 376.172 165.387 376.895 165.387C378.558 165.387 379.711 165.025 380.354 164.301C381.025 163.551 381.36 162.465 381.36 161.044C381.36 158.094 380.086 156.619 377.539 156.619C376.52 156.619 375.85 156.834 375.528 157.263C375.233 157.692 375.086 158.443 375.086 159.515V165.267ZM411.332 156.177C411.412 156.177 411.453 156.257 411.453 156.418C411.453 156.579 411.412 156.66 411.332 156.66C410.34 156.66 409.629 156.955 409.2 157.545C408.771 158.134 408.557 159.14 408.557 160.561V175.442C408.557 175.496 408.49 175.536 408.356 175.563C408.222 175.59 408.128 175.576 408.074 175.523L394.882 159.475C394.748 159.341 394.574 159.14 394.359 158.872V170.616C394.359 172.037 394.56 173.043 394.962 173.633C395.365 174.222 396.062 174.517 397.054 174.517C397.108 174.517 397.134 174.598 397.134 174.759C397.134 174.92 397.108 175 397.054 175C396.464 175 396.008 174.987 395.686 174.96L393.997 174.92L392.268 174.96C391.919 174.987 391.436 175 390.82 175C390.766 175 390.739 174.92 390.739 174.759C390.739 174.598 390.766 174.517 390.82 174.517C391.812 174.517 392.509 174.222 392.911 173.633C393.34 173.043 393.555 172.037 393.555 170.616V158.067C393.018 157.558 392.536 157.196 392.107 156.981C391.678 156.767 391.249 156.66 390.82 156.66C390.766 156.66 390.739 156.579 390.739 156.418C390.739 156.257 390.766 156.177 390.82 156.177L393.072 156.217L395.204 156.177C395.391 156.177 395.539 156.231 395.646 156.338C395.78 156.445 395.968 156.673 396.209 157.022C396.424 157.37 396.719 157.786 397.094 158.268L407.752 171.42V160.561C407.752 159.14 407.551 158.134 407.149 157.545C406.774 156.955 406.09 156.66 405.098 156.66C405.017 156.66 404.977 156.579 404.977 156.418C404.977 156.257 405.017 156.177 405.098 156.177L406.465 156.217C407.163 156.271 407.726 156.298 408.155 156.298C408.584 156.298 409.174 156.271 409.924 156.217L411.332 156.177ZM441.67 156.177C441.751 156.177 441.791 156.257 441.791 156.418C441.791 156.579 441.751 156.66 441.67 156.66C440.866 156.66 440.182 156.888 439.619 157.343C439.056 157.799 438.533 158.617 438.051 159.797L432.058 174.96C432.031 175.067 431.884 175.121 431.615 175.121C431.347 175.121 431.2 175.067 431.173 174.96L427.151 166.514L423.732 174.96C423.705 175.067 423.558 175.121 423.29 175.121C423.022 175.121 422.874 175.067 422.847 174.96L415.527 159.515C414.991 158.389 414.522 157.638 414.12 157.263C413.718 156.861 413.168 156.66 412.471 156.66C412.39 156.66 412.35 156.579 412.35 156.418C412.35 156.257 412.39 156.177 412.471 156.177L414.039 156.217C414.736 156.271 415.246 156.298 415.568 156.298C416.131 156.298 416.788 156.271 417.538 156.217L418.665 156.177C418.718 156.177 418.745 156.257 418.745 156.418C418.745 156.579 418.718 156.66 418.665 156.66C418.343 156.66 418.075 156.754 417.86 156.941C417.672 157.102 417.579 157.357 417.579 157.705C417.579 158.081 417.713 158.55 417.981 159.113L424.255 171.943L426.709 165.589L423.853 159.515C423.29 158.336 422.847 157.571 422.526 157.223C422.204 156.847 421.735 156.66 421.118 156.66C421.064 156.66 421.038 156.579 421.038 156.418C421.038 156.257 421.064 156.177 421.118 156.177L422.445 156.217C423.089 156.271 423.598 156.298 423.974 156.298C424.429 156.298 424.952 156.271 425.542 156.217L426.507 156.177C426.561 156.177 426.588 156.257 426.588 156.418C426.588 156.579 426.561 156.66 426.507 156.66C426.159 156.66 425.904 156.686 425.743 156.74C425.609 156.794 425.542 156.914 425.542 157.102C425.542 157.397 425.797 158.067 426.306 159.113L428.157 162.934L429.484 159.354C429.806 158.496 429.966 157.866 429.966 157.464C429.966 157.169 429.886 156.968 429.725 156.861C429.564 156.727 429.309 156.66 428.961 156.66C428.88 156.66 428.84 156.579 428.84 156.418C428.84 156.257 428.88 156.177 428.961 156.177C429.202 156.177 429.497 156.204 429.846 156.257C430.194 156.284 430.516 156.298 430.811 156.298C431.294 156.298 431.83 156.271 432.42 156.217L433.787 156.177C433.868 156.177 433.908 156.257 433.908 156.418C433.908 156.579 433.868 156.66 433.787 156.66C432.956 156.66 432.272 156.861 431.736 157.263C431.2 157.665 430.704 158.443 430.248 159.596L428.599 163.819L432.54 171.983L437.206 159.596C437.421 159.059 437.528 158.55 437.528 158.067C437.528 157.129 436.965 156.66 435.839 156.66C435.785 156.66 435.758 156.579 435.758 156.418C435.758 156.257 435.785 156.177 435.839 156.177L436.965 156.217C437.501 156.271 438.01 156.298 438.493 156.298C438.976 156.298 439.539 156.271 440.182 156.217L441.67 156.177ZM461.347 174.517C461.454 174.517 461.508 174.598 461.508 174.759C461.508 174.92 461.454 175 461.347 175C460.864 175 460.087 174.973 459.014 174.92C457.942 174.866 457.164 174.839 456.682 174.839C456.253 174.839 455.69 174.866 454.992 174.92C454.295 174.973 453.759 175 453.384 175C453.276 175 453.223 174.92 453.223 174.759C453.223 174.598 453.276 174.517 453.384 174.517C454.081 174.517 454.59 174.437 454.912 174.276C455.26 174.088 455.435 173.767 455.435 173.311C455.435 172.909 455.274 172.345 454.952 171.622L452.217 165.749H446.586L444.857 170.053C444.428 171.072 444.213 171.916 444.213 172.587C444.213 173.284 444.455 173.78 444.937 174.075C445.42 174.37 446.157 174.517 447.149 174.517C447.284 174.517 447.351 174.598 447.351 174.759C447.351 174.92 447.284 175 447.149 175C446.747 175 446.198 174.973 445.5 174.92C444.75 174.866 444.053 174.839 443.409 174.839C442.739 174.839 441.948 174.866 441.036 174.92C440.232 174.973 439.588 175 439.105 175C438.971 175 438.904 174.92 438.904 174.759C438.904 174.598 438.971 174.517 439.105 174.517C439.937 174.517 440.594 174.41 441.076 174.196C441.559 173.954 442.001 173.498 442.404 172.828C442.833 172.158 443.342 171.112 443.932 169.691L449.724 155.574C449.777 155.466 449.858 155.413 449.965 155.413C450.072 155.413 450.139 155.466 450.166 155.574L456.641 169.49C457.339 170.991 457.888 172.077 458.29 172.748C458.719 173.418 459.148 173.887 459.577 174.155C460.033 174.397 460.623 174.517 461.347 174.517ZM446.868 165.025H451.895L449.201 159.234L446.868 165.025ZM468.289 171.581C468.289 172.359 468.356 172.935 468.49 173.311C468.651 173.686 468.932 173.954 469.335 174.115C469.764 174.276 470.394 174.356 471.225 174.356H473.879C475.301 174.356 476.427 173.914 477.258 173.029C478.116 172.144 478.692 170.924 478.987 169.369C478.987 169.316 479.041 169.289 479.148 169.289C479.229 169.289 479.296 169.302 479.349 169.329C479.43 169.356 479.47 169.396 479.47 169.45C479.282 170.683 479.188 172.332 479.188 174.397C479.188 174.611 479.135 174.772 479.028 174.879C478.947 174.96 478.8 175 478.585 175H462.859C462.806 175 462.779 174.92 462.779 174.759C462.779 174.598 462.806 174.517 462.859 174.517C463.744 174.517 464.388 174.45 464.79 174.316C465.192 174.182 465.46 173.927 465.594 173.552C465.728 173.15 465.795 172.547 465.795 171.742V159.435C465.795 158.63 465.715 158.041 465.554 157.665C465.42 157.29 465.152 157.035 464.749 156.901C464.347 156.74 463.717 156.66 462.859 156.66C462.806 156.66 462.779 156.579 462.779 156.418C462.779 156.257 462.806 156.177 462.859 156.177L464.669 156.217C465.688 156.271 466.479 156.298 467.042 156.298C467.712 156.298 468.557 156.271 469.576 156.217L471.265 156.177C471.346 156.177 471.386 156.257 471.386 156.418C471.386 156.579 471.346 156.66 471.265 156.66C470.38 156.66 469.737 156.74 469.335 156.901C468.932 157.035 468.651 157.303 468.49 157.705C468.356 158.081 468.289 158.671 468.289 159.475V171.581ZM486.906 171.581C486.906 172.359 486.973 172.935 487.107 173.311C487.268 173.686 487.55 173.954 487.952 174.115C488.381 174.276 489.011 174.356 489.842 174.356H492.497C493.918 174.356 495.044 173.914 495.875 173.029C496.733 172.144 497.31 170.924 497.605 169.369C497.605 169.316 497.658 169.289 497.766 169.289C497.846 169.289 497.913 169.302 497.967 169.329C498.047 169.356 498.087 169.396 498.087 169.45C497.9 170.683 497.806 172.332 497.806 174.397C497.806 174.611 497.752 174.772 497.645 174.879C497.565 174.96 497.417 175 497.203 175H481.477C481.423 175 481.396 174.92 481.396 174.759C481.396 174.598 481.423 174.517 481.477 174.517C482.361 174.517 483.005 174.45 483.407 174.316C483.809 174.182 484.078 173.927 484.212 173.552C484.346 173.15 484.413 172.547 484.413 171.742V159.435C484.413 158.63 484.332 158.041 484.171 157.665C484.037 157.29 483.769 157.035 483.367 156.901C482.965 156.74 482.335 156.66 481.477 156.66C481.423 156.66 481.396 156.579 481.396 156.418C481.396 156.257 481.423 156.177 481.477 156.177L483.287 156.217C484.305 156.271 485.096 156.298 485.659 156.298C486.33 156.298 487.174 156.271 488.193 156.217L489.883 156.177C489.963 156.177 490.003 156.257 490.003 156.418C490.003 156.579 489.963 156.66 489.883 156.66C488.998 156.66 488.354 156.74 487.952 156.901C487.55 157.035 487.268 157.303 487.107 157.705C486.973 158.081 486.906 158.671 486.906 159.475V171.581Z" fill="#F1F1F1"/>
<path d="M141.979 104.436C141.815 108.782 141.733 112.773 141.733 116.408C141.733 117.501 141.87 118.239 142.143 118.622C142.416 119.005 142.949 119.196 143.742 119.196C144.234 119.196 144.685 119.182 145.095 119.155C145.505 119.128 145.778 119.1 145.915 119.073L145.997 119.237L145.628 121.123C145.245 121.096 144.521 121.068 143.455 121.041C142.389 121.014 141.296 121 140.175 121C139.3 121 138.303 121.068 137.182 121.205C136.061 121.342 135.337 121.437 135.009 121.492L135.255 119.606C136.294 119.524 137.073 119.346 137.592 119.073C138.111 118.8 138.467 118.349 138.658 117.72C138.849 117.091 138.945 116.162 138.945 114.932V105.584C138.945 104.627 138.767 103.999 138.412 103.698C138.084 103.397 137.524 103.247 136.731 103.247C136.376 103.247 135.952 103.288 135.46 103.37C134.995 103.425 134.695 103.466 134.558 103.493L134.435 103.37L134.599 101.648C134.872 101.621 135.419 101.552 136.239 101.443C137.086 101.334 138.043 101.197 139.109 101.033C141.296 100.678 142.526 100.473 142.799 100.418C143.072 100.336 143.223 100.295 143.25 100.295L143.496 100.992C142.949 101.457 142.567 101.921 142.348 102.386C142.157 102.823 142.034 103.507 141.979 104.436ZM147.822 115.834L159.138 100.336L159.302 100.295L160.614 100.705V115.137H164.427L164.673 115.465L164.345 117.72L160.614 117.597C160.641 118.991 160.682 120.385 160.737 121.779C160.819 123.2 160.874 124.116 160.901 124.526L160.696 124.813L157.785 125.305L157.539 124.936C157.566 124.471 157.607 123.528 157.662 122.107C157.717 120.713 157.758 119.182 157.785 117.515C153.576 117.406 150.2 117.351 147.658 117.351L147.822 115.834ZM157.785 105.953H157.416L150.815 115.137H157.785V105.953ZM169.194 106.445C169.194 105.707 169.03 105.188 168.702 104.887C168.374 104.586 167.759 104.422 166.857 104.395L166.693 104.149L166.898 102.919C167.691 102.536 168.456 102.072 169.194 101.525C169.959 100.951 170.574 100.459 171.039 100.049C171.531 99.6117 171.845 99.3247 171.982 99.188L172.802 99.516C172.775 99.6527 172.734 99.9807 172.679 100.5C172.624 101.019 172.556 101.716 172.474 102.591L178.501 102.468L178.624 102.591L178.255 104.764L172.31 104.641C172.119 107.648 172.023 111.064 172.023 114.891C172.023 116.285 172.255 117.269 172.72 117.843C173.212 118.417 174.046 118.704 175.221 118.704C175.631 118.704 176.041 118.649 176.451 118.54C176.861 118.431 177.203 118.321 177.476 118.212C177.749 118.075 177.927 117.993 178.009 117.966L178.419 119.032C178.255 119.169 177.9 119.428 177.353 119.811C176.834 120.194 176.26 120.576 175.631 120.959C175.03 121.314 174.579 121.492 174.278 121.492C172.419 121.492 171.107 121.123 170.342 120.385C169.577 119.62 169.194 118.335 169.194 116.531V106.445ZM180.8 119.401C181.593 119.319 182.14 119.114 182.44 118.786C182.768 118.458 182.932 117.911 182.932 117.146V95.334C182.932 94.596 182.809 94.063 182.563 93.735C182.317 93.3797 181.935 93.202 181.415 93.202H180.554L180.39 93.079L180.554 91.767C181.73 91.603 182.946 91.3843 184.203 91.111C185.461 90.8377 186.267 90.66 186.622 90.578L186.868 91.111C186.677 91.4117 186.486 92.8603 186.294 95.457C186.13 98.0263 185.994 101.265 185.884 105.174C189 103.042 191.05 101.976 192.034 101.976C193.811 101.976 195.191 102.441 196.175 103.37C197.159 104.299 197.651 105.598 197.651 107.265C197.651 107.812 197.556 109.069 197.364 111.037C197.118 114.235 196.995 116.217 196.995 116.982C196.995 117.775 197.105 118.362 197.323 118.745C197.542 119.1 197.911 119.278 198.43 119.278C198.731 119.278 199.018 119.264 199.291 119.237C199.565 119.21 199.756 119.196 199.865 119.196L199.947 119.36L199.619 121.123C199.373 121.096 198.909 121.068 198.225 121.041C197.542 121.014 196.79 121 195.97 121C195.26 121 194.44 121.068 193.51 121.205C192.608 121.342 192.021 121.437 191.747 121.492L191.911 119.811C192.731 119.592 193.319 119.278 193.674 118.868C194.03 118.431 194.207 117.857 194.207 117.146L194.453 109.028C194.453 107.661 194.153 106.609 193.551 105.871C192.977 105.133 192.144 104.764 191.05 104.764C190.121 104.764 189.164 105.024 188.18 105.543C187.224 106.035 186.445 106.527 185.843 107.019C185.761 110.162 185.72 113.483 185.72 116.982C185.72 117.829 185.83 118.431 186.048 118.786C186.267 119.114 186.65 119.278 187.196 119.278C187.497 119.278 187.784 119.264 188.057 119.237C188.331 119.21 188.522 119.196 188.631 119.196L188.713 119.36L188.344 121.123C188.098 121.096 187.62 121.068 186.909 121.041C186.199 121.014 185.433 121 184.613 121C183.711 121 182.878 121.014 182.112 121.041C181.347 121.068 180.828 121.082 180.554 121.082L180.8 119.401ZM217.878 99.68H217.673C217.536 101.484 217.263 104.873 216.853 109.848C216.47 114.795 216.279 117.488 216.279 117.925C216.279 118.772 216.702 119.196 217.55 119.196L219.231 119.155L219.313 119.319L218.944 121.164C218.643 121.137 218.096 121.096 217.304 121.041C216.538 121.014 215.759 121 214.967 121C214.283 121 213.573 121.041 212.835 121.123C212.124 121.232 211.659 121.301 211.441 121.328L211.646 119.442C212.52 119.333 213.149 119.059 213.532 118.622C213.914 118.157 214.16 117.378 214.27 116.285C215.472 105.297 216.074 99.393 216.074 98.573C216.074 97.8623 215.787 97.3293 215.213 96.974C214.666 96.6187 213.764 96.4 212.507 96.318L212.384 96.113L212.712 94.678C213.067 94.7053 213.764 94.7463 214.803 94.801C215.841 94.8557 216.634 94.883 217.181 94.883C217.673 94.883 218.206 94.8693 218.78 94.842C219.381 94.7873 219.777 94.7463 219.969 94.719C221.062 98.245 222.114 101.525 223.126 104.559C224.164 107.566 225.012 109.957 225.668 111.734C226.324 113.511 226.734 114.618 226.898 115.055H227.103C227.485 114.044 228.36 111.638 229.727 107.839C231.093 104.04 232.583 99.6937 234.196 94.801C234.196 94.7737 234.565 94.7873 235.303 94.842L236.902 94.883C237.421 94.883 238.2 94.8557 239.239 94.801C240.277 94.719 240.974 94.6643 241.33 94.637L241.412 94.801L241.207 96.318C240.031 96.4547 239.198 96.7007 238.706 97.056C238.214 97.384 237.968 97.8897 237.968 98.573C237.968 99.1743 238.091 101.416 238.337 105.297C238.583 109.151 238.815 112.486 239.034 115.301C239.17 116.422 239.307 117.255 239.444 117.802C239.58 118.321 239.772 118.69 240.018 118.909C240.264 119.1 240.605 119.196 241.043 119.196C241.289 119.196 241.521 119.182 241.74 119.155C241.958 119.128 242.109 119.114 242.191 119.114L242.273 119.278L241.904 121.123C241.63 121.096 241.111 121.068 240.346 121.041C239.608 121.014 238.829 121 238.009 121C237.271 121 236.437 121.041 235.508 121.123C234.606 121.232 234.018 121.301 233.745 121.328L233.909 119.442C234.756 119.333 235.371 119.114 235.754 118.786C236.136 118.458 236.328 117.993 236.328 117.392C236.328 116.818 236.123 114.153 235.713 109.397C235.33 104.641 235.07 101.402 234.934 99.68H234.729L226.816 121.492L225.832 121.779L217.878 99.68ZM255.553 109.028C255.553 107.661 255.239 106.595 254.61 105.83C253.981 105.065 253.093 104.682 251.945 104.682C251.18 104.682 250.332 104.873 249.403 105.256C248.474 105.639 247.681 106.131 247.025 106.732L246.82 106.609L246.328 104.846C247.722 104.026 249.048 103.343 250.305 102.796C251.59 102.249 252.492 101.976 253.011 101.976C254.788 101.976 256.182 102.441 257.193 103.37C258.204 104.299 258.71 105.598 258.71 107.265C258.71 107.866 258.614 109.096 258.423 110.955C258.122 113.962 257.972 115.875 257.972 116.695C257.972 117.296 258.122 117.761 258.423 118.089C258.724 118.417 259.134 118.581 259.653 118.581C260.036 118.581 260.446 118.485 260.883 118.294C261.348 118.103 261.758 117.857 262.113 117.556L262.687 118.212C262.25 118.977 261.689 119.674 261.006 120.303C260.35 120.904 259.721 121.301 259.12 121.492C256.906 121.492 255.69 120.385 255.471 118.171L255.307 118.13C254.323 119.114 253.421 119.893 252.601 120.467C251.808 121.041 251.207 121.328 250.797 121.328C249.266 121.328 248.009 120.85 247.025 119.893C246.041 118.936 245.549 117.72 245.549 116.244C245.549 115.451 245.74 114.754 246.123 114.153C246.533 113.552 247.066 113.155 247.722 112.964L255.471 110.832L255.553 109.028ZM249.854 114.071C249.061 114.317 248.665 114.891 248.665 115.793C248.665 116.586 248.925 117.242 249.444 117.761C249.991 118.28 250.674 118.54 251.494 118.54C252.013 118.54 252.615 118.362 253.298 118.007C254.009 117.624 254.651 117.146 255.225 116.572L255.389 112.39L249.854 114.071ZM271.636 117.269C274.834 109.616 276.433 105.488 276.433 104.887C276.433 104.176 275.914 103.821 274.875 103.821H272.989L272.907 103.657L273.153 102.304C273.399 102.331 273.932 102.372 274.752 102.427C275.599 102.454 276.447 102.468 277.294 102.468L280.779 102.427L280.492 103.944C279.891 104.053 279.426 104.272 279.098 104.6C278.797 104.901 278.497 105.461 278.196 106.281L272.907 118.745C271.349 122.298 270.133 124.881 269.258 126.494C268.411 128.107 267.563 129.241 266.716 129.897C265.896 130.58 264.885 130.908 263.682 130.881C263.463 130.881 263.108 130.553 262.616 129.897C262.124 129.268 261.878 128.817 261.878 128.544L262.083 128.257C263.668 128.257 265.158 127.615 266.552 126.33C267.973 125.073 269.149 123.31 270.078 121.041C269.422 118.964 268.547 116.394 267.454 113.333C266.388 110.272 265.472 107.798 264.707 105.912C264.379 105.229 263.996 104.737 263.559 104.436C263.149 104.135 262.602 103.971 261.919 103.944L261.837 103.78L262.083 102.427L265.486 102.468C266.497 102.468 267.495 102.427 268.479 102.345C269.49 102.263 270.133 102.208 270.406 102.181L270.488 102.386L270.242 103.657C269.313 103.684 268.67 103.78 268.315 103.944C267.987 104.081 267.823 104.34 267.823 104.723C267.823 105.16 268.096 106.308 268.643 108.167C269.19 110.026 269.75 111.871 270.324 113.702C270.898 115.533 271.281 116.722 271.472 117.269H271.636ZM293.138 117.146C295.434 114.549 297.115 112.363 298.181 110.586C299.274 108.782 299.821 107.306 299.821 106.158C299.821 105.174 299.548 104.409 299.001 103.862C298.454 103.315 297.703 103.042 296.746 103.042C295.817 103.042 294.901 103.37 293.999 104.026C293.097 104.682 292.332 105.57 291.703 106.691H291.334L290.883 104.846C291.566 103.534 292.564 102.454 293.876 101.607C295.188 100.732 296.5 100.295 297.812 100.295C299.507 100.295 300.86 100.746 301.871 101.648C302.91 102.55 303.429 103.739 303.429 105.215C303.429 106.035 303.156 106.978 302.609 108.044C302.09 109.083 301.215 110.395 299.985 111.98C298.755 113.565 296.992 115.643 294.696 118.212L294.86 118.499H301.133C302.172 118.499 302.964 118.403 303.511 118.212C304.058 118.021 304.495 117.665 304.823 117.146C305.151 116.627 305.452 115.834 305.725 114.768L307.365 114.563C307.256 114.946 307.064 115.807 306.791 117.146C306.518 118.458 306.313 119.743 306.176 121L305.684 121.287C304.645 121.26 302.554 121.205 299.411 121.123C296.295 121.041 293.999 121 292.523 121L290.309 121.492L289.899 120.754L293.138 117.146ZM318.624 121.492C316.875 121.492 315.33 121.068 313.991 120.221C312.679 119.374 311.654 118.185 310.916 116.654C310.178 115.123 309.809 113.36 309.809 111.365C309.809 109.26 310.233 107.374 311.08 105.707C311.955 104.012 313.144 102.687 314.647 101.73C316.178 100.773 317.886 100.295 319.772 100.295C321.467 100.295 322.984 100.719 324.323 101.566C325.662 102.386 326.701 103.548 327.439 105.051C328.177 106.554 328.546 108.276 328.546 110.217C328.546 112.349 328.109 114.276 327.234 115.998C326.387 117.72 325.211 119.073 323.708 120.057C322.205 121.014 320.51 121.492 318.624 121.492ZM319.362 118.376C321.412 118.376 323.066 117.734 324.323 116.449C325.608 115.137 326.25 113.442 326.25 111.365C326.25 109.862 325.936 108.522 325.307 107.347C324.678 106.172 323.804 105.256 322.683 104.6C321.59 103.944 320.332 103.616 318.911 103.616C316.861 103.616 315.207 104.272 313.95 105.584C312.72 106.869 312.105 108.591 312.105 110.75C312.105 112.226 312.406 113.552 313.007 114.727C313.636 115.875 314.497 116.777 315.59 117.433C316.683 118.062 317.941 118.376 319.362 118.376ZM334.458 117.146C336.754 114.549 338.435 112.363 339.501 110.586C340.595 108.782 341.141 107.306 341.141 106.158C341.141 105.174 340.868 104.409 340.321 103.862C339.775 103.315 339.023 103.042 338.066 103.042C337.137 103.042 336.221 103.37 335.319 104.026C334.417 104.682 333.652 105.57 333.023 106.691H332.654L332.203 104.846C332.887 103.534 333.884 102.454 335.196 101.607C336.508 100.732 337.82 100.295 339.132 100.295C340.827 100.295 342.18 100.746 343.191 101.648C344.23 102.55 344.749 103.739 344.749 105.215C344.749 106.035 344.476 106.978 343.929 108.044C343.41 109.083 342.535 110.395 341.305 111.98C340.075 113.565 338.312 115.643 336.016 118.212L336.18 118.499H342.453C343.492 118.499 344.285 118.403 344.831 118.212C345.378 118.021 345.815 117.665 346.143 117.146C346.471 116.627 346.772 115.834 347.045 114.768L348.685 114.563C348.576 114.946 348.385 115.807 348.111 117.146C347.838 118.458 347.633 119.743 347.496 121L347.004 121.287C345.966 121.26 343.875 121.205 340.731 121.123C337.615 121.041 335.319 121 333.843 121L331.629 121.492L331.219 120.754L334.458 117.146ZM353.917 117.146C356.213 114.549 357.894 112.363 358.96 110.586C360.054 108.782 360.6 107.306 360.6 106.158C360.6 105.174 360.327 104.409 359.78 103.862C359.234 103.315 358.482 103.042 357.525 103.042C356.596 103.042 355.68 103.37 354.778 104.026C353.876 104.682 353.111 105.57 352.482 106.691H352.113L351.662 104.846C352.346 103.534 353.343 102.454 354.655 101.607C355.967 100.732 357.279 100.295 358.591 100.295C360.286 100.295 361.639 100.746 362.65 101.648C363.689 102.55 364.208 103.739 364.208 105.215C364.208 106.035 363.935 106.978 363.388 108.044C362.869 109.083 361.994 110.395 360.764 111.98C359.534 113.565 357.771 115.643 355.475 118.212L355.639 118.499H361.912C362.951 118.499 363.744 118.403 364.29 118.212C364.837 118.021 365.274 117.665 365.602 117.146C365.93 116.627 366.231 115.834 366.504 114.768L368.144 114.563C368.035 114.946 367.844 115.807 367.57 117.146C367.297 118.458 367.092 119.743 366.955 121L366.463 121.287C365.425 121.26 363.334 121.205 360.19 121.123C357.074 121.041 354.778 121 353.302 121L351.088 121.492L350.678 120.754L353.917 117.146Z" fill="#F1F1F1"/>
<defs>
<filter id="filter0_d" x="8.91541" y="0.350861" width="468.991" height="142.215" filterUnits="userSpaceOnUse" color-interpolation-filters="sRGB">
<feFlood flood-opacity="0" result="BackgroundImageFix"/>
<feColorMatrix in="SourceAlpha" type="matrix" values="0 0 0 0 0 0 0 0 0 0 0 0 0 0 0 0 0 0 127 0"/>
<feOffset dy="5"/>
<feGaussianBlur stdDeviation="3"/>
<feColorMatrix type="matrix" values="0 0 0 0 0 0 0 0 0 0 0 0 0 0 0 0 0 0 0.11 0"/>
<feBlend mode="normal" in2="BackgroundImageFix" result="effect1_dropShadow"/>
<feBlend mode="normal" in="SourceGraphic" in2="effect1_dropShadow" result="shape"/>
</filter>
</defs>
</svg>
