<svg width="521" height="247" viewBox="0 0 521 247" fill="none" xmlns="http://www.w3.org/2000/svg">
<path d="M81.6033 55.6205L79.2278 57.4976C78.9441 64.584 79.7721 73.4842 81.7119 84.198C82.4375 88.2493 82.9935 93.0679 83.3799 98.6539C83.7448 104.199 83.7131 109.536 83.2848 114.664C82.6873 121.551 80.5034 128.1 76.7332 134.31C73.0253 140.54 69.0666 145.155 64.857 148.154C62.9251 149.537 60.6322 150.927 57.9782 152.325C55.3242 153.723 52.3412 154.694 49.0293 155.239C43.8453 156.092 39.555 155.274 36.1583 152.786C34.6061 151.622 33.2817 149.998 32.1849 147.916C31.0881 145.834 30.3489 143.094 29.9675 139.696C29.754 137.409 30.1971 134.933 31.2967 132.267C32.3964 129.602 33.4867 127.958 34.5676 127.337C35.0361 127.038 35.3241 126.99 35.4316 127.194C35.4768 127.379 35.3189 127.723 34.958 128.226C33.931 129.445 33.0944 131.372 32.4482 134.008C31.8021 136.643 31.7072 138.988 32.1634 141.043C32.6004 143.159 33.0769 144.708 33.5931 145.688C35.163 148.669 37.228 150.658 39.7882 151.657C41.5358 152.301 43.4843 152.683 45.6337 152.803C47.783 152.923 49.8936 152.671 51.9654 152.05C55.0214 151.118 57.3661 150.222 58.9993 149.362C60.6326 148.502 61.996 147.575 63.0897 146.582C65.5436 144.507 67.6804 142.077 69.5001 139.293C71.3605 136.488 72.8395 133.701 73.937 130.932C75.0559 128.204 75.9394 125.079 76.5875 121.556C77.2763 118.012 77.7568 114.864 78.0289 112.113C78.3011 109.361 78.4398 106.159 78.4451 102.505C78.4433 96.5598 78.1372 89.8884 77.5267 82.4906C76.9673 73.6054 76.9649 65.6786 77.5194 58.7103C72.3386 62.6387 67.6363 67.7233 63.4126 73.9641C61.2707 77.1265 59.7833 80.4917 58.9505 84.0598C57.8492 88.6039 58.2341 92.652 60.1051 96.2043C61.1159 98.1234 62.35 99.3771 63.8074 99.9656C65.3057 100.533 66.5652 100.547 67.5859 100.01C68.6067 99.4719 69.6113 98.656 70.5996 97.5616C71.588 96.4673 72.2818 95.1109 72.6811 93.4923C73.2864 90.8785 72.9762 88.408 71.7503 86.0806C71.2342 85.1007 70.7472 84.5227 70.2893 84.3466C69.6273 84.278 69.4252 83.9933 69.683 83.4924C70.0031 83.0108 70.5479 82.9064 71.3174 83.1792C72.1989 83.8624 72.9622 84.8165 73.6074 86.0414C74.231 87.2255 74.5023 88.8299 74.4213 90.8546C74.2654 94.2226 73.1078 97.0751 70.9484 99.4121C69.9385 100.466 68.8824 101.283 67.78 101.863C65.9426 102.831 63.9771 103.11 61.8835 102.7C59.1881 102.138 57.1522 100.55 55.7758 97.9369C54.0338 94.6296 53.5512 90.8416 54.328 86.5727C54.8987 83.2991 55.9907 80.2725 57.604 77.493C59.2582 74.6919 61.3046 71.8928 63.7432 69.0958C67.673 64.5746 72.3325 60.3991 77.7219 56.5695C77.7818 55.4949 78.0113 54.1482 78.4106 52.5297C78.8099 50.9111 79.2824 49.8277 79.8282 49.2794C80.3739 48.7312 80.851 48.3495 81.2593 48.1345C82.6884 47.3818 83.7255 47.6179 84.3707 48.8428C84.9105 49.9667 84.913 51.0608 84.3781 52.1248C83.8217 53.1481 82.8968 54.3133 81.6033 55.6205ZM81.3729 50.5782C81.2912 50.6212 81.1999 50.6954 81.0989 50.8008C81.0387 50.8846 80.9496 51.062 80.8315 51.3328C80.7327 51.5413 80.6339 51.7498 80.535 51.9584C80.4362 52.1669 80.3289 52.4581 80.2129 52.8322C80.1378 53.1847 80.0616 53.4856 79.9843 53.7349C79.9263 53.922 79.8501 54.2229 79.7557 54.6377C79.6397 55.0118 79.5624 55.2611 79.5238 55.3858C82.083 53.4119 83.0734 51.9253 82.4949 50.9261C82.1552 50.4791 81.7812 50.3632 81.3729 50.5782Z" fill="black"/>
<path d="M98.8284 92.6702C98.7919 94.3667 99.1232 96.1188 99.8224 97.9265C100.289 99.1316 100.921 100 101.721 100.532C102.547 101.004 103.455 101.049 104.445 100.666C108.361 99.1511 110.489 94.0977 110.827 85.5058C110.862 84.7006 111.111 84.2578 111.575 84.1774C111.764 84.1539 111.892 84.2282 111.958 84.4004C112.025 84.5725 111.971 85.9045 111.797 88.3964C111.649 90.8286 111.33 92.8818 110.839 94.5559C109.809 98.4178 107.681 100.973 104.453 102.222C102.731 102.888 101.051 102.894 99.4131 102.241C97.7751 101.588 96.5816 100.293 95.8324 98.3565C95.0833 96.4197 94.7444 94.2004 94.8159 91.6988C94.9138 89.1375 95.401 86.6234 96.2777 84.1567C97.1377 81.647 98.4342 79.5621 100.167 77.9022C100.991 77.0889 101.854 76.5075 102.758 76.1578C103.662 75.8082 104.601 75.7419 105.576 75.9587C106.54 76.2782 107.164 76.8039 107.447 77.5356C108.446 80.118 107.854 83.1922 105.671 86.758C105.007 87.856 103.931 89.0392 102.442 90.3077C100.937 91.5331 99.7323 92.3206 98.8284 92.6702ZM105.679 78.1452C105.346 77.2844 104.835 76.9872 104.147 77.2536C102.942 77.7197 101.687 79.9121 100.382 83.8309C99.618 86.2046 99.1092 88.7269 98.8558 91.3979C99.5875 91.1149 100.542 90.4488 101.72 89.3996C102.94 88.3337 103.901 87.1706 104.601 85.9102C106.185 82.9717 106.545 80.3834 105.679 78.1452Z" fill="black"/>
<path d="M134.612 67.7229C132.199 78.9371 131.451 85.9965 132.368 88.901C132.729 90.0452 133.328 90.4854 134.164 90.2215C136.408 89.5131 138.221 84.7549 139.603 75.9469C139.673 75.2475 139.86 74.9221 140.166 74.9708C140.472 75.0195 140.659 75.1538 140.729 75.3739C140.798 75.5939 140.793 75.8857 140.715 76.2494C139.868 81.6944 138.916 85.5761 137.857 87.8943C136.828 90.1547 135.5 91.5419 133.872 92.0558C132.287 92.5558 130.883 92.3217 129.658 91.3534C129.037 90.9202 128.574 90.2195 128.268 89.2513C127.949 88.2391 127.787 86.9594 127.782 85.4123C127.778 83.8651 128.266 81.1947 129.246 77.4011C129.48 76.4561 129.528 75.7636 129.389 75.3235C129.236 74.8395 128.786 74.7155 128.038 74.9516C127.289 75.1877 126.172 76.6293 124.684 79.2764C122.433 83.1811 120.749 88.5032 119.634 95.2429C119.509 95.7664 119.291 96.1496 118.981 96.3928C118.7 96.578 118.083 96.8455 117.129 97.195C116.175 97.5446 115.571 97.8561 115.319 98.1293C115.578 96.4988 116.055 93.1788 116.748 88.1691C118.014 79.3009 119.045 74.1361 119.842 72.6748C120.204 71.98 120.847 71.4868 121.771 71.1951C121.947 71.1395 122.408 71.0666 123.154 70.9764C123.943 70.8723 124.5 70.7207 124.825 70.5216C123.474 71.9157 122.117 76.8928 120.754 85.4529C122.017 82.2476 123.248 79.6329 124.448 77.6088C125.679 75.5268 127.28 73.4727 129.254 71.4464C131.214 69.376 132.744 68.1673 133.844 67.82C134.108 67.7367 134.364 67.7043 134.612 67.7229Z" fill="black"/>
<path d="M164.469 60.3884C161.271 71.4043 160.027 78.3933 160.736 81.3553C161.016 82.5222 161.582 83.0035 162.434 82.7992C164.723 82.251 166.868 77.6327 168.868 68.9443C168.986 68.2515 169.197 67.9401 169.498 68.0103C169.8 68.0804 169.977 68.2277 170.031 68.4521C170.085 68.6765 170.059 68.9673 169.955 69.3244C168.727 74.6961 167.503 78.5009 166.283 80.7386C165.097 82.9207 163.674 84.2106 162.014 84.6084C160.398 84.9953 159.013 84.6626 157.86 83.6102C157.271 83.1343 156.859 82.4027 156.622 81.4153C156.375 80.3831 156.304 79.0952 156.408 77.5516C156.513 76.008 157.188 73.3787 158.434 69.6637C158.734 68.7376 158.831 68.0502 158.723 67.6014C158.605 67.1078 158.164 66.9523 157.401 67.135C156.638 67.3178 155.422 68.6769 153.751 71.2124C151.229 74.9483 149.174 80.1384 147.586 86.7826C147.425 87.2958 147.18 87.6628 146.854 87.8834C146.561 88.0484 145.926 88.2716 144.95 88.553C143.973 88.8343 143.349 89.1024 143.078 89.3571C143.452 87.749 144.162 84.4709 145.207 79.5227C147.096 70.7659 148.489 65.6869 149.387 64.2854C149.797 63.6179 150.473 63.1713 151.415 62.9455C151.595 62.9025 152.06 62.8624 152.81 62.825C153.605 62.7769 154.172 62.665 154.509 62.4892C153.064 63.7845 151.359 68.6535 149.395 77.096C150.881 73.9878 152.294 71.4666 153.634 69.5322C155.008 67.5423 156.751 65.6063 158.862 63.7244C160.963 61.7976 162.575 60.6998 163.697 60.4311C163.966 60.3666 164.224 60.3524 164.469 60.3884Z" fill="black"/>
<path d="M171.91 104.07C169.905 104.392 168.287 104.209 167.054 103.519C165.828 102.875 165.12 101.96 164.93 100.776C164.739 99.5912 164.864 98.1922 165.306 96.5786C166.117 94.0643 167.957 91.8517 170.828 89.9407C172.976 88.4732 175.886 86.9531 179.56 85.3804C183.24 83.8533 185.602 82.8422 186.644 82.3473C187.822 79.213 188.956 73.772 190.047 66.0243C188.152 71.0969 186.466 74.7102 184.99 76.8642C183.514 79.0182 181.864 80.2418 180.042 80.5351C177.582 80.9311 175.981 80.1369 175.241 78.1526C175.008 77.863 174.885 77.3919 174.874 76.7394C174.862 76.0869 174.834 75.6239 174.79 75.3506C174.792 75.0699 174.882 74.6114 175.06 73.9751C175.231 73.2932 175.339 72.8082 175.387 72.5202C175.719 71.3916 176.02 70.5019 176.289 69.8509C175.56 69.9682 175.297 69.6367 175.498 68.8564L176.343 66.2664C177.416 63.0556 178.288 60.3444 178.961 58.1328C179.262 57.1027 180.074 56.4813 181.395 56.2686L185.564 55.5977C185.488 55.7035 185.289 55.9224 184.969 56.2545C184.236 56.9332 183.724 57.67 183.431 58.465C182.246 61.5538 180.844 65.916 179.227 71.5516C178.569 73.8543 178.321 75.5068 178.483 76.5092C178.644 77.5116 178.917 78.1921 179.302 78.5508C179.732 78.9022 180.244 79.0303 180.836 78.935C181.702 78.7956 182.762 77.6901 184.018 75.6183C186.645 71.3161 189.264 64.7947 191.878 56.0541C192.225 55.0166 193.036 54.3952 194.312 54.1899L198.002 53.596C196.95 54.6067 196.184 55.805 195.706 57.1907C195.221 58.5309 194.74 60.3376 194.265 62.611C193.835 64.8771 193.291 67.886 192.633 71.6378C192.02 75.3823 191.538 78.1943 191.186 80.0739C195.263 78.1089 198.181 75.3257 199.938 71.7241C200.713 70.1504 201.745 67.4135 203.034 63.5135C203.25 62.8243 203.483 62.5297 203.733 62.6298C204.029 62.7225 204.195 62.8827 204.231 63.1105C204.268 63.3383 204.024 64.2891 203.498 65.9629C203.011 67.5837 202.487 69.1171 201.925 70.5631C201.356 71.9635 200.566 73.4461 199.556 75.0109C198.546 76.5757 197.351 77.8664 195.972 78.8829C194.601 79.945 192.735 81.1333 190.376 82.4478C187.894 89.3911 185.118 94.6522 182.048 98.2312C179.162 101.5 175.783 103.446 171.91 104.07ZM166.857 97.9416C166.518 99.0246 166.414 99.9761 166.546 100.796C166.685 101.662 167.11 102.271 167.821 102.624C168.533 102.977 169.367 103.077 170.323 102.923C172.966 102.497 175.571 100.676 178.138 97.4583C180.712 94.2862 182.889 90.9678 184.669 87.5029L185.765 84.7323C178.563 87.9013 174.052 90.0763 172.232 91.2572C169.521 93.0022 167.73 95.2303 166.857 97.9416Z" fill="black"/>
<path d="M252.827 46.5635L257.464 46.3968C259.402 46.385 260.697 46.7925 261.348 47.6192C261.673 47.9864 261.837 48.3546 261.839 48.7238C261.841 49.093 261.728 49.4167 261.499 49.695C260.949 50.3906 259.913 50.743 258.39 50.7523C255.76 50.7683 253.423 49.7673 251.38 47.7491C246.217 48.5651 242.311 51.3348 239.663 56.0581C237.974 59.1142 237.138 62.0959 237.156 65.0032C237.166 66.6184 237.43 68.2089 237.947 69.7748C239.497 74.1957 242.81 76.3906 247.886 76.3597C252.408 76.3322 256.321 74.7854 259.626 71.7195C262.93 68.6535 264.572 65.6208 264.554 62.6212C264.545 61.1906 263.915 60.0177 262.664 59.1023C261.458 58.1405 260.162 57.5946 258.777 57.4646C257.438 57.2882 256.284 57.2029 255.314 57.2088C254.392 57.2144 253.169 57.3372 251.648 57.5772C250.172 57.7708 248.699 58.3797 247.229 59.404C245.482 60.6145 244.615 62.2119 244.627 64.1962C244.639 66.1806 246.196 67.9709 249.298 69.5672C249.761 69.8413 249.948 70.2094 249.859 70.6714C249.815 71.087 249.631 71.2035 249.307 71.0209C246.39 69.4696 244.326 67.7054 243.114 65.7284C242.275 64.4413 241.853 63.3594 241.848 62.4826C241.843 61.6058 241.954 60.8898 242.181 60.3346C242.725 58.7161 244.101 57.3463 246.309 56.2253C248.518 55.1043 251.329 54.5333 254.744 54.5126L266.996 54.4379C269.396 54.4233 272.345 53.5978 275.842 51.9612C277.545 51.1663 278.785 50.2358 279.563 49.1696C279.929 48.6136 280.11 48.0357 280.106 47.4357C280.102 46.7897 279.96 46.2368 279.681 45.777C279.401 45.3172 279.284 44.9949 279.329 44.81C279.374 44.6251 279.489 44.5321 279.673 44.531C279.904 44.5296 280.089 44.6438 280.229 44.8737C280.882 45.9773 281.211 47.0367 281.218 48.052C281.223 49.0211 280.929 49.9228 280.334 50.7571C279.191 52.5177 277.238 53.9371 274.476 55.0154C271.714 56.0936 268.856 56.6418 265.902 56.6597C265.81 56.6603 265.695 56.661 265.556 56.6619C267.319 58.0817 268.206 59.8992 268.22 62.1143C268.239 65.2062 266.458 68.4013 262.879 71.6997C261.181 73.3252 258.997 74.6538 256.327 75.6853C253.657 76.7168 250.845 77.2416 247.891 77.2596C240.738 77.3032 235.673 75.2573 232.694 71.122C231.205 69.0544 230.454 67.0515 230.442 65.1133C230.43 63.1751 230.719 61.3736 231.309 59.7086C232.898 55.3148 236.13 51.9031 241.007 49.4737C243.814 48.0721 246.97 47.1761 250.475 46.7855C249.172 44.9936 248.512 42.7364 248.495 40.0137C248.525 37.2907 249.709 34.7222 252.048 32.3082C254.387 29.8942 257.076 28.1473 260.115 27.0673C263.2 25.941 266.196 25.3689 269.104 25.3512C271.503 25.3366 273.537 25.8088 275.204 26.7678C276.917 27.7265 277.78 29.2672 277.793 31.39C277.801 32.7282 277.393 33.9306 276.569 34.997C275.745 36.0173 274.802 36.5307 273.74 36.5372C272.725 36.5434 271.893 36.2485 271.243 35.6525C270.639 35.0101 270.334 34.2274 270.329 33.3045C270.323 32.3815 270.619 31.6183 271.215 31.0147C271.857 30.4108 272.594 30.1064 273.424 30.1013C273.978 30.098 274.51 30.2332 275.019 30.507C275.528 30.7346 275.83 31.0097 275.924 31.3321C275.968 31.055 275.99 30.7779 275.988 30.5011C275.982 29.4858 275.562 28.7038 274.728 28.1551C273.847 27.5144 272.53 27.1994 270.776 27.2101C269.023 27.2208 266.972 27.7178 264.624 28.7012C262.277 29.6385 260.07 31.0133 258.004 32.8257C255.938 34.6381 254.314 36.8632 253.13 39.5009C252.493 40.9815 252.178 42.2987 252.185 43.4524C252.192 44.6061 252.406 45.6431 252.827 46.5635ZM260.662 48.6617C260.657 47.8311 258.947 47.4262 255.532 47.447C254.84 47.4512 254.125 47.4786 253.387 47.5292C254.502 48.9069 255.983 49.5901 257.829 49.5789C259.721 49.5674 260.666 49.2617 260.662 48.6617Z" fill="black"/>
<path d="M370.398 41.2161C370.703 39.63 370.266 37.9951 369.086 36.3113C367.385 33.9164 364.699 32.3659 361.028 31.6599C357.811 31.0411 354.118 31.0593 349.951 31.7145C347.772 32.0474 345.813 32.7044 344.073 33.6857C341.378 35.2351 339.839 37.0068 339.456 39.0008C338.942 41.6746 340.179 44.4032 343.168 47.1869C344.289 48.2013 346.583 49.9583 350.049 52.4579C353.57 54.9208 356.11 56.8661 357.668 58.2936C360.028 60.4393 361.528 62.537 362.167 64.5868C362.852 66.6453 363.042 68.4676 362.737 70.0537C362.301 72.3196 361.109 74.487 359.16 76.5558C355.721 80.2648 351.172 83.1494 345.512 85.2094C338.987 87.6198 331.6 88.0318 323.352 86.4455C315.421 84.9202 309.51 81.692 305.618 76.761C302.585 72.9821 301.535 68.6681 302.468 63.8192C303.061 60.7376 304.825 57.5523 307.76 54.2633C310.741 50.9831 314.01 48.8864 317.57 47.9732C318.302 47.832 318.818 47.8372 319.117 47.9889C319.463 48.1492 319.108 48.5275 318.053 49.1235C315.808 50.2895 313.918 51.6882 312.382 53.3196C309.078 56.8195 306.976 60.9033 306.079 65.571C305.486 68.6526 305.828 71.5146 307.106 74.157C309.394 78.8736 314.293 82.2359 321.802 84.2441C322.645 84.5003 323.905 84.7897 325.582 85.1122C327.304 85.4434 329.676 85.5707 332.699 85.4941C335.758 85.4715 338.782 85.0193 341.771 84.1374C348.21 82.1802 352.761 78.92 355.424 74.357C356.247 73.0114 356.789 71.6588 357.05 70.2993C357.643 67.2177 356.784 64.2328 354.473 61.3446C353.204 59.8787 350.446 57.7269 346.198 54.8892C342.005 52.0149 339.215 49.9041 337.829 48.5567C334.793 45.5291 333.584 42.4065 334.203 39.1889C334.744 36.3792 336.834 33.9382 340.476 31.8659C345.694 28.9221 352.405 28.2391 360.607 29.8167C364.459 30.5576 367.473 31.7481 369.648 33.3883C371.877 34.9919 373.042 37.0016 373.141 39.4174C373.144 39.888 373.102 40.3499 373.015 40.8031C372.675 42.5705 371.555 43.9997 369.653 45.0908C368.346 45.7792 366.688 46.2123 364.68 46.39C363.821 46.4597 363.385 46.2819 363.373 45.8566C363.396 45.2501 364.032 44.9965 365.282 45.0959C367.509 45.2423 369.055 44.4119 369.92 42.6044C370.152 42.1321 370.311 41.6693 370.398 41.2161Z" fill="black"/>
<path d="M396.487 79.633C395.443 80.1714 393.746 81.6153 391.396 83.9649C389.06 86.2705 387.514 88.0775 386.756 89.3857C386.057 90.6641 385.567 91.7428 385.286 92.622C385.019 93.4572 385.215 93.9801 385.874 94.1909C386.709 94.4579 387.988 94.0188 389.711 92.8737C392.23 91.208 394.944 88.8539 397.855 85.8115C398.157 85.4721 398.425 85.3155 398.659 85.3418C399.053 85.3223 399.187 85.5104 399.06 85.906C398.99 86.1258 398.84 86.3685 398.609 86.634C391.952 93.5174 387.238 96.5164 384.469 95.6312C383.194 95.2238 382.358 94.2782 381.96 92.7945C381.775 92.0086 381.859 91.0663 382.21 89.9674C382.561 88.8684 383.21 87.598 384.155 86.156C378.826 90.7024 374.887 92.5682 372.337 91.7532C371.634 91.5284 371.067 91.1049 370.636 90.4827C369.612 89.138 369.458 87.3448 370.175 85.103C371.552 80.7952 374.818 77.0186 379.974 73.7733C382.871 71.9861 385.977 71.2107 389.293 71.447C390.198 71.4942 391.025 71.6372 391.772 71.876C393.794 72.5224 395.283 73.7737 396.24 75.6299C396.525 76.254 396.51 76.7577 396.193 77.141C395.877 77.5244 395.447 77.5808 394.904 77.3102C394.926 75.5732 394.124 74.4448 392.498 73.9249C390.607 73.3207 387.8 74.0705 384.075 76.1744C381.931 77.4269 379.798 79.0222 377.676 80.9603C375.049 83.2695 373.461 85.2813 372.913 86.9956C372.365 88.7099 372.641 89.7427 373.739 90.094C376.377 90.9371 381.12 87.996 387.969 81.2708C389.324 79.9114 390.379 79.0372 391.133 78.6485C391.901 78.2157 392.725 78.1399 393.604 78.4209C393.78 78.4771 394.198 78.6835 394.86 79.0402C395.565 79.4109 396.107 79.6086 396.487 79.633Z" fill="black"/>
<path d="M427.136 87.4354C418.159 94.5757 413.103 99.5594 411.97 102.387C411.523 103.5 411.707 104.22 412.521 104.546C414.706 105.422 419.125 102.893 425.779 96.9594C426.277 96.4628 426.628 96.3302 426.834 96.5617C427.039 96.7933 427.099 97.0161 427.013 97.2303C426.927 97.4445 426.739 97.6671 426.447 97.8983C422.34 101.572 419.141 103.969 416.853 105.09C414.624 106.185 412.717 106.415 411.132 105.779C409.59 105.161 408.652 104.089 408.319 102.564C408.114 101.835 408.2 101 408.578 100.057C408.973 99.0722 409.659 97.9801 410.637 96.7811C411.615 95.5821 413.686 93.8269 416.85 91.5155C417.63 90.9333 418.106 90.4281 418.278 89.9997C418.467 89.5285 418.197 89.147 417.469 88.8551C416.741 88.5632 414.962 88.9689 412.133 90.0723C407.916 91.6631 403.239 94.7104 398.103 99.2141C397.674 99.5394 397.262 99.6977 396.868 99.6888C396.534 99.6543 395.887 99.4695 394.928 99.1346C393.968 98.7997 393.304 98.6578 392.935 98.7089C394.17 97.613 396.644 95.3482 400.357 91.9146C406.96 85.8608 411.033 82.5217 412.576 81.8973C413.296 81.5893 414.106 81.6156 415.006 81.9762C415.177 82.0449 415.58 82.2809 416.214 82.6841C416.89 83.1045 417.417 83.3406 417.794 83.3923C415.866 83.6136 411.66 86.6013 405.177 92.3552C408.187 90.6778 410.797 89.4371 413.008 88.6333C415.28 87.8037 417.821 87.2314 420.632 86.9164C423.46 86.5586 425.41 86.5943 426.481 87.0236C426.738 87.1266 426.956 87.2639 427.136 87.4354Z" fill="black"/>
<path d="M441.051 114.783C440.403 116.11 440.618 117.037 441.696 117.564C443.645 118.515 447.826 116.526 454.24 111.595C454.486 111.407 454.711 111.209 454.916 111.001C455.162 110.813 455.409 110.728 455.657 110.746C455.946 110.785 456.081 110.928 456.063 111.176C456.065 111.382 455.882 111.652 455.513 111.986C448.429 118.079 443.187 120.295 439.786 118.634C438.667 118.087 438.018 117.154 437.841 115.835C437.664 114.516 437.808 113.379 438.274 112.425C438.76 111.43 439.309 110.568 439.921 109.84C435.572 112.647 432.395 113.894 430.39 113.582C429.791 113.547 429.243 113.407 428.745 113.164C428.289 112.941 427.863 112.656 427.468 112.309C425.699 110.778 425.473 108.664 426.79 105.969C427.681 104.145 429.119 102.356 431.105 100.604C433.152 98.8307 435.522 97.3432 438.215 96.1417C440.907 94.9402 443.628 94.5743 446.377 95.044C447.39 95.1791 448.477 95.5301 449.638 96.0972C450.84 96.6845 451.985 97.7058 453.072 99.1611C458.484 95.2305 463.289 91.4914 467.487 87.9436C468.736 86.8588 469.721 86.2614 470.442 86.1515C471.225 86.0203 471.845 86.0662 472.301 86.2889C472.799 86.532 473.089 86.6737 473.172 86.7142C473.296 86.775 473.66 87.0296 474.262 87.478C474.927 87.9053 475.456 88.1893 475.849 88.3301C474.47 88.7351 469.875 91.7293 462.064 97.3127C452.1 104.464 445.789 109.394 443.131 112.101C442.129 113.101 441.436 113.995 441.051 114.783ZM452.088 99.9132C451.812 99.1109 451.177 98.4667 450.182 97.9806C449.228 97.5148 447.526 97.5823 445.076 98.183C441.163 99.1482 437.464 100.885 433.979 103.395C431.683 105.046 430.18 106.598 429.471 108.049C429.147 108.713 428.978 109.375 428.964 110.035C428.991 110.716 429.294 111.198 429.875 111.482C431.285 112.171 433.735 111.57 437.226 109.68C440.717 107.79 445.671 104.534 452.088 99.9132Z" fill="black"/>
<path d="M434.613 140.071C432.863 139.041 431.734 137.867 431.224 136.549C430.692 135.271 430.73 134.116 431.339 133.082C431.948 132.048 432.937 131.051 434.306 130.09C436.534 128.671 439.363 128.141 442.793 128.501C445.383 128.741 448.594 129.427 452.426 130.56C456.235 131.732 458.698 132.459 459.817 132.743C462.724 131.081 467.068 127.615 472.85 122.344C468.155 125.042 464.552 126.749 462.041 127.466C459.53 128.183 457.479 128.073 455.889 127.136C453.742 125.871 453.016 124.239 453.712 122.239C453.717 121.867 453.923 121.426 454.331 120.916C454.738 120.406 455.012 120.032 455.152 119.793C455.333 119.578 455.694 119.282 456.237 118.906C456.804 118.49 457.197 118.186 457.417 117.994C458.393 117.337 459.193 116.844 459.815 116.514C459.179 116.14 459.187 115.716 459.84 115.244L462.144 113.789C465.018 112 467.419 110.469 469.348 109.195C470.238 108.594 471.259 108.633 472.412 109.312L476.05 111.455C475.924 111.488 475.632 111.53 475.173 111.581C474.176 111.637 473.311 111.877 472.579 112.303C469.695 113.925 465.833 116.39 460.993 119.698C459.017 121.052 457.772 122.166 457.256 123.041C456.741 123.916 456.517 124.614 456.585 125.136C456.692 125.681 457.004 126.106 457.521 126.41C458.277 126.855 459.799 126.681 462.088 125.887C466.855 124.249 473.033 120.898 480.621 115.835C481.55 115.257 482.572 115.296 483.685 115.952L486.906 117.849C485.45 117.956 484.097 118.39 482.844 119.153C481.616 119.875 480.093 120.96 478.276 122.407C476.5 123.878 474.161 125.848 471.261 128.317C468.4 130.81 466.235 132.667 464.765 133.89C469.158 134.978 473.18 134.696 476.831 133.044C478.432 132.327 480.973 130.877 484.453 128.696C485.06 128.304 485.427 128.225 485.556 128.462C485.724 128.722 485.75 128.951 485.632 129.15C485.515 129.349 484.721 129.925 483.248 130.879C481.839 131.816 480.457 132.662 479.102 133.417C477.77 134.133 476.216 134.771 474.44 135.331C472.664 135.892 470.921 136.123 469.21 136.027C467.476 135.969 465.282 135.694 462.626 135.202C456.286 138.965 450.792 141.246 446.145 142.043C441.837 142.719 437.993 142.062 434.613 140.071ZM434.631 132.129C433.679 132.746 432.992 133.413 432.57 134.128C432.125 134.884 432.064 135.624 432.386 136.35C432.709 137.075 433.287 137.684 434.122 138.176C436.429 139.534 439.597 139.793 443.626 138.953C447.633 138.153 451.426 136.986 455.007 135.454L457.619 134.02C450.051 131.865 445.189 130.662 443.034 130.41C439.834 130.025 437.033 130.598 434.631 132.129Z" fill="black"/>
<path d="M164.786 128.671C164.411 128.671 164.21 128.858 164.183 129.234L163.338 133.819C167.36 133.846 170.31 134.449 172.187 135.629C174.09 136.782 175.042 138.417 175.042 140.536C175.042 142.6 174.077 144.464 172.146 146.126C170.243 147.815 167.106 149.558 162.735 151.355H162.695C162.587 151.355 162.494 151.288 162.413 151.154C162.36 151.046 162.386 150.966 162.494 150.912C166.087 149.33 168.62 147.748 170.095 146.166C171.57 144.611 172.307 142.962 172.307 141.219C172.307 139.235 171.476 137.707 169.814 136.634C168.178 135.535 165.818 134.985 162.735 134.985C162.601 134.985 162.494 134.945 162.413 134.865C162.333 134.757 162.306 134.637 162.333 134.503L163.62 127.343C163.647 127.156 163.673 127.048 163.7 127.022C163.754 126.968 163.901 126.928 164.143 126.901C167.843 126.499 170.323 126.217 171.583 126.056C172.87 125.895 173.688 125.735 174.037 125.574C174.412 125.386 174.667 125.091 174.801 124.689C174.855 124.608 174.948 124.582 175.083 124.608C175.217 124.608 175.27 124.662 175.243 124.769L174.439 127.746C174.332 128.067 174.198 128.268 174.037 128.349C173.903 128.429 173.661 128.47 173.313 128.47L164.786 128.671ZM183.433 126.7C182.414 126.7 181.61 126.847 181.02 127.142C180.43 127.41 179.961 127.88 179.612 128.55C179.29 129.22 179.035 130.172 178.848 131.406C178.848 131.459 178.767 131.486 178.606 131.486C178.472 131.486 178.405 131.459 178.405 131.406C178.486 130.789 178.58 129.797 178.687 128.429C178.794 127.062 178.848 126.016 178.848 125.292C178.848 125.158 178.928 125.091 179.089 125.091C179.25 125.091 179.33 125.158 179.33 125.292C179.33 125.641 179.532 125.869 179.934 125.976C180.336 126.056 180.832 126.097 181.422 126.097C183.781 126.15 185.806 126.177 187.495 126.177L190.994 126.137C191.477 126.11 192.107 126.097 192.885 126.097C193.85 126.097 194.56 126.043 195.016 125.936C195.472 125.802 195.767 125.534 195.901 125.131C195.955 125.051 196.049 125.011 196.183 125.011C196.317 125.011 196.384 125.051 196.384 125.131C196.223 128.027 196.142 130.119 196.142 131.406C196.142 131.459 196.062 131.486 195.901 131.486C195.767 131.486 195.7 131.459 195.7 131.406C195.673 130.199 195.526 129.261 195.258 128.59C195.016 127.92 194.601 127.437 194.011 127.142C193.421 126.847 192.603 126.7 191.557 126.7C190.404 126.7 189.64 126.888 189.265 127.263C188.889 127.612 188.702 128.336 188.702 129.435V141.742C188.702 142.573 188.782 143.177 188.943 143.552C189.104 143.927 189.412 144.182 189.868 144.316C190.324 144.45 191.075 144.517 192.12 144.517C192.201 144.517 192.241 144.598 192.241 144.759C192.241 144.92 192.201 145 192.12 145C191.289 145 190.646 144.987 190.19 144.96L187.374 144.92L184.68 144.96C184.197 144.987 183.527 145 182.669 145C182.615 145 182.588 144.92 182.588 144.759C182.588 144.598 182.615 144.517 182.669 144.517C183.688 144.517 184.438 144.45 184.921 144.316C185.404 144.182 185.725 143.927 185.886 143.552C186.074 143.15 186.168 142.547 186.168 141.742V129.354C186.168 128.577 186.101 128.014 185.967 127.665C185.859 127.29 185.618 127.035 185.243 126.901C184.867 126.767 184.264 126.7 183.433 126.7ZM220.962 144.517C221.042 144.517 221.083 144.598 221.083 144.759C221.083 144.92 221.042 145 220.962 145C220.211 145 219.608 144.987 219.152 144.96L216.739 144.92L214.285 144.96C213.856 144.987 213.266 145 212.516 145C212.435 145 212.395 144.92 212.395 144.759C212.395 144.598 212.435 144.517 212.516 144.517C213.401 144.517 214.044 144.45 214.446 144.316C214.848 144.182 215.117 143.927 215.251 143.552C215.412 143.15 215.492 142.547 215.492 141.742V135.87H204.23V141.742C204.23 142.573 204.297 143.177 204.431 143.552C204.592 143.927 204.874 144.182 205.276 144.316C205.678 144.45 206.335 144.517 207.247 144.517C207.301 144.517 207.327 144.598 207.327 144.759C207.327 144.92 207.301 145 207.247 145C206.496 145 205.906 144.987 205.477 144.96L202.984 144.92L200.611 144.96C200.155 144.987 199.538 145 198.76 145C198.707 145 198.68 144.92 198.68 144.759C198.68 144.598 198.707 144.517 198.76 144.517C199.645 144.517 200.289 144.45 200.691 144.316C201.12 144.182 201.415 143.927 201.576 143.552C201.737 143.15 201.817 142.547 201.817 141.742V129.435C201.817 128.63 201.737 128.041 201.576 127.665C201.442 127.29 201.16 127.035 200.731 126.901C200.329 126.74 199.686 126.66 198.801 126.66C198.747 126.66 198.72 126.579 198.72 126.418C198.72 126.257 198.747 126.177 198.801 126.177L200.611 126.217C201.629 126.271 202.42 126.298 202.984 126.298C203.654 126.298 204.499 126.271 205.517 126.217L207.247 126.177C207.301 126.177 207.327 126.257 207.327 126.418C207.327 126.579 207.301 126.66 207.247 126.66C206.389 126.66 205.745 126.74 205.316 126.901C204.887 127.062 204.592 127.343 204.431 127.746C204.297 128.121 204.23 128.711 204.23 129.515V135.146H215.492V129.515C215.492 128.711 215.412 128.121 215.251 127.746C215.117 127.343 214.835 127.062 214.406 126.901C214.004 126.74 213.374 126.66 212.516 126.66C212.435 126.66 212.395 126.579 212.395 126.418C212.395 126.257 212.435 126.177 212.516 126.177L214.285 126.217C215.251 126.271 216.068 126.298 216.739 126.298C217.329 126.298 218.133 126.271 219.152 126.217L220.962 126.177C221.042 126.177 221.083 126.257 221.083 126.418C221.083 126.579 221.042 126.66 220.962 126.66C220.077 126.66 219.42 126.74 218.991 126.901C218.589 127.035 218.307 127.29 218.146 127.665C217.986 128.041 217.905 128.63 217.905 129.435V141.742C217.905 142.547 217.986 143.15 218.146 143.552C218.307 143.927 218.589 144.182 218.991 144.316C219.42 144.45 220.077 144.517 220.962 144.517ZM243.061 119.862C243.114 119.862 243.141 119.943 243.141 120.104C243.141 120.265 243.114 120.345 243.061 120.345C242.176 120.345 241.532 120.426 241.13 120.586C240.728 120.747 240.446 121.029 240.285 121.431C240.151 121.806 240.084 122.396 240.084 123.201V146.126C240.084 148.781 239.468 150.886 238.234 152.441C237.001 154.023 235.218 154.814 232.885 154.814C231.973 154.814 231.263 154.653 230.753 154.331C230.217 154.036 229.949 153.62 229.949 153.084C229.949 152.682 230.07 152.36 230.311 152.119C230.552 151.878 230.887 151.757 231.316 151.757C231.772 151.757 232.121 151.851 232.362 152.039C232.603 152.253 232.858 152.561 233.126 152.964C233.368 153.339 233.582 153.607 233.77 153.768C233.957 153.929 234.226 154.009 234.574 154.009C235.539 154.009 236.25 153.446 236.706 152.32C237.188 151.221 237.43 149.438 237.43 146.971V123.12C237.43 122.316 237.336 121.726 237.148 121.351C236.961 120.975 236.585 120.721 236.022 120.586C235.486 120.426 234.641 120.345 233.488 120.345C233.435 120.345 233.408 120.265 233.408 120.104C233.408 119.943 233.435 119.862 233.488 119.862L235.821 119.903C237.054 119.956 238.02 119.983 238.717 119.983C239.414 119.983 240.272 119.956 241.291 119.903L243.061 119.862ZM263.785 130.119C263.785 128.778 263.57 127.866 263.141 127.384C262.712 126.901 261.881 126.66 260.647 126.66C260.567 126.66 260.527 126.579 260.527 126.418C260.527 126.257 260.567 126.177 260.647 126.177L262.256 126.217C263.061 126.271 263.704 126.298 264.187 126.298C264.562 126.298 265.125 126.271 265.876 126.217L267.404 126.177C267.458 126.177 267.485 126.257 267.485 126.418C267.485 126.579 267.458 126.66 267.404 126.66C266.332 126.66 265.594 126.901 265.192 127.384C264.817 127.866 264.629 128.778 264.629 130.119V137.6C264.629 140.093 263.932 142.037 262.538 143.431C261.143 144.826 259.267 145.523 256.907 145.523C255.405 145.523 254.038 145.228 252.805 144.638C251.571 144.021 250.592 143.15 249.868 142.024C249.144 140.898 248.783 139.557 248.783 138.002V129.435C248.783 128.63 248.702 128.041 248.541 127.665C248.407 127.29 248.126 127.035 247.697 126.901C247.294 126.74 246.664 126.66 245.806 126.66C245.726 126.66 245.686 126.579 245.686 126.418C245.686 126.257 245.726 126.177 245.806 126.177L247.616 126.217C248.581 126.271 249.346 126.298 249.909 126.298C250.579 126.298 251.424 126.271 252.443 126.217L254.172 126.177C254.252 126.177 254.293 126.257 254.293 126.418C254.293 126.579 254.252 126.66 254.172 126.66C253.314 126.66 252.67 126.74 252.241 126.901C251.812 127.062 251.517 127.343 251.357 127.746C251.223 128.121 251.155 128.711 251.155 129.515V136.956C251.155 139.45 251.772 141.3 253.006 142.506C254.266 143.686 255.875 144.276 257.832 144.276C259.682 144.276 261.13 143.713 262.176 142.587C263.248 141.434 263.785 139.798 263.785 137.68V130.119ZM289.731 126.177C289.812 126.177 289.852 126.257 289.852 126.418C289.852 126.579 289.812 126.66 289.731 126.66C288.739 126.66 288.029 126.955 287.6 127.545C287.171 128.134 286.956 129.14 286.956 130.561V145.442C286.956 145.496 286.889 145.536 286.755 145.563C286.621 145.59 286.527 145.576 286.474 145.523L273.282 129.475C273.147 129.341 272.973 129.14 272.759 128.872V140.616C272.759 142.037 272.96 143.043 273.362 143.633C273.764 144.222 274.461 144.517 275.453 144.517C275.507 144.517 275.534 144.598 275.534 144.759C275.534 144.92 275.507 145 275.453 145C274.864 145 274.408 144.987 274.086 144.96L272.397 144.92L270.667 144.96C270.319 144.987 269.836 145 269.219 145C269.166 145 269.139 144.92 269.139 144.759C269.139 144.598 269.166 144.517 269.219 144.517C270.211 144.517 270.909 144.222 271.311 143.633C271.74 143.043 271.954 142.037 271.954 140.616V128.067C271.418 127.558 270.935 127.196 270.506 126.981C270.077 126.767 269.648 126.66 269.219 126.66C269.166 126.66 269.139 126.579 269.139 126.418C269.139 126.257 269.166 126.177 269.219 126.177L271.472 126.217L273.603 126.177C273.791 126.177 273.938 126.231 274.046 126.338C274.18 126.445 274.367 126.673 274.609 127.022C274.823 127.37 275.118 127.786 275.494 128.268L286.152 141.42V130.561C286.152 129.14 285.951 128.134 285.549 127.545C285.173 126.955 284.489 126.66 283.497 126.66C283.417 126.66 283.377 126.579 283.377 126.418C283.377 126.257 283.417 126.177 283.497 126.177L284.865 126.217C285.562 126.271 286.125 126.298 286.554 126.298C286.983 126.298 287.573 126.271 288.324 126.217L289.731 126.177ZM307.521 139.651C307.521 139.57 307.588 139.53 307.722 139.53C307.883 139.53 307.964 139.57 307.964 139.651C307.776 141.581 307.682 143.163 307.682 144.397C307.682 144.611 307.642 144.772 307.562 144.879C307.481 144.96 307.32 145 307.079 145H292.358C292.305 145 292.278 144.92 292.278 144.759C292.278 144.598 292.305 144.517 292.358 144.517C293.243 144.517 293.887 144.45 294.289 144.316C294.691 144.182 294.959 143.927 295.093 143.552C295.254 143.15 295.335 142.547 295.335 141.742V129.435C295.335 128.63 295.254 128.041 295.093 127.665C294.959 127.29 294.691 127.035 294.289 126.901C293.887 126.74 293.243 126.66 292.358 126.66C292.305 126.66 292.278 126.579 292.278 126.418C292.278 126.257 292.305 126.177 292.358 126.177H306.355C306.623 126.177 306.757 126.284 306.757 126.499L306.797 128.992C306.824 129.502 306.838 130.145 306.838 130.923C306.838 131.003 306.757 131.044 306.596 131.044C306.435 131.044 306.355 131.003 306.355 130.923C306.248 129.69 305.792 128.684 304.987 127.906C304.21 127.102 303.245 126.7 302.092 126.7H300.965C300.027 126.7 299.343 126.78 298.914 126.941C298.485 127.075 298.19 127.33 298.029 127.705C297.869 128.081 297.788 128.671 297.788 129.475V134.985C300.389 134.958 302.159 134.891 303.097 134.784C304.062 134.65 304.612 134.583 304.746 134.583C304.88 134.583 304.947 134.865 304.947 135.428C304.947 136.044 304.88 136.353 304.746 136.353C304.639 136.353 304.103 136.286 303.137 136.152C302.172 135.991 300.389 135.883 297.788 135.83V141.581C297.788 142.359 297.869 142.949 298.029 143.351C298.19 143.726 298.485 143.994 298.914 144.155C299.37 144.289 300.054 144.356 300.965 144.356H302.896C303.969 144.356 304.934 143.927 305.792 143.069C306.65 142.185 307.226 141.045 307.521 139.651ZM322.815 125.413C323.297 125.413 323.673 125.56 323.941 125.855C324.236 126.15 324.383 126.526 324.383 126.981C324.383 128.054 323.767 128.59 322.533 128.59C321.729 128.59 321.099 128.295 320.643 127.705C320.187 127.089 319.959 126.217 319.959 125.091C319.959 124.019 320.2 123.026 320.683 122.115C321.166 121.176 321.876 120.251 322.815 119.34C322.841 119.313 322.882 119.299 322.935 119.299C323.016 119.299 323.083 119.34 323.136 119.42C323.19 119.501 323.19 119.568 323.136 119.621C321.823 120.962 321.166 122.544 321.166 124.367C321.166 125.118 321.3 125.668 321.568 126.016C321.809 125.614 322.225 125.413 322.815 125.413ZM327.278 144.517C329.959 142.265 332.051 140.375 333.552 138.846C335.08 137.291 336.207 135.883 336.931 134.623C337.655 133.363 338.017 132.116 338.017 130.883C338.017 129.542 337.641 128.483 336.89 127.705C336.166 126.901 335.121 126.499 333.753 126.499C331.099 126.499 329.262 128.175 328.243 131.526C328.243 131.58 328.189 131.607 328.082 131.607C328.002 131.607 327.921 131.593 327.841 131.567C327.76 131.513 327.734 131.473 327.76 131.446L329.329 125.332C329.356 125.279 329.436 125.265 329.57 125.292C329.731 125.319 329.798 125.359 329.771 125.413C329.745 125.547 329.731 125.708 329.731 125.895C329.731 126.378 329.959 126.619 330.415 126.619C330.683 126.619 331.099 126.526 331.662 126.338C332.279 126.123 332.828 125.963 333.311 125.855C333.82 125.748 334.397 125.694 335.04 125.694C336.756 125.694 338.124 126.15 339.143 127.062C340.188 127.974 340.711 129.167 340.711 130.641C340.711 131.794 340.349 132.921 339.625 134.02C338.901 135.119 337.882 136.259 336.569 137.439C335.282 138.618 333.217 140.388 330.375 142.748C330.267 142.828 330.227 142.895 330.254 142.949C330.308 143.002 330.402 143.029 330.536 143.029C334.102 143.029 336.569 142.989 337.936 142.909C339.304 142.801 340.255 142.587 340.792 142.265C341.328 141.916 341.703 141.3 341.918 140.415C341.945 140.361 342.025 140.348 342.159 140.375C342.293 140.375 342.36 140.402 342.36 140.455L341.837 144.558C341.837 144.665 341.797 144.772 341.717 144.879C341.663 144.96 341.583 145 341.475 145H327.559C327.425 145 327.318 144.946 327.238 144.839C327.184 144.732 327.197 144.625 327.278 144.517ZM345.989 145C345.908 145 345.868 144.92 345.868 144.759C345.868 144.598 345.908 144.517 345.989 144.517C347.088 144.517 347.893 144.45 348.402 144.316C348.938 144.155 349.3 143.887 349.488 143.512C349.703 143.136 349.81 142.547 349.81 141.742V130.843C349.81 129.85 349.743 129.153 349.609 128.751C349.475 128.349 349.193 128.148 348.764 128.148C348.281 128.148 347.356 128.456 345.989 129.073H345.949C345.815 129.073 345.721 129.006 345.667 128.872C345.614 128.738 345.64 128.657 345.748 128.63L351.821 125.775C351.848 125.748 351.888 125.735 351.941 125.735C351.995 125.735 352.049 125.775 352.102 125.855C352.156 125.909 352.183 125.976 352.183 126.056V141.742C352.183 142.573 352.263 143.177 352.424 143.552C352.612 143.927 352.974 144.182 353.51 144.316C354.046 144.45 354.891 144.517 356.044 144.517C356.098 144.517 356.124 144.598 356.124 144.759C356.124 144.92 356.098 145 356.044 145C355.159 145 354.475 144.987 353.993 144.96L351.016 144.92L348.08 144.96C347.571 144.987 346.874 145 345.989 145Z" fill="black"/>
<path d="M27.353 184.843C29.4713 185.003 31.1739 185.714 32.461 186.974C33.7748 188.208 34.4318 189.749 34.4318 191.6C34.4318 193.021 34.0832 194.308 33.386 195.461C32.6889 196.614 31.7236 197.525 30.4902 198.196C29.2836 198.839 27.9295 199.161 26.428 199.161C25.5431 199.161 24.5779 199.121 23.5321 199.04C23.1568 199.013 22.7143 198.987 22.2049 198.96C21.6954 198.933 21.1323 198.92 20.5156 198.92L17.7807 198.96C17.298 198.987 16.6143 199 15.7295 199C15.6758 199 15.649 198.92 15.649 198.759C15.649 198.598 15.6758 198.517 15.7295 198.517C16.7484 198.517 17.4991 198.45 17.9818 198.316C18.4644 198.155 18.7996 197.887 18.9873 197.512C19.175 197.136 19.2688 196.547 19.2688 195.742V177.12C19.2688 176.316 19.175 175.726 18.9873 175.351C18.8264 174.975 18.5046 174.721 18.022 174.586C17.5394 174.426 16.802 174.345 15.8099 174.345C15.7295 174.345 15.6892 174.265 15.6892 174.104C15.6892 173.943 15.7295 173.862 15.8099 173.862L17.7807 173.903C18.9068 173.956 19.8185 173.983 20.5156 173.983C20.9983 173.983 21.4407 173.97 21.8429 173.943C22.2719 173.916 22.6339 173.889 22.9288 173.862C23.7601 173.782 24.5376 173.742 25.2616 173.742C27.5139 173.742 29.2032 174.238 30.3293 175.23C31.4555 176.195 32.0186 177.469 32.0186 179.051C32.0186 180.338 31.603 181.491 30.7717 182.51C29.9405 183.502 28.801 184.279 27.353 184.843ZM24.3768 174.345C23.6796 174.345 23.1568 174.399 22.8082 174.506C22.4864 174.613 22.2451 174.868 22.0842 175.27C21.9233 175.672 21.8429 176.316 21.8429 177.201V184.843L23.6528 184.883C25.6102 184.883 27.0581 184.387 27.9966 183.395C28.935 182.376 29.4043 181.035 29.4043 179.373C29.4043 177.871 28.9887 176.664 28.1574 175.753C27.353 174.814 26.0928 174.345 24.3768 174.345ZM25.8247 198.437C27.7821 198.437 29.23 197.941 30.1684 196.949C31.1337 195.93 31.6164 194.482 31.6164 192.605C31.6164 190.567 31.0131 188.918 29.8065 187.658C28.6267 186.398 26.9911 185.754 24.8996 185.727C24.0416 185.701 23.0227 185.727 21.8429 185.808V195.742C21.8429 196.439 21.9367 196.976 22.1244 197.351C22.3389 197.726 22.7277 198.008 23.2908 198.196C23.8807 198.356 24.7253 198.437 25.8247 198.437ZM52.998 193.651C52.998 193.57 53.065 193.53 53.1991 193.53C53.36 193.53 53.4404 193.57 53.4404 193.651C53.2527 195.581 53.1589 197.163 53.1589 198.397C53.1589 198.611 53.1187 198.772 53.0382 198.879C52.9578 198.96 52.7969 199 52.5556 199H37.8351C37.7814 199 37.7546 198.92 37.7546 198.759C37.7546 198.598 37.7814 198.517 37.8351 198.517C38.7199 198.517 39.3634 198.45 39.7656 198.316C40.1678 198.182 40.436 197.927 40.57 197.552C40.7309 197.15 40.8113 196.547 40.8113 195.742V183.435C40.8113 182.63 40.7309 182.041 40.57 181.665C40.436 181.29 40.1678 181.035 39.7656 180.901C39.3634 180.74 38.7199 180.66 37.8351 180.66C37.7814 180.66 37.7546 180.579 37.7546 180.418C37.7546 180.257 37.7814 180.177 37.8351 180.177H51.8316C52.0998 180.177 52.2338 180.284 52.2338 180.499L52.274 182.992C52.3009 183.502 52.3143 184.145 52.3143 184.923C52.3143 185.003 52.2338 185.044 52.0729 185.044C51.9121 185.044 51.8316 185.003 51.8316 184.923C51.7244 183.69 51.2685 182.684 50.4641 181.906C49.6866 181.102 48.7213 180.7 47.5683 180.7H46.4421C45.5037 180.7 44.8199 180.78 44.3909 180.941C43.9619 181.075 43.667 181.33 43.5061 181.705C43.3452 182.081 43.2648 182.671 43.2648 183.475V188.985C45.8657 188.958 47.6353 188.891 48.5738 188.784C49.5391 188.65 50.0888 188.583 50.2228 188.583C50.3569 188.583 50.4239 188.865 50.4239 189.428C50.4239 190.044 50.3569 190.353 50.2228 190.353C50.1156 190.353 49.5793 190.286 48.614 190.152C47.6487 189.991 45.8657 189.883 43.2648 189.83V195.581C43.2648 196.359 43.3452 196.949 43.5061 197.351C43.667 197.726 43.9619 197.994 44.3909 198.155C44.8468 198.289 45.5305 198.356 46.4421 198.356H48.3727C49.4452 198.356 50.4105 197.927 51.2685 197.069C52.1266 196.185 52.7031 195.045 52.998 193.651ZM66.1044 199.161C65.3268 199.161 64.4822 199.121 63.5705 199.04C63.2488 199.013 62.8466 198.987 62.3639 198.96C61.8813 198.933 61.3316 198.92 60.7149 198.92L58.3419 198.96C57.8861 198.987 57.2694 199 56.4918 199C56.4382 199 56.4114 198.92 56.4114 198.759C56.4114 198.598 56.4382 198.517 56.4918 198.517C57.4035 198.517 58.0604 198.45 58.4626 198.316C58.8916 198.182 59.1731 197.927 59.3072 197.552C59.4681 197.15 59.5485 196.547 59.5485 195.742V183.435C59.5485 182.63 59.4681 182.041 59.3072 181.665C59.1731 181.29 58.8916 181.035 58.4626 180.901C58.0604 180.74 57.4169 180.66 56.532 180.66C56.4784 180.66 56.4516 180.579 56.4516 180.418C56.4516 180.257 56.4784 180.177 56.532 180.177L58.3419 180.217C59.3608 180.271 60.1518 180.298 60.7149 180.298C61.5461 180.298 62.3773 180.257 63.2085 180.177C64.2811 180.123 65.0855 180.097 65.6217 180.097C67.8741 180.097 69.818 180.499 71.4536 181.303C73.0893 182.108 74.3361 183.22 75.1941 184.641C76.0521 186.063 76.4811 187.671 76.4811 189.468C76.4811 191.318 76.0387 192.98 75.1539 194.455C74.269 195.93 73.0356 197.083 71.4536 197.914C69.8985 198.745 68.1154 199.161 66.1044 199.161ZM65.6217 198.598C68.1154 198.598 70.0594 197.847 71.4536 196.345C72.8748 194.844 73.5853 192.699 73.5853 189.91C73.5853 187.229 72.8882 185.017 71.4939 183.274C70.1264 181.531 68.0618 180.66 65.3 180.66C64.0666 180.66 63.1951 180.861 62.6857 181.263C62.203 181.665 61.9617 182.416 61.9617 183.515V195.3C61.9617 196.506 62.203 197.364 62.6857 197.874C63.1951 198.356 64.1738 198.598 65.6217 198.598ZM99.783 198.517C99.8366 198.517 99.8634 198.598 99.8634 198.759C99.8634 198.92 99.8366 199 99.783 199H95.0772C94.5946 199 93.7366 198.196 92.5032 196.587C91.2966 194.978 89.8352 192.752 88.1192 189.91C87.6097 190.018 87.0332 190.071 86.3897 190.071C85.7194 190.071 85.2099 190.044 84.8614 189.991V195.742C84.8614 196.573 84.9284 197.177 85.0625 197.552C85.1965 197.927 85.4647 198.182 85.8669 198.316C86.2691 198.45 86.926 198.517 87.8376 198.517C87.8913 198.517 87.9181 198.598 87.9181 198.759C87.9181 198.92 87.8913 199 87.8376 199C87.0869 199 86.5104 198.987 86.1082 198.96L83.5743 198.92L81.2013 198.96C80.7455 198.987 80.1288 199 79.3512 199C79.2976 199 79.2708 198.92 79.2708 198.759C79.2708 198.598 79.2976 198.517 79.3512 198.517C80.2361 198.517 80.8796 198.45 81.2818 198.316C81.7108 198.182 82.0057 197.927 82.1666 197.552C82.3275 197.15 82.4079 196.547 82.4079 195.742V183.435C82.4079 182.63 82.3275 182.041 82.1666 181.665C82.0326 181.29 81.751 181.035 81.322 180.901C80.9198 180.74 80.2763 180.66 79.3914 180.66C79.3378 180.66 79.311 180.579 79.311 180.418C79.311 180.257 79.3378 180.177 79.3914 180.177L81.2416 180.217C82.2068 180.271 82.9844 180.298 83.5743 180.298C84.057 180.298 84.4994 180.284 84.9016 180.257C85.3306 180.231 85.6926 180.204 85.9875 180.177C86.8187 180.097 87.6097 180.056 88.3605 180.056C90.1034 180.056 91.4306 180.392 92.3423 181.062C93.2539 181.732 93.7098 182.697 93.7098 183.958C93.7098 185.03 93.4014 186.022 92.7847 186.934C92.168 187.846 91.3368 188.583 90.2911 189.146C91.7926 191.613 93.0528 193.517 94.0717 194.857C95.1175 196.171 96.0693 197.11 96.9274 197.673C97.8122 198.236 98.7641 198.517 99.783 198.517ZM84.8614 189.267C85.344 189.347 85.9473 189.387 86.6713 189.387C88.3337 189.387 89.4867 189.025 90.1302 188.301C90.8005 187.551 91.1357 186.465 91.1357 185.044C91.1357 182.094 89.862 180.619 87.3148 180.619C86.2959 180.619 85.6255 180.834 85.3038 181.263C85.0088 181.692 84.8614 182.443 84.8614 183.515V189.267ZM117.942 184.119C117.942 182.778 117.727 181.866 117.298 181.384C116.869 180.901 116.038 180.66 114.805 180.66C114.724 180.66 114.684 180.579 114.684 180.418C114.684 180.257 114.724 180.177 114.805 180.177L116.413 180.217C117.218 180.271 117.861 180.298 118.344 180.298C118.719 180.298 119.282 180.271 120.033 180.217L121.561 180.177C121.615 180.177 121.642 180.257 121.642 180.418C121.642 180.579 121.615 180.66 121.561 180.66C120.489 180.66 119.752 180.901 119.349 181.384C118.974 181.866 118.786 182.778 118.786 184.119V191.6C118.786 194.093 118.089 196.037 116.695 197.431C115.301 198.826 113.424 199.523 111.064 199.523C109.563 199.523 108.195 199.228 106.962 198.638C105.728 198.021 104.75 197.15 104.026 196.024C103.302 194.898 102.94 193.557 102.94 192.002V183.435C102.94 182.63 102.859 182.041 102.698 181.665C102.564 181.29 102.283 181.035 101.854 180.901C101.451 180.74 100.821 180.66 99.9633 180.66C99.8829 180.66 99.8427 180.579 99.8427 180.418C99.8427 180.257 99.8829 180.177 99.9633 180.177L101.773 180.217C102.739 180.271 103.503 180.298 104.066 180.298C104.736 180.298 105.581 180.271 106.6 180.217L108.329 180.177C108.41 180.177 108.45 180.257 108.45 180.418C108.45 180.579 108.41 180.66 108.329 180.66C107.471 180.66 106.828 180.74 106.399 180.901C105.97 181.062 105.675 181.343 105.514 181.746C105.38 182.121 105.313 182.711 105.313 183.515V190.956C105.313 193.45 105.929 195.3 107.163 196.506C108.423 197.686 110.032 198.276 111.989 198.276C113.839 198.276 115.287 197.713 116.333 196.587C117.405 195.434 117.942 193.798 117.942 191.68V184.119ZM128.203 180.7C127.184 180.7 126.38 180.847 125.79 181.142C125.2 181.41 124.73 181.88 124.382 182.55C124.06 183.22 123.805 184.172 123.618 185.406C123.618 185.459 123.537 185.486 123.376 185.486C123.242 185.486 123.175 185.459 123.175 185.406C123.256 184.789 123.35 183.797 123.457 182.429C123.564 181.062 123.618 180.016 123.618 179.292C123.618 179.158 123.698 179.091 123.859 179.091C124.02 179.091 124.1 179.158 124.1 179.292C124.1 179.641 124.301 179.869 124.704 179.976C125.106 180.056 125.602 180.097 126.192 180.097C128.551 180.15 130.576 180.177 132.265 180.177L135.764 180.137C136.247 180.11 136.877 180.097 137.655 180.097C138.62 180.097 139.33 180.043 139.786 179.936C140.242 179.802 140.537 179.534 140.671 179.131C140.725 179.051 140.818 179.011 140.953 179.011C141.087 179.011 141.154 179.051 141.154 179.131C140.993 182.027 140.912 184.119 140.912 185.406C140.912 185.459 140.832 185.486 140.671 185.486C140.537 185.486 140.47 185.459 140.47 185.406C140.443 184.199 140.296 183.261 140.027 182.59C139.786 181.92 139.371 181.437 138.781 181.142C138.191 180.847 137.373 180.7 136.327 180.7C135.174 180.7 134.41 180.888 134.035 181.263C133.659 181.612 133.472 182.336 133.472 183.435V195.742C133.472 196.573 133.552 197.177 133.713 197.552C133.874 197.927 134.182 198.182 134.638 198.316C135.094 198.45 135.845 198.517 136.89 198.517C136.971 198.517 137.011 198.598 137.011 198.759C137.011 198.92 136.971 199 136.89 199C136.059 199 135.416 198.987 134.96 198.96L132.144 198.92L129.45 198.96C128.967 198.987 128.297 199 127.439 199C127.385 199 127.358 198.92 127.358 198.759C127.358 198.598 127.385 198.517 127.439 198.517C128.458 198.517 129.208 198.45 129.691 198.316C130.174 198.182 130.495 197.927 130.656 197.552C130.844 197.15 130.938 196.547 130.938 195.742V183.354C130.938 182.577 130.871 182.014 130.737 181.665C130.629 181.29 130.388 181.035 130.013 180.901C129.637 180.767 129.034 180.7 128.203 180.7ZM165.732 198.517C165.812 198.517 165.852 198.598 165.852 198.759C165.852 198.92 165.812 199 165.732 199C164.981 199 164.378 198.987 163.922 198.96L161.509 198.92L159.055 198.96C158.626 198.987 158.036 199 157.286 199C157.205 199 157.165 198.92 157.165 198.759C157.165 198.598 157.205 198.517 157.286 198.517C158.17 198.517 158.814 198.45 159.216 198.316C159.618 198.182 159.887 197.927 160.021 197.552C160.181 197.15 160.262 196.547 160.262 195.742V189.87H149V195.742C149 196.573 149.067 197.177 149.201 197.552C149.362 197.927 149.644 198.182 150.046 198.316C150.448 198.45 151.105 198.517 152.017 198.517C152.07 198.517 152.097 198.598 152.097 198.759C152.097 198.92 152.07 199 152.017 199C151.266 199 150.676 198.987 150.247 198.96L147.753 198.92L145.381 198.96C144.925 198.987 144.308 199 143.53 199C143.477 199 143.45 198.92 143.45 198.759C143.45 198.598 143.477 198.517 143.53 198.517C144.415 198.517 145.059 198.45 145.461 198.316C145.89 198.182 146.185 197.927 146.346 197.552C146.507 197.15 146.587 196.547 146.587 195.742V183.435C146.587 182.63 146.507 182.041 146.346 181.665C146.212 181.29 145.93 181.035 145.501 180.901C145.099 180.74 144.455 180.66 143.571 180.66C143.517 180.66 143.49 180.579 143.49 180.418C143.49 180.257 143.517 180.177 143.571 180.177L145.381 180.217C146.399 180.271 147.19 180.298 147.753 180.298C148.424 180.298 149.268 180.271 150.287 180.217L152.017 180.177C152.07 180.177 152.097 180.257 152.097 180.418C152.097 180.579 152.07 180.66 152.017 180.66C151.159 180.66 150.515 180.74 150.086 180.901C149.657 181.062 149.362 181.343 149.201 181.746C149.067 182.121 149 182.711 149 183.515V189.146H160.262V183.515C160.262 182.711 160.181 182.121 160.021 181.746C159.887 181.343 159.605 181.062 159.176 180.901C158.774 180.74 158.144 180.66 157.286 180.66C157.205 180.66 157.165 180.579 157.165 180.418C157.165 180.257 157.205 180.177 157.286 180.177L159.055 180.217C160.021 180.271 160.838 180.298 161.509 180.298C162.099 180.298 162.903 180.271 163.922 180.217L165.732 180.177C165.812 180.177 165.852 180.257 165.852 180.418C165.852 180.579 165.812 180.66 165.732 180.66C164.847 180.66 164.19 180.74 163.761 180.901C163.359 181.035 163.077 181.29 162.916 181.665C162.756 182.041 162.675 182.63 162.675 183.435V195.742C162.675 196.547 162.756 197.15 162.916 197.552C163.077 197.927 163.359 198.182 163.761 198.316C164.19 198.45 164.847 198.517 165.732 198.517ZM189.505 198.517C189.612 198.517 189.666 198.598 189.666 198.759C189.666 198.92 189.612 199 189.505 199C189.022 199 188.244 198.973 187.172 198.92C186.099 198.866 185.322 198.839 184.839 198.839C184.41 198.839 183.847 198.866 183.15 198.92C182.453 198.973 181.917 199 181.541 199C181.434 199 181.38 198.92 181.38 198.759C181.38 198.598 181.434 198.517 181.541 198.517C182.238 198.517 182.748 198.437 183.069 198.276C183.418 198.088 183.592 197.767 183.592 197.311C183.592 196.909 183.431 196.345 183.11 195.622L180.375 189.749H174.744L173.014 194.053C172.585 195.072 172.371 195.916 172.371 196.587C172.371 197.284 172.612 197.78 173.095 198.075C173.578 198.37 174.315 198.517 175.307 198.517C175.441 198.517 175.508 198.598 175.508 198.759C175.508 198.92 175.441 199 175.307 199C174.905 199 174.355 198.973 173.658 198.92C172.907 198.866 172.21 198.839 171.567 198.839C170.896 198.839 170.105 198.866 169.194 198.92C168.389 198.973 167.746 199 167.263 199C167.129 199 167.062 198.92 167.062 198.759C167.062 198.598 167.129 198.517 167.263 198.517C168.094 198.517 168.751 198.41 169.234 198.196C169.716 197.954 170.159 197.498 170.561 196.828C170.99 196.158 171.5 195.112 172.089 193.691L177.881 179.574C177.935 179.466 178.015 179.413 178.122 179.413C178.23 179.413 178.297 179.466 178.324 179.574L184.799 193.49C185.496 194.991 186.046 196.077 186.448 196.748C186.877 197.418 187.306 197.887 187.735 198.155C188.191 198.397 188.781 198.517 189.505 198.517ZM175.025 189.025H180.053L177.358 183.234L175.025 189.025ZM211.328 180.177C211.408 180.177 211.448 180.257 211.448 180.418C211.448 180.579 211.408 180.66 211.328 180.66C210.336 180.66 209.625 180.955 209.196 181.545C208.767 182.134 208.553 183.14 208.553 184.561V199.442C208.553 199.496 208.486 199.536 208.352 199.563C208.217 199.59 208.124 199.576 208.07 199.523L194.878 183.475C194.744 183.341 194.569 183.14 194.355 182.872V194.616C194.355 196.037 194.556 197.043 194.958 197.633C195.36 198.222 196.058 198.517 197.05 198.517C197.103 198.517 197.13 198.598 197.13 198.759C197.13 198.92 197.103 199 197.05 199C196.46 199 196.004 198.987 195.682 198.96L193.993 198.92L192.264 198.96C191.915 198.987 191.432 199 190.816 199C190.762 199 190.735 198.92 190.735 198.759C190.735 198.598 190.762 198.517 190.816 198.517C191.808 198.517 192.505 198.222 192.907 197.633C193.336 197.043 193.551 196.037 193.551 194.616V182.067C193.014 181.558 192.532 181.196 192.103 180.981C191.674 180.767 191.245 180.66 190.816 180.66C190.762 180.66 190.735 180.579 190.735 180.418C190.735 180.257 190.762 180.177 190.816 180.177L193.068 180.217L195.2 180.177C195.387 180.177 195.535 180.231 195.642 180.338C195.776 180.445 195.964 180.673 196.205 181.022C196.42 181.37 196.715 181.786 197.09 182.268L207.748 195.42V184.561C207.748 183.14 207.547 182.134 207.145 181.545C206.77 180.955 206.086 180.66 205.094 180.66C205.013 180.66 204.973 180.579 204.973 180.418C204.973 180.257 205.013 180.177 205.094 180.177L206.461 180.217C207.158 180.271 207.721 180.298 208.15 180.298C208.579 180.298 209.169 180.271 209.92 180.217L211.328 180.177ZM227.805 178.568C227.805 179.614 228.06 180.526 228.57 181.303C229.079 182.081 229.696 182.738 230.42 183.274C231.144 183.783 232.163 184.44 233.476 185.245C234.871 186.076 235.957 186.773 236.734 187.336C237.512 187.899 238.169 188.623 238.705 189.508C239.268 190.366 239.55 191.398 239.55 192.605C239.55 193.892 239.228 195.058 238.584 196.104C237.941 197.15 236.989 197.981 235.729 198.598C234.495 199.188 233.007 199.483 231.264 199.483C229.2 199.483 227.309 199.013 225.593 198.075C225.459 197.994 225.365 197.901 225.312 197.793C225.285 197.686 225.258 197.525 225.231 197.311L224.709 191.841C224.682 191.734 224.735 191.667 224.869 191.64C225.03 191.613 225.124 191.653 225.151 191.76C225.58 193.691 226.371 195.353 227.524 196.748C228.704 198.142 230.259 198.839 232.189 198.839C233.53 198.839 234.656 198.477 235.568 197.753C236.506 197.002 236.976 195.823 236.976 194.214C236.976 193.007 236.707 191.961 236.171 191.077C235.635 190.192 234.978 189.468 234.2 188.905C233.45 188.315 232.417 187.631 231.103 186.854C229.816 186.076 228.798 185.406 228.047 184.843C227.323 184.279 226.706 183.569 226.197 182.711C225.687 181.853 225.432 180.847 225.432 179.694C225.432 178.354 225.781 177.214 226.478 176.276C227.202 175.31 228.127 174.6 229.253 174.144C230.406 173.661 231.626 173.42 232.913 173.42C234.495 173.42 236.064 173.742 237.619 174.385C238.021 174.519 238.222 174.747 238.222 175.069L238.504 179.694C238.504 179.802 238.437 179.855 238.303 179.855C238.169 179.855 238.088 179.802 238.062 179.694C237.847 178.3 237.271 177.013 236.332 175.833C235.394 174.627 234.04 174.023 232.27 174.023C230.768 174.023 229.642 174.466 228.891 175.351C228.167 176.209 227.805 177.281 227.805 178.568ZM247.763 180.7C246.744 180.7 245.94 180.847 245.35 181.142C244.76 181.41 244.291 181.88 243.942 182.55C243.62 183.22 243.366 184.172 243.178 185.406C243.178 185.459 243.098 185.486 242.937 185.486C242.803 185.486 242.736 185.459 242.736 185.406C242.816 184.789 242.91 183.797 243.017 182.429C243.124 181.062 243.178 180.016 243.178 179.292C243.178 179.158 243.258 179.091 243.419 179.091C243.58 179.091 243.661 179.158 243.661 179.292C243.661 179.641 243.862 179.869 244.264 179.976C244.666 180.056 245.162 180.097 245.752 180.097C248.112 180.15 250.136 180.177 251.825 180.177L255.324 180.137C255.807 180.11 256.437 180.097 257.215 180.097C258.18 180.097 258.891 180.043 259.346 179.936C259.802 179.802 260.097 179.534 260.231 179.131C260.285 179.051 260.379 179.011 260.513 179.011C260.647 179.011 260.714 179.051 260.714 179.131C260.553 182.027 260.473 184.119 260.473 185.406C260.473 185.459 260.392 185.486 260.231 185.486C260.097 185.486 260.03 185.459 260.03 185.406C260.003 184.199 259.856 183.261 259.588 182.59C259.346 181.92 258.931 181.437 258.341 181.142C257.751 180.847 256.933 180.7 255.887 180.7C254.735 180.7 253.97 180.888 253.595 181.263C253.22 181.612 253.032 182.336 253.032 183.435V195.742C253.032 196.573 253.112 197.177 253.273 197.552C253.434 197.927 253.742 198.182 254.198 198.316C254.654 198.45 255.405 198.517 256.451 198.517C256.531 198.517 256.571 198.598 256.571 198.759C256.571 198.92 256.531 199 256.451 199C255.619 199 254.976 198.987 254.52 198.96L251.705 198.92L249.01 198.96C248.527 198.987 247.857 199 246.999 199C246.945 199 246.918 198.92 246.918 198.759C246.918 198.598 246.945 198.517 246.999 198.517C248.018 198.517 248.769 198.45 249.251 198.316C249.734 198.182 250.056 197.927 250.216 197.552C250.404 197.15 250.498 196.547 250.498 195.742V183.354C250.498 182.577 250.431 182.014 250.297 181.665C250.19 181.29 249.948 181.035 249.573 180.901C249.198 180.767 248.594 180.7 247.763 180.7ZM278.254 193.651C278.254 193.57 278.321 193.53 278.455 193.53C278.616 193.53 278.696 193.57 278.696 193.651C278.508 195.581 278.414 197.163 278.414 198.397C278.414 198.611 278.374 198.772 278.294 198.879C278.213 198.96 278.052 199 277.811 199H263.091C263.037 199 263.01 198.92 263.01 198.759C263.01 198.598 263.037 198.517 263.091 198.517C263.975 198.517 264.619 198.45 265.021 198.316C265.423 198.182 265.692 197.927 265.826 197.552C265.986 197.15 266.067 196.547 266.067 195.742V183.435C266.067 182.63 265.986 182.041 265.826 181.665C265.692 181.29 265.423 181.035 265.021 180.901C264.619 180.74 263.975 180.66 263.091 180.66C263.037 180.66 263.01 180.579 263.01 180.418C263.01 180.257 263.037 180.177 263.091 180.177H277.087C277.355 180.177 277.489 180.284 277.489 180.499L277.53 182.992C277.556 183.502 277.57 184.145 277.57 184.923C277.57 185.003 277.489 185.044 277.329 185.044C277.168 185.044 277.087 185.003 277.087 184.923C276.98 183.69 276.524 182.684 275.72 181.906C274.942 181.102 273.977 180.7 272.824 180.7H271.698C270.759 180.7 270.076 180.78 269.646 180.941C269.217 181.075 268.923 181.33 268.762 181.705C268.601 182.081 268.52 182.671 268.52 183.475V188.985C271.121 188.958 272.891 188.891 273.829 188.784C274.795 188.65 275.344 188.583 275.478 188.583C275.612 188.583 275.679 188.865 275.679 189.428C275.679 190.044 275.612 190.353 275.478 190.353C275.371 190.353 274.835 190.286 273.87 190.152C272.904 189.991 271.121 189.883 268.52 189.83V195.581C268.52 196.359 268.601 196.949 268.762 197.351C268.923 197.726 269.217 197.994 269.646 198.155C270.102 198.289 270.786 198.356 271.698 198.356H273.628C274.701 198.356 275.666 197.927 276.524 197.069C277.382 196.185 277.959 195.045 278.254 193.651ZM287.177 195.581C287.177 196.439 287.271 197.069 287.459 197.472C287.646 197.847 288.008 198.115 288.545 198.276C289.108 198.437 289.979 198.517 291.159 198.517C291.239 198.517 291.28 198.598 291.28 198.759C291.28 198.92 291.239 199 291.159 199C290.194 199 289.456 198.987 288.947 198.96L285.97 198.92L283.597 198.96C283.142 198.987 282.525 199 281.747 199C281.694 199 281.667 198.92 281.667 198.759C281.667 198.598 281.694 198.517 281.747 198.517C282.632 198.517 283.276 198.45 283.678 198.316C284.08 198.182 284.348 197.927 284.482 197.552C284.643 197.15 284.724 196.547 284.724 195.742V183.435C284.724 182.63 284.643 182.041 284.482 181.665C284.348 181.29 284.067 181.035 283.638 180.901C283.236 180.74 282.605 180.66 281.747 180.66C281.694 180.66 281.667 180.579 281.667 180.418C281.667 180.257 281.694 180.177 281.747 180.177L283.557 180.217C284.576 180.271 285.367 180.298 285.93 180.298C286.386 180.298 286.815 180.284 287.217 180.257C287.646 180.231 288.008 180.204 288.303 180.177C289.134 180.097 289.912 180.056 290.636 180.056C295.06 180.056 297.272 181.692 297.272 184.963C297.272 186.25 296.937 187.336 296.267 188.221C295.623 189.079 294.792 189.723 293.773 190.152C292.781 190.581 291.749 190.795 290.676 190.795C289.952 190.795 289.362 190.741 288.907 190.634C288.853 190.634 288.826 190.567 288.826 190.433C288.826 190.219 288.893 190.111 289.027 190.111C289.429 190.192 289.845 190.232 290.274 190.232C291.454 190.232 292.446 189.857 293.25 189.106C294.081 188.328 294.497 187.216 294.497 185.768C294.497 184.078 294.055 182.805 293.17 181.947C292.312 181.062 291.145 180.619 289.671 180.619C289 180.619 288.491 180.673 288.142 180.78C287.821 180.888 287.579 181.142 287.418 181.545C287.258 181.947 287.177 182.604 287.177 183.515V195.581ZM303.664 183.435C303.664 184.239 303.865 184.95 304.267 185.567C304.696 186.156 305.219 186.652 305.836 187.055C306.452 187.457 307.27 187.926 308.289 188.462C309.388 189.052 310.273 189.575 310.944 190.031C311.614 190.46 312.177 191.01 312.633 191.68C313.089 192.35 313.317 193.155 313.317 194.093C313.317 195.085 313.035 195.997 312.472 196.828C311.936 197.633 311.158 198.276 310.139 198.759C309.12 199.241 307.927 199.483 306.56 199.483C304.602 199.483 302.98 199.013 301.693 198.075C301.559 198.021 301.465 197.941 301.411 197.834C301.385 197.726 301.358 197.552 301.331 197.311L300.929 193.329C300.902 193.222 300.956 193.155 301.09 193.128C301.251 193.101 301.358 193.141 301.411 193.249C301.787 194.804 302.524 196.131 303.624 197.23C304.75 198.303 305.997 198.839 307.364 198.839C308.303 198.839 309.107 198.571 309.777 198.035C310.474 197.472 310.823 196.614 310.823 195.461C310.823 194.227 310.421 193.222 309.616 192.444C308.812 191.667 307.646 190.876 306.117 190.071C305.045 189.481 304.187 188.972 303.543 188.543C302.926 188.087 302.404 187.537 301.975 186.894C301.546 186.25 301.331 185.473 301.331 184.561C301.331 183.033 301.921 181.839 303.101 180.981C304.281 180.123 305.715 179.694 307.404 179.694C308.825 179.694 310.166 180.003 311.426 180.619C311.668 180.754 311.815 180.861 311.869 180.941C311.949 180.995 312.003 181.116 312.03 181.303L312.311 184.802C312.311 184.91 312.231 184.977 312.07 185.003C311.936 185.03 311.855 184.99 311.828 184.883C311.694 184.212 311.386 183.529 310.903 182.832C310.448 182.108 309.844 181.504 309.094 181.022C308.37 180.539 307.565 180.298 306.68 180.298C305.715 180.298 304.964 180.593 304.428 181.183C303.919 181.772 303.664 182.523 303.664 183.435ZM318.81 196.144C319.614 196.144 320.244 196.453 320.7 197.069C321.156 197.659 321.384 198.517 321.384 199.644C321.384 200.716 321.143 201.708 320.66 202.62C320.177 203.558 319.467 204.483 318.528 205.395C318.501 205.422 318.461 205.435 318.408 205.435C318.327 205.435 318.26 205.395 318.206 205.315C318.153 205.234 318.153 205.167 318.206 205.113C319.52 203.773 320.177 202.191 320.177 200.367C320.177 199.617 320.043 199.067 319.775 198.718C319.534 199.121 319.118 199.322 318.528 199.322C318.046 199.322 317.657 199.174 317.362 198.879C317.094 198.584 316.96 198.209 316.96 197.753C316.96 196.681 317.576 196.144 318.81 196.144ZM349.741 173.42C351.028 173.42 352.329 173.541 353.643 173.782C354.956 174.023 356.002 174.372 356.78 174.828C357.021 174.935 357.168 175.056 357.222 175.19C357.303 175.297 357.356 175.498 357.383 175.793L357.825 180.298C357.825 180.378 357.758 180.432 357.624 180.459C357.49 180.459 357.41 180.418 357.383 180.338C356.793 178.273 355.694 176.758 354.085 175.793C352.503 174.801 350.532 174.305 348.173 174.305C346.135 174.305 344.352 174.761 342.823 175.672C341.295 176.557 340.115 177.817 339.284 179.453C338.453 181.089 338.037 182.979 338.037 185.124C338.037 187.618 338.547 189.924 339.566 192.042C340.611 194.16 342.006 195.836 343.748 197.069C345.518 198.303 347.422 198.92 349.46 198.92C351.39 198.92 353.066 198.397 354.487 197.351C355.908 196.278 356.994 194.643 357.745 192.444C357.745 192.364 357.799 192.323 357.906 192.323C357.986 192.323 358.053 192.337 358.107 192.364C358.187 192.391 358.228 192.431 358.228 192.484L357.665 197.029C357.611 197.351 357.544 197.565 357.463 197.673C357.41 197.753 357.262 197.847 357.021 197.954C354.608 198.973 352.061 199.483 349.379 199.483C346.162 199.483 343.467 198.839 341.295 197.552C339.15 196.238 337.568 194.576 336.549 192.565C335.53 190.554 335.021 188.436 335.021 186.21C335.021 183.743 335.704 181.531 337.072 179.574C338.439 177.616 340.249 176.101 342.502 175.029C344.754 173.956 347.167 173.42 349.741 173.42ZM371.015 199.483C369.138 199.483 367.463 199.04 365.988 198.155C364.54 197.271 363.414 196.077 362.609 194.576C361.805 193.074 361.403 191.452 361.403 189.709C361.403 187.618 361.939 185.821 363.012 184.32C364.111 182.791 365.492 181.638 367.154 180.861C368.843 180.083 370.56 179.694 372.302 179.694C374.179 179.694 375.828 180.164 377.249 181.102C378.697 182.014 379.797 183.207 380.548 184.682C381.325 186.156 381.714 187.698 381.714 189.307C381.714 191.103 381.231 192.793 380.266 194.375C379.301 195.93 378 197.177 376.365 198.115C374.729 199.027 372.946 199.483 371.015 199.483ZM372.061 198.638C374.153 198.638 375.815 197.901 377.048 196.426C378.309 194.951 378.939 192.913 378.939 190.312C378.939 188.516 378.617 186.88 377.973 185.406C377.357 183.931 376.445 182.751 375.238 181.866C374.032 180.981 372.597 180.539 370.935 180.539C368.79 180.539 367.127 181.263 365.948 182.711C364.768 184.132 364.178 186.13 364.178 188.704C364.178 190.554 364.486 192.23 365.103 193.731C365.747 195.233 366.658 196.426 367.838 197.311C369.045 198.196 370.452 198.638 372.061 198.638ZM405.007 198.517C405.061 198.517 405.088 198.598 405.088 198.759C405.088 198.92 405.061 199 405.007 199H400.301C399.819 199 398.961 198.196 397.727 196.587C396.521 194.978 395.059 192.752 393.343 189.91C392.834 190.018 392.257 190.071 391.614 190.071C390.944 190.071 390.434 190.044 390.086 189.991V195.742C390.086 196.573 390.153 197.177 390.287 197.552C390.421 197.927 390.689 198.182 391.091 198.316C391.493 198.45 392.15 198.517 393.062 198.517C393.116 198.517 393.142 198.598 393.142 198.759C393.142 198.92 393.116 199 393.062 199C392.311 199 391.735 198.987 391.332 198.96L388.799 198.92L386.426 198.96C385.97 198.987 385.353 199 384.575 199C384.522 199 384.495 198.92 384.495 198.759C384.495 198.598 384.522 198.517 384.575 198.517C385.46 198.517 386.104 198.45 386.506 198.316C386.935 198.182 387.23 197.927 387.391 197.552C387.552 197.15 387.632 196.547 387.632 195.742V183.435C387.632 182.63 387.552 182.041 387.391 181.665C387.257 181.29 386.975 181.035 386.546 180.901C386.144 180.74 385.501 180.66 384.616 180.66C384.562 180.66 384.535 180.579 384.535 180.418C384.535 180.257 384.562 180.177 384.616 180.177L386.466 180.217C387.431 180.271 388.209 180.298 388.799 180.298C389.281 180.298 389.724 180.284 390.126 180.257C390.555 180.231 390.917 180.204 391.212 180.177C392.043 180.097 392.834 180.056 393.585 180.056C395.328 180.056 396.655 180.392 397.567 181.062C398.478 181.732 398.934 182.697 398.934 183.958C398.934 185.03 398.626 186.022 398.009 186.934C397.392 187.846 396.561 188.583 395.515 189.146C397.017 191.613 398.277 193.517 399.296 194.857C400.342 196.171 401.294 197.11 402.152 197.673C403.036 198.236 403.988 198.517 405.007 198.517ZM390.086 189.267C390.568 189.347 391.172 189.387 391.895 189.387C393.558 189.387 394.711 189.025 395.354 188.301C396.025 187.551 396.36 186.465 396.36 185.044C396.36 182.094 395.086 180.619 392.539 180.619C391.52 180.619 390.85 180.834 390.528 181.263C390.233 181.692 390.086 182.443 390.086 183.515V189.267ZM426.332 180.177C426.412 180.177 426.453 180.257 426.453 180.418C426.453 180.579 426.412 180.66 426.332 180.66C425.34 180.66 424.629 180.955 424.2 181.545C423.771 182.134 423.557 183.14 423.557 184.561V199.442C423.557 199.496 423.49 199.536 423.356 199.563C423.222 199.59 423.128 199.576 423.074 199.523L409.882 183.475C409.748 183.341 409.574 183.14 409.359 182.872V194.616C409.359 196.037 409.56 197.043 409.962 197.633C410.365 198.222 411.062 198.517 412.054 198.517C412.108 198.517 412.134 198.598 412.134 198.759C412.134 198.92 412.108 199 412.054 199C411.464 199 411.008 198.987 410.686 198.96L408.997 198.92L407.268 198.96C406.919 198.987 406.436 199 405.82 199C405.766 199 405.739 198.92 405.739 198.759C405.739 198.598 405.766 198.517 405.82 198.517C406.812 198.517 407.509 198.222 407.911 197.633C408.34 197.043 408.555 196.037 408.555 194.616V182.067C408.018 181.558 407.536 181.196 407.107 180.981C406.678 180.767 406.249 180.66 405.82 180.66C405.766 180.66 405.739 180.579 405.739 180.418C405.739 180.257 405.766 180.177 405.82 180.177L408.072 180.217L410.204 180.177C410.391 180.177 410.539 180.231 410.646 180.338C410.78 180.445 410.968 180.673 411.209 181.022C411.424 181.37 411.719 181.786 412.094 182.268L422.752 195.42V184.561C422.752 183.14 422.551 182.134 422.149 181.545C421.774 180.955 421.09 180.66 420.098 180.66C420.017 180.66 419.977 180.579 419.977 180.418C419.977 180.257 420.017 180.177 420.098 180.177L421.465 180.217C422.163 180.271 422.726 180.298 423.155 180.298C423.584 180.298 424.174 180.271 424.924 180.217L426.332 180.177ZM456.67 180.177C456.751 180.177 456.791 180.257 456.791 180.418C456.791 180.579 456.751 180.66 456.67 180.66C455.866 180.66 455.182 180.888 454.619 181.343C454.056 181.799 453.533 182.617 453.051 183.797L447.058 198.96C447.031 199.067 446.884 199.121 446.615 199.121C446.347 199.121 446.2 199.067 446.173 198.96L442.151 190.514L438.732 198.96C438.705 199.067 438.558 199.121 438.29 199.121C438.022 199.121 437.874 199.067 437.847 198.96L430.527 183.515C429.991 182.389 429.522 181.638 429.12 181.263C428.718 180.861 428.168 180.66 427.471 180.66C427.39 180.66 427.35 180.579 427.35 180.418C427.35 180.257 427.39 180.177 427.471 180.177L429.039 180.217C429.736 180.271 430.246 180.298 430.568 180.298C431.131 180.298 431.788 180.271 432.538 180.217L433.665 180.177C433.718 180.177 433.745 180.257 433.745 180.418C433.745 180.579 433.718 180.66 433.665 180.66C433.343 180.66 433.075 180.754 432.86 180.941C432.672 181.102 432.579 181.357 432.579 181.705C432.579 182.081 432.713 182.55 432.981 183.113L439.255 195.943L441.709 189.589L438.853 183.515C438.29 182.336 437.847 181.571 437.526 181.223C437.204 180.847 436.735 180.66 436.118 180.66C436.064 180.66 436.038 180.579 436.038 180.418C436.038 180.257 436.064 180.177 436.118 180.177L437.445 180.217C438.089 180.271 438.598 180.298 438.974 180.298C439.429 180.298 439.952 180.271 440.542 180.217L441.507 180.177C441.561 180.177 441.588 180.257 441.588 180.418C441.588 180.579 441.561 180.66 441.507 180.66C441.159 180.66 440.904 180.686 440.743 180.74C440.609 180.794 440.542 180.914 440.542 181.102C440.542 181.397 440.797 182.067 441.306 183.113L443.157 186.934L444.484 183.354C444.806 182.496 444.966 181.866 444.966 181.464C444.966 181.169 444.886 180.968 444.725 180.861C444.564 180.727 444.309 180.66 443.961 180.66C443.88 180.66 443.84 180.579 443.84 180.418C443.84 180.257 443.88 180.177 443.961 180.177C444.202 180.177 444.497 180.204 444.846 180.257C445.194 180.284 445.516 180.298 445.811 180.298C446.294 180.298 446.83 180.271 447.42 180.217L448.787 180.177C448.868 180.177 448.908 180.257 448.908 180.418C448.908 180.579 448.868 180.66 448.787 180.66C447.956 180.66 447.272 180.861 446.736 181.263C446.2 181.665 445.704 182.443 445.248 183.596L443.599 187.819L447.54 195.983L452.206 183.596C452.421 183.059 452.528 182.55 452.528 182.067C452.528 181.129 451.965 180.66 450.839 180.66C450.785 180.66 450.758 180.579 450.758 180.418C450.758 180.257 450.785 180.177 450.839 180.177L451.965 180.217C452.501 180.271 453.01 180.298 453.493 180.298C453.976 180.298 454.539 180.271 455.182 180.217L456.67 180.177ZM476.347 198.517C476.454 198.517 476.508 198.598 476.508 198.759C476.508 198.92 476.454 199 476.347 199C475.864 199 475.087 198.973 474.014 198.92C472.942 198.866 472.164 198.839 471.682 198.839C471.253 198.839 470.69 198.866 469.992 198.92C469.295 198.973 468.759 199 468.384 199C468.276 199 468.223 198.92 468.223 198.759C468.223 198.598 468.276 198.517 468.384 198.517C469.081 198.517 469.59 198.437 469.912 198.276C470.26 198.088 470.435 197.767 470.435 197.311C470.435 196.909 470.274 196.345 469.952 195.622L467.217 189.749H461.586L459.857 194.053C459.428 195.072 459.213 195.916 459.213 196.587C459.213 197.284 459.455 197.78 459.937 198.075C460.42 198.37 461.157 198.517 462.149 198.517C462.284 198.517 462.351 198.598 462.351 198.759C462.351 198.92 462.284 199 462.149 199C461.747 199 461.198 198.973 460.5 198.92C459.75 198.866 459.053 198.839 458.409 198.839C457.739 198.839 456.948 198.866 456.036 198.92C455.232 198.973 454.588 199 454.105 199C453.971 199 453.904 198.92 453.904 198.759C453.904 198.598 453.971 198.517 454.105 198.517C454.937 198.517 455.594 198.41 456.076 198.196C456.559 197.954 457.001 197.498 457.404 196.828C457.833 196.158 458.342 195.112 458.932 193.691L464.724 179.574C464.777 179.466 464.858 179.413 464.965 179.413C465.072 179.413 465.139 179.466 465.166 179.574L471.641 193.49C472.339 194.991 472.888 196.077 473.29 196.748C473.719 197.418 474.148 197.887 474.577 198.155C475.033 198.397 475.623 198.517 476.347 198.517ZM461.868 189.025H466.895L464.201 183.234L461.868 189.025ZM483.289 195.581C483.289 196.359 483.356 196.935 483.49 197.311C483.651 197.686 483.932 197.954 484.335 198.115C484.764 198.276 485.394 198.356 486.225 198.356H488.879C490.301 198.356 491.427 197.914 492.258 197.029C493.116 196.144 493.692 194.924 493.987 193.369C493.987 193.316 494.041 193.289 494.148 193.289C494.229 193.289 494.296 193.302 494.349 193.329C494.43 193.356 494.47 193.396 494.47 193.45C494.282 194.683 494.188 196.332 494.188 198.397C494.188 198.611 494.135 198.772 494.028 198.879C493.947 198.96 493.8 199 493.585 199H477.859C477.806 199 477.779 198.92 477.779 198.759C477.779 198.598 477.806 198.517 477.859 198.517C478.744 198.517 479.388 198.45 479.79 198.316C480.192 198.182 480.46 197.927 480.594 197.552C480.728 197.15 480.795 196.547 480.795 195.742V183.435C480.795 182.63 480.715 182.041 480.554 181.665C480.42 181.29 480.152 181.035 479.749 180.901C479.347 180.74 478.717 180.66 477.859 180.66C477.806 180.66 477.779 180.579 477.779 180.418C477.779 180.257 477.806 180.177 477.859 180.177L479.669 180.217C480.688 180.271 481.479 180.298 482.042 180.298C482.712 180.298 483.557 180.271 484.576 180.217L486.265 180.177C486.346 180.177 486.386 180.257 486.386 180.418C486.386 180.579 486.346 180.66 486.265 180.66C485.38 180.66 484.737 180.74 484.335 180.901C483.932 181.035 483.651 181.303 483.49 181.705C483.356 182.081 483.289 182.671 483.289 183.475V195.581ZM501.906 195.581C501.906 196.359 501.973 196.935 502.107 197.311C502.268 197.686 502.55 197.954 502.952 198.115C503.381 198.276 504.011 198.356 504.842 198.356H507.497C508.918 198.356 510.044 197.914 510.875 197.029C511.733 196.144 512.31 194.924 512.605 193.369C512.605 193.316 512.658 193.289 512.766 193.289C512.846 193.289 512.913 193.302 512.967 193.329C513.047 193.356 513.087 193.396 513.087 193.45C512.9 194.683 512.806 196.332 512.806 198.397C512.806 198.611 512.752 198.772 512.645 198.879C512.565 198.96 512.417 199 512.203 199H496.477C496.423 199 496.396 198.92 496.396 198.759C496.396 198.598 496.423 198.517 496.477 198.517C497.361 198.517 498.005 198.45 498.407 198.316C498.809 198.182 499.078 197.927 499.212 197.552C499.346 197.15 499.413 196.547 499.413 195.742V183.435C499.413 182.63 499.332 182.041 499.171 181.665C499.037 181.29 498.769 181.035 498.367 180.901C497.965 180.74 497.335 180.66 496.477 180.66C496.423 180.66 496.396 180.579 496.396 180.418C496.396 180.257 496.423 180.177 496.477 180.177L498.287 180.217C499.305 180.271 500.096 180.298 500.659 180.298C501.33 180.298 502.174 180.271 503.193 180.217L504.883 180.177C504.963 180.177 505.003 180.257 505.003 180.418C505.003 180.579 504.963 180.66 504.883 180.66C503.998 180.66 503.354 180.74 502.952 180.901C502.55 181.035 502.268 181.303 502.107 181.705C501.973 182.081 501.906 182.671 501.906 183.475V195.581Z" fill="black"/>
</svg>
